<svg xmlns="http://www.w3.org/2000/svg" xmlns:xlink="http://www.w3.org/1999/xlink" width="100" zoomAndPan="magnify" viewBox="0 0 75 74.999997" height="100" preserveAspectRatio="xMidYMid meet" version="1.0"><defs><clipPath id="63378b8391"><path d="M 23.867188 22.5 L 50.867188 22.5 L 50.867188 52.5 L 23.867188 52.5 Z M 23.867188 22.5 " clip-rule="nonzero"/></clipPath></defs><g clip-path="url(#63378b8391)"><path fill="#ffffff" d="M 25.242188 48.597656 C 25.242188 48.597656 25.246094 48.597656 25.246094 48.597656 C 25.148438 48.164062 25.171875 47.703125 25.171875 47.253906 C 25.171875 47.195312 25.1875 47.152344 25.203125 47.117188 C 25.023438 46.671875 24.863281 46.246094 24.871094 45.691406 C 24.871094 45.550781 24.871094 45.410156 24.867188 45.269531 C 24.8125 45.792969 24.777344 46.335938 24.769531 46.84375 C 24.761719 47.222656 25.007812 47.746094 25.105469 48.125 C 25.140625 48.261719 25.183594 48.425781 25.242188 48.597656 Z M 29.265625 47.472656 C 29.039062 47.246094 28.894531 46.917969 28.777344 46.625 C 28.6875 46.40625 28.621094 46.199219 28.574219 45.984375 C 28.5625 46.640625 28.703125 47.382812 29.265625 47.472656 Z M 30.6875 47.328125 C 30.273438 47.148438 29.789062 47.109375 29.425781 46.777344 C 29.0625 46.449219 28.996094 46.09375 29 45.621094 C 29.003906 44.660156 29.414062 43.871094 29.992188 43.164062 C 29.484375 43.550781 28.976562 44.230469 28.746094 44.875 C 28.75 44.886719 28.757812 44.898438 28.757812 44.914062 C 28.792969 45.402344 28.808594 45.90625 29.011719 46.355469 C 29.160156 46.679688 29.332031 47.265625 29.714844 47.398438 C 29.757812 47.410156 29.789062 47.4375 29.804688 47.472656 C 30.121094 47.457031 30.414062 47.425781 30.6875 47.328125 Z M 31.550781 49.921875 C 31.136719 49.976562 30.714844 50.003906 30.28125 50.078125 C 29.007812 50.292969 27.722656 50.292969 26.675781 49.433594 C 26.179688 49.027344 25.707031 48.519531 25.503906 47.894531 C 25.5 47.886719 25.496094 47.878906 25.492188 47.871094 C 25.503906 48.25 25.550781 48.660156 25.742188 48.992188 C 26.175781 49.726562 26.921875 49.769531 27.625 50.078125 C 28.847656 50.609375 30.386719 50.605469 31.550781 49.921875 Z M 33.425781 49.34375 C 33.222656 49.441406 33.011719 49.535156 32.785156 49.625 C 32.625 49.691406 32.464844 49.738281 32.304688 49.78125 C 31.113281 50.835938 29.167969 51.113281 27.707031 50.476562 C 26.859375 50.109375 25.976562 50.015625 25.464844 49.160156 C 25.445312 49.125 25.429688 49.09375 25.410156 49.058594 C 25.558594 49.417969 25.746094 49.761719 25.960938 49.953125 C 26.976562 50.847656 28.765625 51.925781 30.128906 51.363281 C 30.875 51.058594 31.511719 50.632812 32.207031 50.242188 C 32.632812 49.996094 33.101562 49.726562 33.425781 49.34375 Z M 33.746094 40.953125 C 33.769531 40.820312 33.796875 40.6875 33.828125 40.558594 C 32.988281 41.214844 32.046875 41.707031 31.214844 42.363281 C 31.101562 42.457031 30.980469 42.535156 30.855469 42.613281 C 30.863281 42.65625 30.851562 42.703125 30.8125 42.746094 C 30.15625 43.40625 29.328125 44.367188 29.324219 45.359375 C 29.324219 45.632812 29.28125 46.070312 29.4375 46.300781 C 29.628906 46.585938 29.875 46.617188 30.117188 46.777344 C 30.375 46.953125 30.671875 46.953125 30.9375 47.085938 C 30.984375 47.105469 31.007812 47.140625 31.015625 47.175781 C 31.195312 47.070312 31.363281 46.929688 31.527344 46.730469 C 32.15625 45.960938 32.65625 45.09375 33.21875 44.28125 C 33.371094 43.648438 33.472656 43.007812 33.472656 42.332031 C 33.472656 41.890625 33.679688 41.398438 33.746094 40.953125 Z M 33.992188 40.003906 C 34.046875 39.832031 34.105469 39.652344 34.160156 39.46875 C 33.625 39.828125 33.117188 40.238281 32.582031 40.59375 C 31.980469 41 31.296875 41.273438 30.695312 41.683594 C 29.210938 42.691406 27.4375 44.390625 27.410156 46.355469 C 27.410156 46.375 27.402344 46.386719 27.402344 46.402344 C 27.445312 46.539062 27.507812 46.671875 27.59375 46.789062 C 27.980469 47.304688 28.582031 48.058594 29.296875 48.066406 C 30.027344 48.078125 30.839844 48.160156 31.476562 47.714844 C 32.027344 47.332031 32.429688 46.84375 32.644531 46.203125 C 32.738281 45.90625 32.835938 45.613281 32.929688 45.320312 C 32.382812 46.1875 31.816406 47.050781 30.957031 47.617188 C 30.546875 47.886719 29.53125 47.929688 29.089844 47.792969 C 28.574219 47.632812 28.429688 47.070312 28.296875 46.585938 C 27.933594 45.253906 28.816406 43.546875 29.910156 42.824219 C 31.269531 41.925781 32.753906 41.105469 33.976562 40.011719 C 33.980469 40.007812 33.988281 40.007812 33.992188 40.003906 Z M 34.300781 38.996094 C 34.402344 38.671875 34.523438 38.324219 34.679688 37.996094 C 33.050781 39.117188 31.183594 39.882812 29.679688 41.195312 C 28.652344 42.089844 27.832031 43.214844 27.503906 44.550781 C 27.484375 44.632812 27.464844 44.71875 27.445312 44.8125 C 27.949219 43.648438 28.910156 42.601562 29.832031 41.917969 C 30.585938 41.363281 31.410156 40.996094 32.179688 40.476562 C 32.890625 39.996094 33.566406 39.4375 34.300781 38.996094 Z M 34.933594 36.515625 C 34.84375 36.421875 34.757812 36.328125 34.675781 36.230469 C 34.382812 36.652344 33.808594 36.957031 33.390625 37.222656 C 32.820312 37.589844 32.246094 37.96875 31.644531 38.28125 C 30.914062 38.65625 30.277344 39.160156 29.566406 39.5625 C 28.933594 39.917969 28.269531 40.300781 27.726562 40.789062 C 27.132812 41.324219 26.519531 41.789062 26.257812 42.59375 C 26.0625 43.195312 25.730469 43.921875 25.765625 44.5625 C 25.839844 45.886719 25.960938 47.171875 26.863281 48.015625 C 26.6875 47.785156 26.546875 47.527344 26.472656 47.324219 C 26.328125 46.929688 26.15625 46.636719 26.097656 46.214844 C 26.050781 45.871094 26.109375 45.507812 26.117188 45.160156 C 26.140625 43.96875 26.796875 42.398438 27.59375 41.535156 C 28.609375 40.433594 29.972656 39.371094 31.304688 38.703125 C 32.011719 38.347656 32.746094 38.039062 33.417969 37.621094 C 33.9375 37.296875 34.394531 36.777344 34.933594 36.515625 Z M 35.929688 37.664062 C 35.941406 37.636719 35.957031 37.613281 35.976562 37.597656 C 35.882812 37.5 35.773438 37.386719 35.65625 37.269531 C 35.105469 37.613281 34.851562 38.351562 34.640625 39.015625 C 34.667969 39.078125 34.65625 39.160156 34.578125 39.207031 C 34.53125 39.363281 34.480469 39.511719 34.425781 39.648438 C 34.371094 39.792969 34.3125 39.949219 34.257812 40.121094 C 34.257812 40.15625 34.25 40.1875 34.222656 40.21875 C 34.09375 40.636719 33.984375 41.097656 33.984375 41.488281 C 33.984375 41.878906 33.796875 42.203125 33.796875 42.601562 C 33.796875 42.871094 33.761719 43.1875 33.742188 43.460938 C 33.703125 44.203125 33.371094 44.835938 33.164062 45.539062 C 32.855469 46.570312 32.523438 47.632812 31.433594 48.097656 C 30.746094 48.386719 30.304688 48.40625 29.539062 48.398438 C 28.902344 48.386719 28.613281 48.210938 28.101562 47.832031 C 27.660156 47.5 27.292969 46.988281 27.101562 46.425781 C 27.101562 46.425781 27.101562 46.425781 27.097656 46.421875 C 26.921875 45.90625 26.886719 45.351562 27.078125 44.847656 C 27.289062 44.269531 27.347656 43.683594 27.671875 43.148438 C 28.023438 42.566406 28.417969 42.140625 28.832031 41.613281 C 29.746094 40.445312 31.070312 39.960938 32.226562 39.113281 C 32.796875 38.699219 33.460938 38.34375 34.09375 38.027344 C 34.507812 37.820312 34.867188 37.515625 35.214844 37.207031 C 35.261719 37.160156 35.3125 37.113281 35.367188 37.074219 C 35.382812 37.058594 35.398438 37.042969 35.417969 37.027344 C 35.332031 36.941406 35.246094 36.851562 35.15625 36.757812 C 35.144531 36.765625 35.132812 36.777344 35.117188 36.785156 C 34.648438 37.003906 34.21875 37.507812 33.769531 37.785156 C 33.253906 38.105469 32.6875 38.425781 32.144531 38.683594 C 30.890625 39.285156 29.828125 39.980469 28.777344 40.898438 C 28.183594 41.414062 27.585938 41.890625 27.242188 42.625 C 26.9375 43.285156 26.765625 43.953125 26.542969 44.632812 C 26.152344 45.808594 26.550781 47.714844 27.734375 48.308594 C 28.238281 48.5625 29.09375 48.613281 29.648438 48.613281 C 30.503906 48.613281 31.210938 48.488281 31.921875 47.984375 C 33.027344 47.195312 33.488281 45.933594 33.890625 44.6875 C 34.257812 43.554688 34.546875 42.382812 34.792969 41.214844 C 35.054688 39.96875 35.453125 38.84375 35.929688 37.664062 Z M 36.773438 38.507812 C 36.613281 38.328125 36.457031 38.148438 36.3125 37.964844 C 36.285156 37.929688 36.246094 37.882812 36.207031 37.839844 C 35.886719 38.617188 35.554688 39.386719 35.324219 40.199219 C 35.121094 40.917969 35.039062 41.675781 34.851562 42.40625 C 34.671875 43.128906 34.5 43.847656 34.273438 44.550781 C 34.082031 45.148438 33.992188 45.917969 33.613281 46.4375 C 33.371094 46.769531 33.183594 47.101562 32.960938 47.417969 C 33.558594 47.042969 34.019531 46.429688 34.382812 45.839844 C 34.777344 45.199219 35.132812 44.058594 35.144531 43.289062 C 35.175781 41.640625 36 39.914062 36.773438 38.507812 Z M 37.417969 39.191406 C 37.28125 39.050781 37.140625 38.910156 37.003906 38.761719 C 36.4375 39.800781 35.886719 40.953125 35.664062 42.128906 C 35.515625 42.917969 35.449219 43.699219 35.214844 44.46875 C 34.777344 45.921875 34.042969 47.523438 32.46875 48 C 32.078125 48.371094 31.496094 48.746094 30.96875 48.859375 C 30.339844 48.996094 29.5625 49.019531 28.828125 48.917969 C 31.113281 49.402344 33.527344 48.539062 34.921875 46.574219 C 35.679688 45.507812 35.84375 43.851562 35.976562 42.574219 C 36.03125 42.074219 36.3125 41.386719 36.539062 40.945312 C 36.832031 40.367188 37.09375 39.753906 37.417969 39.191406 Z M 37.984375 39.761719 C 37.878906 39.65625 37.773438 39.554688 37.675781 39.457031 C 37.667969 39.449219 37.664062 39.441406 37.65625 39.4375 C 37.449219 39.816406 37.300781 40.226562 37.085938 40.605469 C 36.859375 41.007812 36.609375 41.476562 36.5 41.933594 C 36.3125 42.683594 36.25 43.449219 36.066406 44.195312 C 35.722656 45.59375 35.40625 46.753906 34.367188 47.804688 C 33.964844 48.210938 33.195312 48.609375 32.675781 48.851562 C 32.105469 49.113281 31.449219 49.371094 30.816406 49.375 C 29.664062 49.382812 28.289062 49.375 27.289062 48.699219 C 26.988281 48.5 26.664062 48.472656 26.453125 48.160156 C 26.234375 47.835938 26 47.519531 25.824219 47.164062 C 25.542969 46.59375 25.523438 45.851562 25.484375 45.226562 C 25.402344 44.019531 25.664062 42.554688 26.441406 41.574219 C 27.402344 40.351562 28.847656 39.695312 30.09375 38.832031 C 30.773438 38.359375 31.507812 37.996094 32.207031 37.566406 C 32.542969 37.359375 32.910156 37.175781 33.226562 36.941406 C 33.535156 36.714844 34.25 36.328125 34.457031 35.976562 C 34.433594 35.949219 34.410156 35.921875 34.386719 35.894531 C 33.382812 36.777344 31.996094 37.449219 30.804688 38.011719 C 30.277344 38.261719 29.796875 38.585938 29.257812 38.816406 C 28.464844 39.152344 27.664062 39.585938 27.054688 40.203125 C 25.765625 41.496094 25.179688 43.046875 25.199219 44.859375 C 25.203125 45.390625 25.148438 45.9375 25.269531 46.457031 C 25.347656 46.785156 25.523438 47.0625 25.652344 47.375 C 25.917969 48.011719 26.199219 48.621094 26.742188 49.070312 C 28.058594 50.148438 29.699219 49.871094 31.261719 49.675781 C 31.539062 49.640625 31.832031 49.585938 32.128906 49.507812 C 32.152344 49.496094 32.179688 49.488281 32.207031 49.492188 C 32.769531 49.34375 33.324219 49.125 33.769531 48.828125 C 34.523438 48.316406 34.984375 47.523438 35.460938 46.761719 C 36.128906 45.695312 36.359375 44.496094 36.578125 43.265625 C 36.714844 42.484375 37 41.828125 37.257812 41.089844 C 37.425781 40.601562 37.757812 40.21875 37.984375 39.761719 Z M 38.160156 29.320312 C 38.214844 29.148438 38.285156 28.988281 38.363281 28.835938 C 37.644531 29.621094 37.289062 30.617188 36.699219 31.484375 C 36.707031 31.496094 36.714844 31.511719 36.722656 31.527344 C 36.878906 31.488281 37.066406 31.496094 37.261719 31.535156 C 37.644531 30.835938 37.910156 30.074219 38.160156 29.320312 Z M 38.140625 34.488281 C 38.296875 34.40625 38.441406 34.308594 38.578125 34.199219 C 38.234375 34.050781 37.875 33.824219 37.554688 33.632812 C 37.757812 33.917969 37.9375 34.222656 38.140625 34.488281 Z M 38.496094 40.214844 C 38.40625 40.144531 38.316406 40.070312 38.230469 39.992188 C 38.015625 40.394531 37.71875 40.738281 37.566406 41.175781 C 37.441406 41.550781 37.277344 41.90625 37.144531 42.273438 C 36.96875 42.753906 36.945312 43.261719 36.855469 43.753906 C 37.066406 43.375 37.253906 42.984375 37.320312 42.578125 C 37.476562 41.664062 38.15625 41.035156 38.496094 40.214844 Z M 38.035156 28.710938 C 38.582031 28.136719 38.988281 27.46875 39.351562 26.769531 C 38.941406 27.222656 38.546875 27.691406 38.179688 28.199219 C 37.609375 29.003906 37.207031 29.988281 36.542969 30.71875 C 36.554688 30.746094 36.558594 30.777344 36.550781 30.816406 C 36.527344 30.90625 36.53125 31.007812 36.550781 31.109375 C 37.046875 30.3125 37.375 29.390625 38.035156 28.710938 Z M 39.066406 40.574219 C 39.015625 40.546875 38.960938 40.523438 38.910156 40.496094 C 38.859375 40.46875 38.808594 40.4375 38.761719 40.40625 C 38.582031 40.785156 38.3125 41.152344 38.109375 41.515625 C 37.835938 42.019531 37.71875 42.53125 37.507812 43.054688 C 37.230469 43.734375 36.839844 44.34375 36.539062 45.011719 C 36.453125 45.417969 36.367188 45.832031 36.171875 46.195312 C 35.757812 46.960938 35.296875 47.792969 34.703125 48.429688 C 34.472656 48.675781 34.234375 48.871094 33.976562 49.039062 C 33.976562 49.058594 33.972656 49.082031 33.960938 49.101562 C 33.679688 49.738281 33.125 50.09375 32.535156 50.425781 C 31.820312 50.832031 31.246094 51.253906 30.46875 51.574219 C 28.867188 52.230469 27.476562 51.371094 26.144531 50.492188 C 25.082031 49.800781 25.019531 48.488281 24.550781 47.417969 C 24.285156 46.8125 24.546875 46.070312 24.554688 45.433594 C 24.558594 45.046875 24.585938 44.632812 24.710938 44.269531 C 24.757812 44.132812 24.828125 43.960938 24.882812 43.789062 C 24.90625 43.550781 24.945312 43.320312 25.007812 43.089844 C 25.226562 42.3125 25.554688 41.542969 26.03125 40.886719 C 26.488281 40.265625 27.058594 39.617188 27.730469 39.234375 C 28.4375 38.835938 29.222656 38.5625 29.910156 38.136719 C 31.292969 37.28125 32.953125 36.738281 34.1875 35.636719 C 34.0625 35.472656 33.945312 35.308594 33.84375 35.144531 C 33.3125 35.511719 32.886719 36.015625 32.277344 36.261719 C 31.421875 36.609375 30.492188 36.871094 29.710938 37.371094 C 28.199219 38.335938 26.382812 39.160156 25.480469 40.816406 C 24.585938 42.46875 24.191406 44.09375 24.199219 45.976562 C 24.203125 46.898438 24.5 47.808594 24.683594 48.707031 C 24.890625 49.742188 25.230469 50.558594 26.144531 51.152344 C 27.136719 51.792969 28.097656 52.113281 29.296875 51.976562 C 29.921875 51.90625 30.59375 51.867188 31.195312 51.664062 C 32.011719 51.390625 32.917969 51.148438 33.546875 50.515625 C 33.835938 50.222656 34.054688 49.890625 34.308594 49.566406 C 34.558594 49.242188 34.878906 48.992188 35.148438 48.691406 C 35.855469 47.898438 36.355469 46.832031 36.757812 45.847656 C 37.058594 45.113281 37.433594 44.363281 37.632812 43.59375 C 37.800781 42.9375 38.105469 42.296875 38.375 41.671875 C 38.519531 41.335938 38.734375 40.820312 39.066406 40.574219 Z M 38.851562 33.957031 C 38.953125 33.859375 39.054688 33.765625 39.152344 33.671875 C 38.734375 33.433594 38.359375 33.105469 37.929688 32.910156 C 37.609375 32.769531 37.148438 32.625 36.921875 32.332031 C 36.609375 31.933594 36.203125 31.46875 36.210938 30.949219 C 35.429688 31.109375 36.269531 32.289062 36.480469 32.527344 C 36.753906 32.832031 37.027344 32.949219 37.367188 33.144531 C 37.8125 33.402344 38.363281 33.792969 38.851562 33.957031 Z M 39.835938 40.863281 C 39.699219 40.824219 39.5625 40.777344 39.429688 40.726562 C 39.414062 40.746094 39.390625 40.765625 39.363281 40.773438 C 38.941406 40.910156 38.742188 41.738281 38.570312 42.058594 C 38.347656 42.472656 38.261719 42.929688 38.058594 43.351562 C 37.632812 44.246094 37.34375 45.257812 36.96875 46.183594 C 36.65625 46.945312 36.246094 47.894531 35.71875 48.527344 C 35.402344 48.90625 34.988281 49.214844 34.691406 49.601562 C 34.496094 49.851562 34.324219 50.128906 34.117188 50.378906 C 34.160156 50.351562 34.203125 50.324219 34.246094 50.300781 C 34.773438 49.992188 35.066406 49.550781 35.488281 49.125 C 36.476562 48.121094 36.949219 46.703125 37.480469 45.429688 C 37.851562 44.527344 38.308594 43.660156 38.695312 42.765625 C 38.941406 42.191406 39.332031 41.335938 39.835938 40.863281 Z M 39.710938 33.222656 C 39.730469 33.207031 39.753906 33.195312 39.777344 33.183594 C 39.527344 33.066406 39.140625 32.914062 39.058594 32.886719 C 38.898438 32.832031 38.746094 32.742188 38.625 32.621094 C 38.296875 32.292969 37.5 31.789062 36.933594 31.824219 C 37.152344 32.089844 37.417969 32.3125 37.621094 32.410156 C 38.242188 32.714844 38.789062 33.136719 39.414062 33.441406 C 39.507812 33.363281 39.605469 33.289062 39.710938 33.222656 Z M 40.214844 40.589844 C 40.601562 40.710938 40.597656 40.804688 40.886719 40.546875 C 40.5 40.433594 40.105469 40.207031 39.898438 40.070312 C 39.363281 39.710938 38.824219 39.382812 38.316406 38.988281 C 37.949219 38.703125 37.707031 38.304688 37.394531 37.972656 C 37.15625 37.714844 36.96875 37.402344 36.710938 37.164062 C 36.398438 36.871094 36.042969 36.617188 35.734375 36.3125 C 35.207031 35.785156 34.671875 35.328125 34.199219 34.742188 C 34.019531 34.519531 33.910156 34.105469 33.929688 33.71875 C 33.449219 34.222656 34.265625 35.148438 34.589844 35.53125 C 34.820312 35.804688 35.019531 36.148438 35.277344 36.390625 C 35.914062 36.976562 36.402344 37.75 37.054688 38.304688 C 37.667969 38.828125 38.15625 39.480469 38.765625 40.011719 C 39.1875 40.375 39.714844 40.429688 40.214844 40.589844 Z M 41.128906 32.984375 C 40.980469 33.039062 40.832031 33.097656 40.675781 33.148438 C 39.742188 33.457031 39.195312 34.289062 38.351562 34.75 C 38.402344 34.8125 38.457031 34.871094 38.511719 34.929688 C 38.882812 34.449219 39.484375 34.078125 40.019531 33.816406 C 40.132812 33.761719 40.679688 33.34375 41.128906 32.984375 Z M 39.191406 39.234375 C 39.410156 39.363281 41.164062 40.554688 41.507812 40.167969 C 41.324219 40.128906 41.125 40.035156 41.03125 40.007812 C 40.53125 39.851562 40.039062 39.496094 39.585938 39.234375 C 39.164062 38.992188 38.777344 38.707031 38.441406 38.34375 C 37.957031 37.808594 37.457031 37.253906 36.949219 36.742188 C 36.46875 36.253906 36.144531 35.648438 35.652344 35.164062 C 35.125 34.644531 34.449219 34.027344 34.390625 33.320312 C 34.242188 33.554688 34.269531 34.070312 34.328125 34.230469 C 34.402344 34.449219 34.710938 34.9375 34.890625 35.097656 C 35.1875 35.371094 35.507812 35.625 35.792969 35.914062 C 36.09375 36.210938 36.4375 36.464844 36.753906 36.753906 C 37.046875 37.03125 37.265625 37.359375 37.539062 37.652344 C 38.066406 38.21875 38.503906 38.832031 39.191406 39.234375 Z M 41.808594 39.53125 C 41.339844 39.558594 40.792969 39.347656 40.46875 39.125 C 39.949219 38.773438 39.582031 38.414062 39.191406 37.925781 C 38.984375 37.664062 38.808594 37.441406 38.550781 37.242188 C 38.386719 37.113281 38.078125 36.949219 37.972656 36.769531 C 37.253906 35.558594 35.820312 35 35.144531 33.75 C 35.039062 33.554688 34.867188 33.230469 34.773438 32.902344 C 34.355469 34.007812 36.136719 34.9375 36.574219 35.707031 C 37.074219 36.582031 37.882812 37.25 38.550781 37.980469 C 39.128906 38.613281 39.851562 38.871094 40.519531 39.363281 C 40.894531 39.640625 41.621094 40.023438 41.808594 39.53125 Z M 42.046875 39.1875 C 42.121094 39.140625 42.183594 39.078125 42.230469 38.984375 C 42.074219 38.976562 41.925781 38.957031 41.816406 38.957031 C 41.214844 38.945312 40.804688 38.652344 40.382812 38.230469 C 39.863281 37.710938 39.375 37.144531 38.863281 36.617188 C 38.363281 36.105469 35.488281 33.707031 35.117188 32.21875 C 34.445312 32.664062 36.320312 34.671875 36.597656 34.851562 C 37.074219 35.164062 37.660156 35.722656 37.988281 36.199219 C 38.476562 36.898438 39.238281 37.324219 39.726562 38.035156 C 39.972656 38.382812 41.226562 39.375 41.894531 39.242188 C 41.933594 39.199219 41.992188 39.179688 42.046875 39.1875 Z M 42.316406 38.644531 C 42.644531 38.53125 42.78125 38.386719 42.730469 38.207031 C 42.691406 38.269531 42.648438 38.339844 42.558594 38.339844 C 42.304688 38.339844 42.078125 38.320312 41.832031 38.253906 C 41.183594 38.078125 40.703125 37.414062 40.214844 37.007812 C 40.171875 36.96875 40.132812 36.933594 40.089844 36.894531 C 40.042969 36.878906 40.003906 36.847656 39.980469 36.800781 C 39.46875 36.351562 39 35.875 38.515625 35.386719 C 38.179688 35.046875 37.898438 34.6875 37.574219 34.335938 C 37.257812 33.988281 37.179688 33.542969 36.777344 33.238281 C 36.742188 33.210938 36.722656 33.171875 36.714844 33.132812 C 36.488281 32.984375 36.285156 32.804688 36.089844 32.546875 C 35.898438 32.289062 35.703125 31.90625 35.636719 31.550781 C 34.503906 32.300781 38.132812 35.316406 38.589844 35.816406 C 39.15625 36.433594 39.746094 37.015625 40.289062 37.652344 C 40.578125 37.988281 40.914062 38.367188 41.324219 38.546875 C 41.605469 38.664062 42.011719 38.640625 42.316406 38.644531 Z M 43.238281 31.902344 C 43.199219 31.925781 43.160156 31.953125 43.117188 31.976562 C 42.761719 32.1875 42.410156 32.382812 42.054688 32.566406 C 41.914062 32.933594 41.261719 33.28125 41.042969 33.421875 C 40.835938 33.558594 40.695312 33.789062 40.484375 33.925781 C 40.28125 34.058594 40.050781 34.152344 39.863281 34.316406 C 39.496094 34.632812 39.0625 34.71875 38.757812 35.136719 C 38.75 35.148438 38.742188 35.15625 38.734375 35.164062 C 38.796875 35.226562 38.855469 35.285156 38.917969 35.34375 C 38.921875 35.34375 38.921875 35.34375 38.921875 35.34375 C 39.433594 34.984375 39.882812 34.515625 40.421875 34.203125 C 40.84375 33.953125 41.414062 33.664062 41.765625 33.320312 C 42.128906 32.960938 42.574219 32.699219 42.917969 32.316406 C 43.046875 32.167969 43.132812 32.03125 43.238281 31.902344 Z M 44.964844 30.851562 C 45.046875 30.742188 45.128906 30.632812 45.210938 30.527344 C 44.898438 30.804688 44.558594 31.058594 44.210938 31.296875 C 44.210938 31.296875 44.210938 31.300781 44.210938 31.304688 C 44.160156 31.484375 44.128906 31.59375 43.964844 31.71875 C 43.675781 31.9375 43.519531 32.125 43.277344 32.398438 C 42.894531 32.828125 42.425781 33.164062 41.992188 33.550781 C 41.578125 33.917969 41.050781 34.183594 40.585938 34.484375 C 40.085938 34.800781 39.632812 35.226562 39.148438 35.578125 C 39.222656 35.664062 39.292969 35.757812 39.363281 35.84375 C 40.089844 35.300781 40.730469 34.667969 41.503906 34.191406 C 42.136719 33.796875 42.84375 33.40625 43.351562 32.855469 C 43.9375 32.214844 44.445312 31.554688 44.964844 30.851562 Z M 44.675781 27.585938 C 44.894531 27.367188 45.171875 26.980469 45.496094 26.722656 C 45.148438 26.851562 44.746094 27.097656 44.640625 27.179688 C 44.296875 27.445312 44.039062 27.796875 43.792969 28.152344 C 43.464844 28.617188 43.183594 29.121094 42.859375 29.589844 C 42.460938 30.164062 42.238281 30.859375 41.890625 31.464844 C 41.707031 31.785156 41.417969 32.179688 41.25 32.554688 C 41.261719 32.546875 41.277344 32.542969 41.289062 32.539062 C 41.996094 31.957031 42.355469 30.824219 42.824219 30.054688 C 43.328125 29.222656 43.992188 28.273438 44.675781 27.585938 Z M 44.878906 25.84375 C 45.164062 25.765625 45.46875 25.71875 45.734375 25.757812 C 45.226562 25.382812 44.453125 25.324219 43.890625 25.664062 C 43.378906 25.976562 42.859375 26.265625 42.539062 26.792969 C 42.316406 27.160156 42.179688 27.539062 42 27.929688 C 41.566406 28.863281 41.136719 29.792969 40.585938 30.664062 C 40.179688 31.308594 39.953125 32.097656 39.675781 32.8125 C 39.804688 32.863281 39.917969 32.890625 40.035156 32.945312 C 40.179688 32.546875 40.488281 32.144531 40.714844 31.789062 C 40.988281 31.355469 41.238281 30.863281 41.414062 30.382812 C 41.730469 29.488281 41.949219 28.539062 42.4375 27.722656 C 42.945312 26.878906 43.933594 26.101562 44.878906 25.84375 Z M 45.601562 35.28125 C 46.351562 34.730469 46.980469 34.113281 47.566406 33.4375 C 46.9375 34.082031 46.257812 34.6875 45.585938 35.253906 C 45.523438 35.3125 45.457031 35.367188 45.394531 35.429688 C 45.464844 35.378906 45.535156 35.332031 45.601562 35.28125 Z M 45.082031 26.550781 C 45.308594 26.449219 45.761719 26.277344 46.058594 26.363281 C 45.847656 25.566406 44.179688 26.472656 43.925781 26.683594 C 43.574219 26.972656 43.0625 27.308594 42.824219 27.707031 C 42.472656 28.296875 42.285156 28.882812 42.0625 29.53125 C 41.835938 30.179688 41.628906 30.875 41.28125 31.472656 C 41.027344 31.910156 40.625 32.390625 40.410156 32.871094 C 40.554688 32.8125 40.699219 32.753906 40.847656 32.699219 C 41.03125 32.054688 41.554688 31.371094 41.851562 30.773438 C 42.257812 29.957031 42.710938 29.171875 43.21875 28.414062 C 43.734375 27.644531 44.214844 26.933594 45.082031 26.550781 Z M 46.316406 27.519531 C 46.320312 27.351562 46.34375 27.144531 46.292969 26.980469 C 45.949219 26.871094 45.6875 26.9375 45.507812 27.183594 C 44.886719 27.875 44.273438 28.585938 43.726562 29.34375 C 43.292969 29.953125 42.851562 30.546875 42.515625 31.21875 C 42.355469 31.542969 42.195312 31.898438 41.992188 32.214844 C 41.996094 32.21875 42 32.222656 42 32.226562 C 42.003906 32.226562 42.007812 32.222656 42.011719 32.222656 C 42.648438 31.882812 43.359375 31.566406 43.945312 31.144531 C 43.957031 31.132812 43.96875 31.121094 43.984375 31.117188 C 43.984375 31.117188 43.984375 31.113281 43.988281 31.113281 C 44.746094 30.554688 45.765625 29.761719 46.078125 28.851562 C 46.230469 28.414062 46.296875 27.980469 46.316406 27.519531 Z M 45.109375 32.316406 C 46.574219 30.523438 47.585938 28.128906 46.667969 25.839844 C 46.304688 24.933594 45.679688 24.65625 44.78125 24.683594 C 44.136719 24.703125 43.644531 25.042969 43.105469 25.34375 C 41.9375 25.996094 41.761719 27.175781 41.015625 28.148438 C 40.515625 28.808594 40.261719 29.640625 39.910156 30.382812 C 39.613281 31.007812 39.378906 31.917969 38.882812 32.429688 C 38.921875 32.460938 38.960938 32.488281 39.003906 32.507812 C 39.195312 32.59375 39.277344 32.617188 39.382812 32.667969 C 39.5625 32.210938 39.714844 31.75 39.890625 31.289062 C 40.132812 30.648438 40.554688 30.054688 40.894531 29.460938 C 41.257812 28.828125 41.542969 28.15625 41.832031 27.488281 C 42.027344 27.039062 42.253906 26.425781 42.644531 26.105469 C 43.453125 25.449219 44.222656 24.988281 45.265625 25.121094 C 45.929688 25.207031 46.519531 26.046875 46.558594 26.707031 C 46.707031 27.015625 46.632812 27.53125 46.625 27.777344 C 46.605469 28.324219 46.464844 28.808594 46.238281 29.242188 C 46.257812 29.277344 46.265625 29.316406 46.25 29.367188 C 46.039062 30.007812 45.625 30.472656 45.242188 31.015625 C 44.78125 31.679688 44.296875 32.296875 43.753906 32.890625 C 43.214844 33.480469 42.585938 33.902344 41.914062 34.320312 C 41.078125 34.835938 40.375 35.484375 39.59375 36.074219 C 39.597656 36.078125 39.597656 36.082031 39.601562 36.082031 C 39.777344 36.222656 39.949219 36.382812 40.121094 36.546875 C 40.949219 35.855469 41.996094 35.527344 42.761719 34.742188 C 43.546875 33.941406 44.398438 33.1875 45.109375 32.316406 Z M 47.609375 29.007812 C 47.738281 27.914062 47.492188 26.824219 47.222656 25.769531 C 47.03125 25.019531 46.175781 24.238281 45.425781 24.011719 C 44.714844 23.800781 44.089844 23.925781 43.425781 24.222656 C 42.746094 24.523438 42.015625 24.828125 41.578125 25.472656 C 41.246094 25.957031 40.976562 26.476562 40.671875 26.976562 C 40.101562 27.925781 39.832031 29.007812 39.363281 29.996094 C 39.070312 30.617188 38.882812 31.496094 38.355469 31.972656 C 38.417969 32.011719 38.476562 32.050781 38.53125 32.09375 C 38.574219 32.121094 38.613281 32.160156 38.652344 32.199219 C 39.011719 31.8125 39.207031 31.167969 39.410156 30.699219 C 39.675781 30.097656 39.992188 29.507812 40.21875 28.890625 C 40.367188 28.5 40.664062 28.191406 40.828125 27.8125 C 41.085938 27.199219 41.457031 26.582031 41.824219 26.03125 C 42.742188 24.652344 45.734375 23.390625 46.757812 25.285156 C 47.867188 27.328125 47.300781 29.945312 45.980469 31.757812 C 45.210938 32.8125 44.230469 33.679688 43.339844 34.613281 C 42.921875 35.050781 42.433594 35.59375 41.875 35.855469 C 41.351562 36.101562 40.8125 36.394531 40.359375 36.769531 C 40.511719 36.914062 40.667969 37.058594 40.828125 37.195312 C 40.839844 37.183594 40.855469 37.171875 40.878906 37.164062 C 41.503906 36.933594 42.105469 36.332031 42.5625 35.886719 C 43.011719 35.457031 43.539062 35.117188 43.972656 34.679688 C 44.480469 34.175781 44.820312 33.535156 45.3125 33.023438 C 45.632812 32.695312 45.960938 32.246094 46.304688 31.960938 C 46.664062 31.65625 46.894531 31.058594 47.097656 30.636719 C 47.363281 30.078125 47.535156 29.628906 47.609375 29.007812 Z M 47.558594 31.460938 C 48.085938 30.617188 48.613281 29.585938 48.511719 28.554688 C 48.425781 27.644531 48.367188 26.714844 48.066406 25.847656 C 47.914062 25.417969 47.839844 24.953125 47.6875 24.535156 C 47.566406 24.199219 47.140625 24.136719 46.910156 23.921875 C 46.433594 23.488281 45.640625 22.960938 44.949219 22.894531 C 44.925781 22.894531 44.90625 22.894531 44.882812 22.898438 C 43.550781 23.078125 42.527344 23.707031 41.566406 24.574219 C 41.445312 24.730469 41.324219 24.859375 41.15625 25 C 40.78125 25.320312 40.539062 25.671875 40.253906 26.058594 C 39.765625 26.71875 39.570312 27.53125 39.101562 28.179688 C 38.367188 29.199219 38.164062 30.507812 37.582031 31.617188 C 37.746094 31.671875 37.90625 31.738281 38.054688 31.8125 C 38.066406 31.796875 38.078125 31.785156 38.09375 31.773438 C 38.574219 31.410156 38.734375 30.574219 38.984375 30.046875 C 39.289062 29.394531 39.503906 28.695312 39.800781 28.039062 C 40.3125 26.902344 40.875 25.59375 41.816406 24.761719 C 42.535156 24.128906 43.90625 23.402344 44.90625 23.558594 C 45.863281 23.703125 47.21875 24.449219 47.484375 25.484375 C 47.796875 26.707031 48.0625 27.90625 47.914062 29.179688 C 47.796875 30.195312 47.285156 31.242188 46.679688 32.058594 C 46.347656 32.5 45.894531 32.835938 45.542969 33.253906 C 45.019531 33.871094 44.613281 34.570312 43.992188 35.09375 C 43.105469 35.839844 42.199219 36.953125 41.105469 37.417969 C 41.238281 37.519531 41.371094 37.613281 41.507812 37.691406 C 41.542969 37.707031 41.585938 37.734375 41.636719 37.765625 C 41.640625 37.75 41.644531 37.742188 41.65625 37.730469 C 41.796875 37.5625 41.96875 37.441406 42.148438 37.320312 C 42.535156 37.058594 42.808594 36.675781 43.066406 36.289062 C 43.210938 36.074219 43.460938 35.976562 43.65625 35.824219 C 43.96875 35.585938 44.214844 35.363281 44.472656 35.070312 C 45.003906 34.46875 45.566406 33.945312 46.128906 33.375 C 46.453125 33.050781 46.867188 32.71875 47.101562 32.320312 C 47.261719 32.039062 47.390625 31.734375 47.558594 31.460938 Z M 48.960938 29.300781 C 49.167969 28.363281 49.214844 26.007812 48.242188 25.332031 C 48.351562 25.652344 48.472656 25.976562 48.550781 26.308594 C 48.6875 26.867188 48.695312 27.421875 48.769531 27.988281 C 48.890625 28.867188 48.789062 29.582031 48.476562 30.410156 C 48.3125 30.851562 48.066406 31.21875 47.839844 31.625 C 47.640625 31.984375 47.488281 32.394531 47.21875 32.707031 C 46.628906 33.40625 45.886719 33.9375 45.28125 34.613281 C 44.980469 34.945312 44.730469 35.394531 44.390625 35.671875 C 44.046875 35.953125 43.445312 36.226562 43.238281 36.617188 C 42.90625 37.234375 42.351562 37.433594 41.921875 37.917969 C 42.015625 37.964844 42.113281 38.007812 42.207031 38.027344 C 42.210938 38.019531 42.214844 38.007812 42.222656 38 C 42.398438 37.824219 42.609375 37.703125 42.816406 37.570312 C 43.054688 37.289062 43.292969 37.023438 43.601562 36.785156 C 43.644531 36.753906 43.683594 36.71875 43.722656 36.6875 C 43.785156 36.617188 43.855469 36.550781 43.925781 36.492188 C 43.941406 36.480469 43.953125 36.46875 43.96875 36.457031 C 44.382812 36.042969 44.730469 35.554688 45.1875 35.171875 C 46.132812 34.371094 46.929688 33.441406 47.839844 32.613281 C 48.140625 32.339844 48.394531 32.015625 48.601562 31.667969 C 48.792969 30.890625 48.785156 30.085938 48.960938 29.300781 Z M 49.398438 29.3125 C 49.644531 27.867188 49.644531 26.691406 49.066406 25.332031 C 49.050781 25.296875 49.054688 25.265625 49.058594 25.234375 C 48.96875 25.132812 48.882812 25.03125 48.792969 24.921875 C 48.203125 24.207031 47.363281 23.472656 46.421875 23.109375 C 46.539062 23.179688 46.648438 23.253906 46.742188 23.332031 C 47.300781 23.777344 47.851562 23.953125 48.03125 24.660156 C 48.050781 24.738281 48.074219 24.820312 48.097656 24.898438 C 48.105469 24.902344 48.109375 24.898438 48.117188 24.902344 C 49.414062 25.417969 49.300781 27.371094 49.339844 28.488281 C 49.355469 28.90625 49.339844 29.371094 49.292969 29.84375 C 49.335938 29.667969 49.371094 29.488281 49.398438 29.3125 Z M 50.363281 29 C 50.542969 28.09375 50.445312 27.371094 50.023438 26.539062 C 49.921875 26.335938 49.808594 26.160156 49.691406 25.996094 C 49.816406 26.339844 49.90625 26.6875 49.90625 27.097656 C 49.90625 27.714844 49.988281 28.480469 49.792969 29.074219 C 49.566406 29.761719 49.457031 30.496094 49.207031 31.179688 C 49.316406 31.007812 49.429688 30.835938 49.550781 30.667969 C 49.898438 30.195312 50.25 29.578125 50.363281 29 Z M 50.304688 26.375 C 50.578125 27 50.871094 27.644531 50.804688 28.34375 C 50.667969 29.699219 49.933594 30.542969 49.292969 31.675781 C 48.605469 32.878906 47.574219 34.144531 46.5 35 C 45.855469 35.515625 45.050781 35.933594 44.421875 36.476562 C 44.285156 36.617188 44.148438 36.753906 44.003906 36.882812 C 43.753906 37.148438 43.519531 37.425781 43.238281 37.664062 C 43.191406 37.703125 43.140625 37.742188 43.089844 37.777344 C 43.046875 37.820312 43.007812 37.867188 42.964844 37.910156 C 43.144531 38.148438 43.089844 38.480469 42.941406 38.738281 C 42.863281 38.871094 42.730469 38.933594 42.578125 38.964844 C 42.574219 38.976562 42.578125 38.984375 42.570312 38.996094 C 42.492188 39.226562 42.347656 39.371094 42.164062 39.449219 C 42.136719 39.722656 42.089844 39.847656 41.882812 40.082031 C 41.828125 40.53125 41.535156 40.648438 41.179688 40.609375 C 41.195312 40.65625 41.1875 40.714844 41.136719 40.761719 C 40.828125 41.039062 40.824219 41.148438 40.394531 41.027344 C 40.332031 41.007812 40.269531 40.992188 40.210938 40.976562 C 39.8125 41.242188 39.464844 41.9375 39.242188 42.359375 C 39.011719 42.796875 38.867188 43.265625 38.660156 43.71875 C 38.125 44.898438 37.589844 46.082031 37.054688 47.269531 C 36.578125 48.324219 35.878906 49.136719 35.144531 50.015625 C 34.832031 50.386719 34.390625 50.570312 33.984375 50.820312 C 33.617188 51.046875 33.253906 51.328125 32.839844 51.464844 C 32.800781 51.476562 32.765625 51.472656 32.734375 51.457031 C 31.921875 51.898438 30.976562 52.191406 30.160156 52.203125 C 29.160156 52.222656 28.242188 52.441406 27.261719 52.117188 C 26.542969 51.878906 25.945312 51.433594 25.355469 50.957031 C 24.699219 50.433594 24.570312 49.570312 24.371094 48.792969 C 24.140625 47.894531 23.859375 46.910156 23.875 45.976562 C 23.902344 44.300781 24.082031 42.535156 24.960938 41.074219 C 25.445312 40.269531 25.992188 39.558594 26.648438 38.898438 C 26.90625 38.636719 27.410156 38.433594 27.726562 38.234375 C 28.222656 37.914062 28.707031 37.59375 29.214844 37.296875 C 30.011719 36.824219 30.828125 36.480469 31.691406 36.148438 C 32.496094 35.835938 32.992188 35.324219 33.683594 34.859375 C 33.359375 34.21875 33.332031 33.640625 33.949219 33.304688 C 33.976562 33.289062 34 33.28125 34.027344 33.28125 C 34.105469 33.097656 34.234375 32.957031 34.429688 32.898438 C 34.464844 32.777344 34.519531 32.652344 34.597656 32.527344 C 34.625 32.480469 34.667969 32.457031 34.707031 32.453125 C 34.710938 32.203125 34.816406 31.992188 35.082031 31.875 C 35.097656 31.601562 35.234375 31.375 35.546875 31.222656 C 35.570312 31.210938 35.59375 31.207031 35.621094 31.207031 C 35.648438 30.925781 35.8125 30.699219 36.195312 30.625 C 36.195312 30.621094 36.195312 30.621094 36.199219 30.613281 C 37.160156 29.644531 37.621094 28.210938 38.539062 27.1875 C 39.449219 26.175781 40.382812 25.066406 41.453125 24.179688 C 41.472656 24.148438 41.496094 24.132812 41.523438 24.121094 C 41.695312 23.980469 41.871094 23.84375 42.054688 23.714844 C 42.839844 23.160156 43.777344 22.683594 44.75 22.585938 C 44.777344 22.566406 44.804688 22.554688 44.84375 22.558594 C 44.882812 22.558594 44.925781 22.566406 44.964844 22.570312 C 45.199219 22.558594 45.433594 22.570312 45.664062 22.609375 C 46.878906 22.808594 48.171875 23.5 48.898438 24.515625 C 49.386719 25.203125 49.953125 25.570312 50.304688 26.375 " fill-opacity="1" fill-rule="nonzero"/></g></svg>