<svg xmlns="http://www.w3.org/2000/svg" xmlns:xlink="http://www.w3.org/1999/xlink" width="100" zoomAndPan="magnify" viewBox="0 0 75 74.999997" height="100" preserveAspectRatio="xMidYMid meet" version="1.0"><defs><clipPath id="0a045b2f63"><path d="M 29.417969 16.199219 L 51 16.199219 L 51 41 L 29.417969 41 Z M 29.417969 16.199219 " clip-rule="nonzero"/></clipPath><clipPath id="f76e56a524"><path d="M 50 37 L 55.667969 37 L 55.667969 44 L 50 44 Z M 50 37 " clip-rule="nonzero"/></clipPath><clipPath id="eefd496c6c"><path d="M 31 40 L 51 40 L 51 46.199219 L 31 46.199219 Z M 31 40 " clip-rule="nonzero"/></clipPath><clipPath id="23a83e143b"><path d="M 49 42 L 55.667969 42 L 55.667969 45 L 49 45 Z M 49 42 " clip-rule="nonzero"/></clipPath><clipPath id="682fad078f"><path d="M 43 42 L 55.667969 42 L 55.667969 46 L 43 46 Z M 43 42 " clip-rule="nonzero"/></clipPath></defs><path fill="#ffffff" d="M 44.148438 24.589844 C 44.191406 24.753906 44.292969 24.945312 44.410156 25.132812 C 44.527344 25.320312 44.664062 25.503906 44.765625 25.632812 L 44.882812 25.789062 C 44.980469 25.910156 45.03125 25.972656 45.03125 26.027344 C 45.039062 26.097656 45.003906 26.132812 44.929688 26.136719 C 44.902344 26.140625 44.863281 26.132812 44.804688 26.121094 C 44.730469 26.105469 44.617188 26.082031 44.46875 26.070312 C 44.476562 26.097656 44.476562 26.125 44.476562 26.148438 C 44.496094 26.15625 44.515625 26.164062 44.527344 26.171875 C 44.617188 26.214844 44.671875 26.28125 44.679688 26.378906 C 44.679688 26.390625 44.679688 26.402344 44.679688 26.414062 C 44.667969 26.527344 44.582031 26.671875 44.449219 26.816406 C 44.320312 26.953125 44.148438 27.089844 43.964844 27.203125 C 43.792969 27.308594 43.609375 27.386719 43.4375 27.433594 C 43.25 27.488281 43.074219 27.507812 42.949219 27.492188 C 42.808594 27.476562 42.722656 27.417969 42.664062 27.339844 C 42.605469 27.265625 42.582031 27.179688 42.566406 27.09375 C 42.558594 27.050781 42.550781 27 42.546875 26.957031 C 42.535156 26.871094 42.527344 26.800781 42.503906 26.769531 C 42.5 26.761719 42.488281 26.757812 42.46875 26.761719 C 42.4375 26.765625 42.390625 26.78125 42.335938 26.816406 C 42.289062 26.84375 42.234375 26.882812 42.175781 26.929688 C 42.070312 27.011719 41.9375 27.113281 41.765625 27.207031 C 41.617188 27.292969 41.433594 27.375 41.246094 27.433594 C 41.085938 27.484375 40.917969 27.519531 40.765625 27.523438 C 40.59375 27.527344 40.4375 27.496094 40.3125 27.433594 C 40.179688 27.367188 40.082031 27.269531 40.035156 27.140625 C 39.972656 26.957031 40.019531 26.734375 40.058594 26.550781 C 40.070312 26.496094 40.078125 26.449219 40.085938 26.40625 C 40.097656 26.339844 40.089844 26.289062 40.0625 26.238281 C 40.027344 26.179688 39.960938 26.105469 39.839844 25.988281 C 39.753906 25.902344 39.640625 25.789062 39.515625 25.671875 C 39.289062 25.449219 39.019531 25.195312 38.800781 24.96875 C 38.636719 24.800781 38.5 24.648438 38.390625 24.527344 C 38.273438 24.390625 38.191406 24.28125 38.152344 24.214844 C 38.132812 24.179688 38.121094 24.144531 38.117188 24.117188 C 38.113281 24.054688 38.140625 24.015625 38.207031 24.007812 C 38.230469 24.003906 38.261719 24.011719 38.289062 24.023438 C 38.351562 24.050781 38.460938 24.128906 38.628906 24.265625 C 38.777344 24.386719 38.976562 24.550781 39.183594 24.730469 C 39.4375 24.949219 39.707031 25.1875 39.910156 25.371094 L 39.972656 25.425781 C 40.269531 25.695312 40.390625 25.800781 40.667969 25.871094 C 40.867188 25.917969 41.144531 25.953125 41.398438 25.980469 C 41.542969 25.996094 41.679688 26.015625 41.792969 26.03125 C 42.011719 26.066406 42.125 26.109375 42.214844 26.140625 C 42.253906 26.15625 42.289062 26.167969 42.324219 26.175781 C 42.375 26.191406 42.4375 26.199219 42.5 26.199219 C 42.5625 26.199219 42.625 26.191406 42.679688 26.175781 C 42.71875 26.167969 42.765625 26.148438 42.8125 26.132812 C 42.902344 26.097656 43.011719 26.058594 43.195312 26.019531 C 43.359375 25.980469 43.570312 25.945312 43.789062 25.917969 C 43.929688 25.902344 44.074219 25.890625 44.207031 25.886719 C 44.144531 25.761719 44.058594 25.636719 43.984375 25.53125 C 43.949219 25.480469 43.910156 25.429688 43.886719 25.390625 C 43.859375 25.347656 43.835938 25.304688 43.820312 25.273438 C 43.785156 25.351562 43.75 25.414062 43.710938 25.464844 C 43.628906 25.566406 43.535156 25.617188 43.429688 25.648438 C 43.34375 25.671875 43.25 25.675781 43.171875 25.675781 C 43.042969 25.671875 42.941406 25.628906 42.921875 25.578125 C 42.890625 25.480469 42.96875 25.449219 43.09375 25.40625 C 43.15625 25.382812 43.242188 25.351562 43.320312 25.3125 C 43.410156 25.261719 43.5 25.195312 43.570312 25.140625 C 43.621094 25.101562 43.667969 25.066406 43.707031 25.042969 L 43.722656 24.980469 C 43.761719 24.785156 43.785156 24.519531 43.792969 24.257812 C 43.796875 24.015625 43.78125 23.777344 43.742188 23.597656 C 43.691406 23.359375 43.597656 23.238281 43.546875 23.167969 C 43.496094 23.109375 43.472656 23.070312 43.496094 23.007812 C 43.503906 22.996094 43.507812 22.984375 43.519531 22.980469 C 43.546875 22.949219 43.605469 22.933594 43.671875 22.941406 C 43.71875 22.945312 43.773438 22.957031 43.835938 22.980469 C 43.898438 23.007812 43.96875 23.050781 44.023438 23.105469 C 44.113281 23.1875 44.175781 23.300781 44.210938 23.425781 C 44.246094 23.546875 44.253906 23.6875 44.234375 23.820312 C 44.222656 23.898438 44.203125 23.972656 44.175781 24.042969 C 44.128906 24.203125 44.078125 24.371094 44.136719 24.589844 Z M 44.257812 25.226562 C 44.132812 25.027344 44.023438 24.820312 43.972656 24.636719 L 43.960938 24.59375 C 43.949219 24.746094 43.929688 24.894531 43.90625 25.015625 L 43.898438 25.039062 C 43.925781 25.066406 43.945312 25.105469 43.972656 25.15625 C 43.988281 25.195312 44.015625 25.238281 44.050781 25.292969 C 44.074219 25.335938 44.109375 25.378906 44.136719 25.429688 C 44.230469 25.5625 44.34375 25.722656 44.414062 25.886719 C 44.558594 25.890625 44.675781 25.910156 44.765625 25.929688 L 44.625 25.75 C 44.515625 25.609375 44.378906 25.425781 44.257812 25.234375 Z M 44.285156 26.058594 C 44.144531 26.058594 43.980469 26.074219 43.820312 26.09375 C 43.609375 26.117188 43.398438 26.152344 43.246094 26.1875 C 43.070312 26.226562 42.964844 26.265625 42.878906 26.296875 C 42.828125 26.316406 42.777344 26.332031 42.726562 26.347656 C 42.652344 26.367188 42.578125 26.375 42.503906 26.375 C 42.429688 26.375 42.351562 26.367188 42.285156 26.347656 C 42.242188 26.335938 42.203125 26.324219 42.160156 26.308594 C 42.074219 26.277344 41.96875 26.238281 41.769531 26.210938 C 41.664062 26.191406 41.527344 26.175781 41.382812 26.160156 C 41.125 26.132812 40.839844 26.097656 40.628906 26.046875 C 40.3125 25.96875 40.175781 25.851562 39.855469 25.558594 L 39.796875 25.503906 C 39.601562 25.332031 39.332031 25.09375 39.070312 24.867188 C 38.875 24.695312 38.683594 24.535156 38.539062 24.417969 C 38.640625 24.539062 38.777344 24.683594 38.933594 24.847656 C 39.152344 25.066406 39.417969 25.324219 39.644531 25.542969 C 39.769531 25.664062 39.882812 25.777344 39.972656 25.863281 C 40.101562 25.992188 40.179688 26.074219 40.222656 26.15625 C 40.273438 26.25 40.285156 26.328125 40.265625 26.4375 C 40.261719 26.484375 40.25 26.535156 40.238281 26.589844 C 40.199219 26.75 40.160156 26.945312 40.207031 27.078125 C 40.238281 27.160156 40.300781 27.226562 40.390625 27.269531 C 40.488281 27.320312 40.617188 27.347656 40.761719 27.339844 C 40.894531 27.335938 41.046875 27.304688 41.191406 27.257812 C 41.371094 27.199219 41.539062 27.125 41.679688 27.046875 C 41.84375 26.953125 41.96875 26.859375 42.070312 26.78125 C 42.136719 26.730469 42.191406 26.691406 42.242188 26.65625 C 42.320312 26.609375 42.394531 26.582031 42.457031 26.574219 C 42.539062 26.570312 42.601562 26.597656 42.648438 26.65625 L 42.660156 26.675781 C 42.667969 26.652344 42.679688 26.628906 42.691406 26.609375 C 42.746094 26.523438 42.828125 26.441406 42.957031 26.367188 C 43.078125 26.300781 43.238281 26.238281 43.410156 26.195312 C 43.59375 26.148438 43.792969 26.113281 43.972656 26.101562 C 44.070312 26.097656 44.164062 26.09375 44.25 26.097656 L 44.289062 26.101562 L 44.28125 26.054688 Z M 42.839844 27.261719 C 42.867188 27.285156 42.914062 27.304688 42.972656 27.3125 C 43.078125 27.324219 43.226562 27.308594 43.390625 27.257812 C 43.546875 27.214844 43.714844 27.140625 43.875 27.046875 C 44.042969 26.945312 44.203125 26.816406 44.316406 26.691406 C 44.425781 26.574219 44.492188 26.472656 44.5 26.398438 L 44.5 26.386719 C 44.5 26.367188 44.484375 26.351562 44.460938 26.335938 C 44.449219 26.378906 44.433594 26.421875 44.414062 26.46875 C 44.351562 26.597656 44.246094 26.71875 44.101562 26.839844 C 43.960938 26.957031 43.78125 27.070312 43.601562 27.152344 C 43.429688 27.238281 43.257812 27.292969 43.117188 27.308594 C 43.003906 27.316406 42.914062 27.296875 42.84375 27.257812 Z M 44.289062 26.289062 L 44.242188 26.289062 C 44.164062 26.28125 44.078125 26.28125 43.988281 26.289062 C 43.816406 26.304688 43.628906 26.332031 43.457031 26.378906 C 43.296875 26.417969 43.15625 26.472656 43.046875 26.535156 C 42.953125 26.585938 42.890625 26.648438 42.851562 26.710938 C 42.8125 26.777344 42.800781 26.84375 42.808594 26.914062 C 42.816406 26.984375 42.84375 27.050781 42.898438 27.089844 C 42.941406 27.121094 43.007812 27.140625 43.101562 27.132812 C 43.21875 27.121094 43.371094 27.070312 43.523438 26.996094 C 43.691406 26.914062 43.859375 26.808594 43.988281 26.703125 C 44.113281 26.601562 44.203125 26.5 44.25 26.394531 C 44.265625 26.359375 44.277344 26.328125 44.289062 26.292969 Z M 43.550781 25.386719 C 43.515625 25.410156 43.480469 25.433594 43.441406 25.453125 C 43.480469 25.441406 43.519531 25.414062 43.550781 25.386719 Z M 43.113281 25.519531 C 43.101562 25.5 43.09375 25.488281 43.105469 25.519531 C 43.105469 25.527344 43.109375 25.523438 43.113281 25.519531 Z M 43.925781 23.5625 C 43.960938 23.714844 43.976562 23.914062 43.980469 24.125 C 43.992188 24.078125 44.003906 24.039062 44.015625 24 C 44.039062 23.925781 44.058594 23.859375 44.066406 23.796875 C 44.085938 23.691406 44.074219 23.582031 44.046875 23.484375 C 44.019531 23.386719 43.972656 23.300781 43.910156 23.242188 C 43.867188 23.203125 43.820312 23.175781 43.773438 23.15625 L 43.757812 23.148438 C 43.8125 23.238281 43.882812 23.367188 43.925781 23.5625 Z M 43.925781 23.5625 " fill-opacity="1" fill-rule="nonzero"/><g clip-path="url(#0a045b2f63)"><path fill="#ffffff" d="M 40.796875 24.996094 L 40.875 25.015625 C 41.105469 25.070312 41.324219 25.171875 41.519531 25.257812 C 41.632812 25.308594 41.738281 25.355469 41.824219 25.386719 C 41.875 25.402344 41.921875 25.414062 41.964844 25.421875 C 42.023438 25.429688 42.0625 25.429688 42.09375 25.421875 L 42.109375 25.417969 C 42.109375 25.402344 42.085938 25.371094 42.046875 25.332031 C 41.992188 25.28125 41.910156 25.230469 41.796875 25.179688 C 41.660156 25.117188 41.484375 25.066406 41.292969 25.03125 C 41.132812 25.003906 40.964844 24.988281 40.800781 25 Z M 40.828125 25.1875 C 40.484375 25.101562 40.113281 25.121094 39.746094 25.144531 L 39.746094 25.121094 C 39.695312 25.117188 39.648438 25.113281 39.597656 25.105469 C 39.398438 25.074219 39.203125 24.988281 39.011719 24.910156 C 38.824219 24.828125 38.644531 24.753906 38.5 24.746094 C 38.378906 24.742188 38.277344 24.789062 38.195312 24.894531 C 38.101562 25.015625 38.027344 25.207031 37.976562 25.476562 C 37.917969 25.78125 37.882812 26.179688 37.910156 26.59375 C 37.929688 26.933594 37.984375 27.285156 38.097656 27.605469 C 38.222656 27.953125 38.414062 28.269531 38.636719 28.542969 C 38.859375 28.816406 39.113281 29.054688 39.355469 29.25 C 39.605469 29.453125 39.847656 29.613281 40.074219 29.722656 C 40.285156 29.828125 40.488281 29.886719 40.671875 29.902344 C 40.839844 29.914062 40.996094 29.882812 41.128906 29.835938 C 41.289062 29.777344 41.410156 29.691406 41.476562 29.609375 C 41.546875 29.523438 41.546875 29.433594 41.546875 29.34375 C 41.546875 29.308594 41.546875 29.273438 41.550781 29.238281 C 41.492188 29.242188 41.425781 29.242188 41.355469 29.234375 C 41.242188 29.214844 41.113281 29.175781 40.976562 29.09375 C 40.933594 29.070312 40.890625 29.039062 40.847656 29.007812 C 40.726562 28.921875 40.609375 28.8125 40.527344 28.722656 C 40.421875 28.605469 40.367188 28.492188 40.40625 28.425781 L 40.414062 28.414062 C 40.441406 28.375 40.488281 28.363281 40.554688 28.375 C 40.554688 28.355469 40.566406 28.335938 40.582031 28.316406 C 40.621094 28.273438 40.710938 28.277344 40.828125 28.289062 C 40.929688 28.300781 41.054688 28.308594 41.15625 28.304688 C 41.28125 28.300781 41.390625 28.277344 41.476562 28.261719 C 41.550781 28.246094 41.617188 28.230469 41.671875 28.234375 C 41.753906 28.234375 41.804688 28.261719 41.855469 28.285156 C 41.882812 28.300781 41.910156 28.316406 41.933594 28.316406 C 41.960938 28.320312 41.996094 28.3125 42.03125 28.304688 C 42.058594 28.300781 42.082031 28.296875 42.105469 28.292969 C 42.125 28.292969 42.144531 28.292969 42.160156 28.296875 L 42.191406 28.234375 C 42.230469 28.160156 42.277344 28.074219 42.339844 27.980469 C 42.402344 27.878906 42.488281 27.773438 42.578125 27.664062 C 42.695312 27.511719 42.824219 27.351562 42.90625 27.203125 C 43.042969 26.964844 43.078125 26.742188 43.109375 26.527344 L 43.117188 26.496094 C 43.132812 26.375 43.15625 26.253906 43.183594 26.136719 C 43.210938 26.019531 43.246094 25.894531 43.300781 25.761719 C 43.355469 25.632812 43.421875 25.5 43.492188 25.375 C 43.5625 25.246094 43.636719 25.125 43.695312 25.027344 C 43.753906 24.925781 43.804688 24.847656 43.863281 24.757812 C 43.917969 24.671875 43.976562 24.589844 44.046875 24.488281 L 44.066406 24.460938 C 44.207031 24.269531 44.398438 24.007812 44.464844 23.621094 C 44.5 23.433594 44.503906 23.210938 44.492188 22.988281 C 44.476562 22.734375 44.429688 22.480469 44.378906 22.277344 C 44.335938 22.113281 44.285156 21.984375 44.238281 21.898438 L 44.234375 21.957031 C 44.21875 22.144531 44.191406 22.421875 44.027344 22.617188 C 43.960938 22.695312 43.875 22.761719 43.785156 22.808594 C 43.671875 22.871094 43.546875 22.910156 43.449219 22.929688 C 43.332031 22.957031 43.230469 22.949219 43.195312 22.917969 C 43.1875 22.910156 43.179688 22.902344 43.171875 22.890625 C 43.128906 22.804688 43.195312 22.761719 43.300781 22.683594 C 43.429688 22.59375 43.660156 22.433594 43.804688 22.171875 C 43.914062 21.976562 43.980469 21.714844 43.992188 21.433594 C 44.003906 21.15625 43.964844 20.859375 43.871094 20.578125 C 43.773438 20.292969 43.617188 20.019531 43.421875 19.789062 C 43.222656 19.550781 42.980469 19.351562 42.714844 19.203125 C 42.40625 19.035156 42.070312 18.9375 41.847656 18.914062 C 41.792969 18.910156 41.746094 18.910156 41.710938 18.914062 C 41.757812 18.96875 41.863281 19.054688 42 19.164062 C 42.28125 19.390625 42.664062 19.703125 42.890625 20.082031 C 43.222656 20.652344 43.167969 21.335938 43.128906 21.859375 L 43.117188 21.992188 C 43.109375 22.09375 43.105469 22.183594 43.097656 22.261719 C 43.078125 22.65625 43.066406 22.875 42.867188 22.910156 C 42.753906 22.929688 42.589844 22.859375 42.425781 22.710938 C 42.296875 22.59375 42.164062 22.421875 42.054688 22.203125 C 41.890625 21.875 41.785156 21.4375 41.679688 21 C 41.632812 20.820312 41.59375 20.640625 41.546875 20.46875 C 41.464844 20.175781 41.371094 19.902344 41.265625 19.671875 C 41.160156 19.449219 41.039062 19.261719 40.902344 19.140625 C 40.765625 19.019531 40.613281 18.957031 40.4375 18.929688 C 40.261719 18.898438 40.0625 18.910156 39.84375 18.933594 L 39.804688 18.9375 C 39.808594 19.015625 39.820312 19.09375 39.832031 19.171875 C 39.871094 19.484375 39.945312 19.828125 40.039062 20.164062 C 40.136719 20.503906 40.253906 20.835938 40.386719 21.136719 C 40.527344 21.445312 40.679688 21.71875 40.847656 21.9375 C 41.003906 22.148438 41.175781 22.316406 41.363281 22.433594 C 41.570312 22.566406 41.800781 22.632812 41.949219 22.679688 C 42.0625 22.714844 42.136719 22.738281 42.160156 22.796875 C 42.183594 22.859375 42.160156 22.902344 42.082031 22.933594 C 41.992188 22.96875 41.679688 23.007812 41.300781 23.003906 C 41.042969 23 40.753906 22.980469 40.476562 22.921875 C 40.128906 22.851562 39.800781 22.722656 39.519531 22.542969 C 39.242188 22.371094 39.015625 22.152344 38.84375 21.886719 C 38.6875 21.636719 38.582031 21.347656 38.523438 21.058594 C 38.453125 20.722656 38.445312 20.382812 38.476562 20.09375 C 38.5 19.867188 38.550781 19.671875 38.589844 19.53125 C 38.472656 19.648438 38.304688 19.839844 38.148438 20.085938 C 38.007812 20.308594 37.882812 20.570312 37.808594 20.84375 C 37.71875 21.183594 37.710938 21.550781 37.769531 21.898438 C 37.832031 22.265625 37.972656 22.617188 38.160156 22.898438 C 38.347656 23.175781 38.585938 23.386719 38.847656 23.527344 C 39.046875 23.636719 39.257812 23.699219 39.472656 23.710938 C 39.824219 23.609375 40.152344 23.472656 40.375 23.378906 C 40.519531 23.316406 40.625 23.273438 40.675781 23.265625 C 40.710938 23.261719 40.742188 23.265625 40.765625 23.285156 C 40.824219 23.332031 40.816406 23.394531 40.753906 23.457031 C 40.734375 23.476562 40.699219 23.503906 40.65625 23.535156 C 40.472656 23.660156 40.082031 23.855469 39.683594 23.886719 C 39.621094 23.894531 39.558594 23.894531 39.496094 23.890625 C 39.292969 23.945312 39.078125 23.992188 38.875 24.011719 C 38.453125 24.054688 38.046875 23.992188 37.707031 23.835938 L 37.632812 23.800781 C 37.636719 23.921875 37.601562 24.050781 37.566406 24.191406 C 37.539062 24.289062 37.511719 24.394531 37.496094 24.5 C 37.476562 24.671875 37.492188 24.863281 37.503906 25.027344 C 37.519531 25.171875 37.53125 25.304688 37.519531 25.414062 C 37.515625 25.441406 37.507812 25.464844 37.503906 25.492188 C 37.476562 25.582031 37.429688 25.648438 37.355469 25.6875 C 37.292969 25.722656 37.21875 25.738281 37.128906 25.730469 C 37.144531 25.777344 37.15625 25.816406 37.164062 25.863281 C 37.21875 26.082031 37.230469 26.28125 37.199219 26.476562 C 37.167969 26.671875 37.105469 26.863281 37.019531 27.066406 C 36.929688 27.273438 36.816406 27.496094 36.699219 27.695312 C 36.585938 27.882812 36.472656 28.046875 36.378906 28.144531 C 36.335938 28.195312 36.296875 28.222656 36.257812 28.25 C 36.171875 28.320312 36.136719 28.351562 36.203125 28.671875 C 36.253906 28.925781 36.363281 29.332031 36.492188 29.746094 C 36.605469 30.113281 36.734375 30.488281 36.851562 30.765625 C 36.976562 31.066406 37.085938 31.253906 37.164062 31.378906 C 37.242188 31.507812 37.289062 31.585938 37.289062 31.683594 C 37.289062 31.726562 37.277344 31.769531 37.265625 31.8125 C 37.230469 31.9375 37.175781 32.128906 37.382812 32.621094 C 37.609375 33.152344 38.136719 34.023438 38.714844 34.980469 C 38.863281 35.226562 39.015625 35.472656 39.167969 35.734375 C 39.542969 36.359375 39.914062 36.996094 40.230469 37.574219 C 40.332031 37.761719 40.425781 37.941406 40.511719 38.113281 C 40.480469 37.699219 40.460938 37.246094 40.457031 36.8125 C 40.453125 36.246094 40.488281 35.710938 40.550781 35.1875 C 40.613281 34.664062 40.703125 34.152344 40.828125 33.632812 C 40.96875 33.03125 41.148438 32.417969 41.304688 31.894531 C 41.414062 31.523438 41.511719 31.195312 41.570312 30.9375 C 41.621094 30.746094 41.644531 30.589844 41.667969 30.476562 C 41.6875 30.359375 41.699219 30.285156 41.726562 30.230469 C 41.777344 30.125 41.839844 30.109375 41.957031 30.167969 C 42.015625 30.191406 42.089844 30.246094 42.183594 30.308594 C 42.375 30.441406 42.640625 30.625 42.917969 30.714844 C 43.066406 30.757812 43.214844 30.785156 43.347656 30.785156 C 43.457031 30.789062 43.558594 30.777344 43.628906 30.757812 C 43.675781 30.742188 43.710938 30.726562 43.714844 30.714844 C 43.710938 30.675781 43.601562 30.585938 43.460938 30.46875 C 43.304688 30.335938 43.109375 30.175781 42.957031 29.972656 C 42.816406 29.792969 42.707031 29.585938 42.628906 29.378906 C 42.519531 29.105469 42.457031 28.835938 42.425781 28.640625 C 42.394531 28.453125 42.398438 28.324219 42.449219 28.234375 C 42.507812 28.136719 42.613281 28.101562 42.789062 28.109375 C 42.941406 28.117188 43.167969 28.171875 43.4375 28.269531 C 43.660156 28.351562 43.910156 28.464844 44.179688 28.621094 C 44.476562 28.789062 44.792969 29.007812 45.113281 29.300781 C 45.433594 29.589844 45.75 29.949219 46.050781 30.402344 C 46.3125 30.796875 46.554688 31.253906 46.777344 31.726562 C 47.0625 32.335938 47.308594 32.964844 47.492188 33.484375 C 47.585938 33.753906 47.664062 33.976562 47.734375 34.183594 C 47.90625 34.699219 48.03125 35.058594 48.203125 35.316406 C 48.300781 35.464844 48.417969 35.578125 48.511719 35.671875 C 48.6875 35.84375 48.808594 35.960938 48.683594 36.109375 C 48.621094 36.1875 48.480469 36.242188 48.292969 36.320312 C 48.058594 36.414062 47.746094 36.539062 47.464844 36.753906 C 47.164062 36.980469 46.894531 37.3125 46.761719 37.53125 L 46.742188 37.5625 C 46.84375 37.488281 46.996094 37.363281 47.167969 37.226562 C 47.394531 37.042969 47.652344 36.832031 47.878906 36.679688 C 48.148438 36.496094 48.378906 36.386719 48.574219 36.351562 C 48.789062 36.3125 48.960938 36.359375 49.097656 36.488281 L 49.101562 36.492188 C 49.234375 36.617188 49.324219 36.824219 49.335938 37.050781 C 49.339844 37.273438 49.265625 37.527344 49.058594 37.75 L 49.054688 37.753906 C 48.835938 37.984375 48.476562 38.179688 48.128906 38.371094 C 47.839844 38.527344 47.558594 38.683594 47.375 38.84375 C 47.214844 38.984375 47.132812 39.136719 47.117188 39.246094 C 47.109375 39.28125 47.113281 39.308594 47.121094 39.328125 C 47.128906 39.339844 47.132812 39.347656 47.144531 39.351562 C 47.171875 39.363281 47.21875 39.359375 47.277344 39.332031 C 47.511719 39.234375 47.902344 38.863281 48.277344 38.5 C 48.449219 38.335938 48.617188 38.175781 48.773438 38.035156 C 49.03125 37.8125 49.242188 37.660156 49.421875 37.585938 C 49.625 37.503906 49.789062 37.511719 49.929688 37.613281 C 50.078125 37.722656 50.1875 37.929688 50.285156 38.125 C 50.355469 38.253906 50.417969 38.382812 50.484375 38.457031 C 50.511719 38.484375 50.542969 38.507812 50.570312 38.523438 C 50.632812 38.523438 50.671875 38.535156 50.695312 38.542969 C 50.828125 38.597656 50.816406 38.664062 50.707031 38.714844 C 50.6875 38.726562 50.65625 38.726562 50.625 38.726562 C 50.597656 38.722656 50.566406 38.714844 50.527344 38.699219 C 50.363281 38.691406 50.03125 38.714844 49.6875 38.792969 C 49.449219 38.84375 49.210938 38.921875 49.019531 39.03125 C 48.785156 39.167969 48.621094 39.351562 48.5 39.539062 C 48.378906 39.734375 48.300781 39.929688 48.25 40.082031 C 48.214844 40.179688 48.191406 40.257812 48.171875 40.324219 C 48.121094 40.488281 48.09375 40.570312 48.019531 40.632812 C 47.964844 40.675781 47.890625 40.699219 47.78125 40.691406 C 47.6875 40.6875 47.566406 40.667969 47.402344 40.628906 C 47.277344 40.597656 47.113281 40.554688 46.933594 40.507812 C 46.6875 40.441406 46.410156 40.371094 46.148438 40.3125 C 45.933594 40.265625 45.738281 40.230469 45.574219 40.207031 C 45.410156 40.1875 45.277344 40.179688 45.199219 40.183594 C 45.148438 40.1875 45.121094 40.203125 45.082031 40.226562 C 45.011719 40.265625 44.90625 40.324219 44.636719 40.402344 C 44.378906 40.46875 43.96875 40.554688 43.460938 40.632812 C 43.042969 40.699219 42.566406 40.757812 42.050781 40.800781 C 41.488281 40.84375 40.882812 40.871094 40.265625 40.882812 C 39.65625 40.894531 39.03125 40.898438 38.433594 40.894531 C 37.832031 40.890625 37.253906 40.890625 36.710938 40.878906 C 36.167969 40.867188 35.660156 40.851562 35.210938 40.824219 C 34.394531 40.777344 33.742188 40.691406 33.121094 40.613281 L 33.046875 40.605469 C 32.980469 40.625 32.90625 40.648438 32.828125 40.664062 C 32.582031 40.71875 32.257812 40.757812 31.867188 40.800781 C 31.480469 40.84375 31.027344 40.890625 30.644531 40.917969 C 30.257812 40.945312 29.933594 40.957031 29.816406 40.914062 C 29.78125 40.902344 29.753906 40.878906 29.738281 40.855469 C 29.699219 40.796875 29.714844 40.738281 29.773438 40.683594 C 29.804688 40.660156 29.847656 40.632812 29.90625 40.601562 C 30.113281 40.503906 30.511719 40.390625 30.914062 40.335938 C 31.246094 40.289062 31.578125 40.289062 31.917969 40.308594 C 32.253906 40.324219 32.589844 40.367188 32.933594 40.410156 L 33.023438 40.421875 C 33.125 40.386719 33.199219 40.339844 33.242188 40.289062 C 33.335938 40.183594 33.3125 40.003906 33.285156 39.789062 C 33.269531 39.667969 33.25 39.535156 33.25 39.394531 C 33.25 39.230469 33.277344 39.070312 33.300781 38.917969 C 33.335938 38.703125 33.363281 38.511719 33.316406 38.433594 C 33.296875 38.402344 33.261719 38.382812 33.21875 38.378906 C 33.183594 38.371094 33.144531 38.371094 33.105469 38.378906 C 33.066406 38.386719 33.035156 38.402344 33.003906 38.417969 C 32.976562 38.4375 32.957031 38.457031 32.953125 38.480469 C 32.945312 38.527344 32.992188 38.613281 33.035156 38.679688 C 33.074219 38.753906 33.113281 38.816406 33.101562 38.871094 C 33.089844 38.949219 33.039062 38.988281 32.925781 38.972656 C 32.835938 38.960938 32.679688 38.910156 32.476562 38.835938 C 32.140625 38.71875 31.679688 38.5625 31.238281 38.488281 C 30.9375 38.441406 30.644531 38.429688 30.386719 38.421875 C 30.027344 38.410156 29.734375 38.402344 29.578125 38.285156 C 29.519531 38.238281 29.476562 38.179688 29.457031 38.113281 C 29.4375 38.050781 29.4375 37.980469 29.457031 37.910156 C 29.476562 37.84375 29.507812 37.777344 29.554688 37.710938 C 29.664062 37.554688 29.867188 37.410156 30.144531 37.328125 C 30.433594 37.246094 30.800781 37.226562 31.179688 37.25 C 31.601562 37.28125 32.03125 37.363281 32.355469 37.476562 C 32.492188 37.523438 32.609375 37.574219 32.710938 37.621094 C 32.804688 37.660156 32.886719 37.699219 32.957031 37.71875 C 33.085938 37.753906 33.167969 37.699219 33.242188 37.414062 C 33.335938 37.074219 33.40625 36.460938 33.425781 35.777344 C 33.441406 35.199219 33.414062 34.570312 33.332031 34.023438 C 33.238281 33.425781 33.078125 32.921875 32.882812 32.5 C 32.683594 32.078125 32.453125 31.738281 32.226562 31.464844 C 32.105469 31.316406 31.980469 31.1875 31.871094 31.074219 C 31.546875 30.734375 31.3125 30.492188 31.417969 30.144531 C 31.476562 29.945312 31.660156 29.722656 31.90625 29.496094 C 32.195312 29.234375 32.582031 28.964844 32.960938 28.726562 C 33.300781 28.515625 33.640625 28.324219 33.972656 28.171875 C 34.304688 28.011719 34.628906 27.886719 34.9375 27.789062 C 35.328125 27.667969 35.699219 27.605469 35.890625 27.589844 C 35.941406 27.589844 35.980469 27.589844 36.007812 27.59375 C 36.09375 27.609375 36.132812 27.652344 36.113281 27.726562 C 36.109375 27.75 36.09375 27.773438 36.070312 27.792969 C 36.03125 27.824219 35.953125 27.859375 35.84375 27.90625 C 35.570312 28.027344 35.09375 28.246094 34.835938 28.582031 C 34.660156 28.808594 34.582031 29.09375 34.5625 29.414062 C 34.539062 29.742188 34.582031 30.105469 34.652344 30.476562 C 34.726562 30.875 34.835938 31.28125 34.960938 31.589844 C 35.0625 31.839844 35.164062 32.023438 35.265625 32.070312 C 35.363281 32.121094 35.5 31.972656 35.652344 31.8125 C 35.769531 31.6875 35.890625 31.554688 36.03125 31.476562 C 36.070312 31.453125 36.117188 31.433594 36.160156 31.417969 C 36.308594 31.367188 36.464844 31.375 36.605469 31.433594 C 36.746094 31.492188 36.867188 31.59375 36.953125 31.742188 C 36.976562 31.789062 37 31.839844 37.015625 31.894531 C 37.03125 31.941406 37.042969 31.988281 37.050781 32.039062 C 37.050781 31.917969 37.074219 31.832031 37.09375 31.765625 C 37.101562 31.734375 37.113281 31.703125 37.113281 31.683594 C 37.113281 31.636719 37.078125 31.574219 37.015625 31.472656 C 36.9375 31.339844 36.820312 31.152344 36.6875 30.835938 C 36.574219 30.550781 36.441406 30.171875 36.324219 29.796875 C 36.195312 29.378906 36.082031 28.96875 36.03125 28.707031 C 35.945312 28.273438 36.007812 28.222656 36.152344 28.105469 C 36.183594 28.082031 36.21875 28.054688 36.253906 28.015625 C 36.339844 27.925781 36.449219 27.773438 36.550781 27.59375 C 36.664062 27.40625 36.773438 27.191406 36.859375 26.988281 C 36.941406 26.796875 37.003906 26.621094 37.027344 26.445312 C 37.050781 26.269531 37.042969 26.09375 36.996094 25.898438 C 36.976562 25.828125 36.957031 25.753906 36.929688 25.679688 C 36.804688 25.636719 36.660156 25.558594 36.519531 25.425781 C 36.359375 25.273438 36.207031 25.046875 36.09375 24.707031 C 35.96875 24.347656 35.894531 23.855469 35.910156 23.304688 C 35.925781 22.851562 36.007812 22.355469 36.1875 21.867188 C 36.402344 21.289062 36.75 20.714844 37.050781 20.28125 C 37.210938 19.980469 37.390625 19.730469 37.503906 19.59375 C 37.542969 19.550781 37.574219 19.515625 37.59375 19.492188 L 37.617188 19.472656 C 37.628906 19.460938 37.636719 19.453125 37.648438 19.449219 C 37.769531 19.351562 37.820312 19.390625 37.769531 19.570312 C 37.769531 19.582031 37.757812 19.609375 37.734375 19.636719 C 37.707031 19.675781 37.65625 19.746094 37.59375 19.835938 C 37.492188 19.96875 37.355469 20.15625 37.203125 20.378906 C 37.140625 20.496094 37.078125 20.628906 37.027344 20.765625 C 36.882812 21.148438 36.804688 21.578125 36.8125 21.988281 C 36.816406 22.367188 36.898438 22.730469 37.0625 23.019531 C 37.140625 23.160156 37.238281 23.28125 37.355469 23.386719 C 37.425781 23.425781 37.484375 23.472656 37.53125 23.527344 C 37.609375 23.582031 37.695312 23.628906 37.785156 23.667969 C 38.101562 23.8125 38.476562 23.871094 38.863281 23.832031 C 38.929688 23.824219 38.992188 23.816406 39.054688 23.804688 C 38.957031 23.769531 38.863281 23.726562 38.769531 23.679688 C 38.484375 23.527344 38.222656 23.292969 38.023438 22.996094 C 37.816406 22.6875 37.667969 22.316406 37.601562 21.925781 C 37.535156 21.550781 37.542969 21.15625 37.640625 20.792969 C 37.71875 20.496094 37.855469 20.21875 38.003906 19.984375 C 38.226562 19.628906 38.484375 19.363281 38.59375 19.285156 C 38.679688 19.222656 38.742188 19.222656 38.789062 19.28125 C 38.828125 19.335938 38.800781 19.429688 38.765625 19.570312 C 38.730469 19.703125 38.683594 19.890625 38.660156 20.109375 C 38.628906 20.378906 38.636719 20.703125 38.703125 21.015625 C 38.757812 21.285156 38.855469 21.550781 39.003906 21.78125 C 39.15625 22.023438 39.367188 22.222656 39.621094 22.386719 C 39.886719 22.554688 40.195312 22.671875 40.523438 22.738281 C 40.789062 22.792969 41.066406 22.8125 41.3125 22.816406 C 41.484375 22.820312 41.640625 22.8125 41.765625 22.800781 C 41.621094 22.753906 41.449219 22.683594 41.28125 22.582031 C 41.078125 22.453125 40.890625 22.269531 40.71875 22.042969 C 40.539062 21.808594 40.378906 21.523438 40.238281 21.203125 C 40.097656 20.894531 39.976562 20.554688 39.878906 20.210938 C 39.78125 19.863281 39.707031 19.511719 39.664062 19.191406 C 39.652344 19.109375 39.644531 19.027344 39.636719 18.953125 L 39.628906 18.953125 C 39.230469 19.003906 38.804688 19.054688 38.4375 18.902344 C 38.214844 18.808594 38.019531 18.640625 37.882812 18.441406 C 37.746094 18.242188 37.664062 18.003906 37.667969 17.78125 C 37.675781 17.570312 37.757812 17.367188 37.886719 17.1875 C 38.03125 16.980469 38.234375 16.800781 38.449219 16.65625 C 38.695312 16.492188 38.957031 16.371094 39.117188 16.324219 C 39.167969 16.308594 39.210938 16.300781 39.242188 16.300781 C 39.3125 16.296875 39.359375 16.320312 39.378906 16.375 C 39.382812 16.394531 39.386719 16.414062 39.382812 16.4375 C 39.367188 16.492188 39.304688 16.558594 39.214844 16.648438 C 39.0625 16.800781 38.828125 17.039062 38.726562 17.320312 C 38.652344 17.527344 38.652344 17.761719 38.703125 17.980469 C 38.761719 18.195312 38.875 18.394531 39.03125 18.523438 C 39.171875 18.636719 39.351562 18.699219 39.546875 18.726562 L 39.621094 18.734375 L 39.617188 18.617188 C 39.605469 18.605469 39.589844 18.59375 39.578125 18.582031 C 39.496094 18.5 39.417969 18.382812 39.371094 18.230469 C 39.3125 18.039062 39.289062 17.792969 39.292969 17.5625 C 39.292969 17.265625 39.332031 16.992188 39.386719 16.890625 C 39.40625 16.855469 39.425781 16.832031 39.453125 16.820312 C 39.507812 16.789062 39.558594 16.800781 39.605469 16.851562 C 39.625 16.875 39.644531 16.910156 39.664062 16.957031 C 39.714844 17.085938 39.761719 17.328125 39.78125 17.589844 C 39.792969 17.757812 39.792969 17.941406 39.792969 18.132812 C 39.792969 18.257812 39.792969 18.386719 39.796875 18.515625 C 39.804688 18.519531 39.816406 18.527344 39.824219 18.527344 C 39.863281 18.539062 39.902344 18.539062 39.941406 18.527344 C 39.980469 18.515625 40.019531 18.492188 40.054688 18.453125 C 40.152344 18.347656 40.230469 18.152344 40.261719 17.929688 C 40.292969 17.71875 40.28125 17.488281 40.210938 17.28125 C 40.136719 17.058594 39.988281 16.855469 39.875 16.699219 C 39.746094 16.523438 39.648438 16.394531 39.722656 16.285156 C 39.722656 16.28125 39.730469 16.273438 39.734375 16.269531 C 39.796875 16.203125 39.949219 16.191406 40.128906 16.234375 C 40.289062 16.273438 40.488281 16.351562 40.667969 16.472656 C 40.746094 16.523438 40.820312 16.582031 40.890625 16.648438 C 41.089844 16.84375 41.242188 17.101562 41.332031 17.367188 C 41.425781 17.640625 41.449219 17.921875 41.394531 18.144531 C 41.335938 18.371094 41.191406 18.53125 41.003906 18.648438 C 40.902344 18.710938 40.78125 18.757812 40.65625 18.796875 C 40.789062 18.839844 40.917969 18.910156 41.03125 19.007812 C 41.1875 19.148438 41.320312 19.351562 41.4375 19.597656 C 41.550781 19.839844 41.644531 20.121094 41.730469 20.421875 C 41.777344 20.597656 41.824219 20.78125 41.867188 20.960938 C 41.972656 21.386719 42.074219 21.816406 42.230469 22.128906 C 42.328125 22.324219 42.445312 22.476562 42.5625 22.582031 C 42.683594 22.695312 42.792969 22.75 42.855469 22.738281 C 42.910156 22.726562 42.917969 22.558594 42.9375 22.257812 C 42.941406 22.171875 42.945312 22.082031 42.957031 21.984375 L 42.96875 21.847656 C 43.003906 21.351562 43.058594 20.695312 42.753906 20.175781 C 42.546875 19.828125 42.175781 19.53125 41.90625 19.3125 C 41.71875 19.160156 41.574219 19.042969 41.542969 18.953125 C 41.53125 18.921875 41.53125 18.890625 41.535156 18.863281 C 41.550781 18.800781 41.605469 18.761719 41.683594 18.746094 C 41.734375 18.734375 41.804688 18.734375 41.886719 18.738281 C 42.125 18.761719 42.492188 18.867188 42.820312 19.046875 C 43.105469 19.207031 43.363281 19.421875 43.578125 19.671875 C 43.789062 19.925781 43.957031 20.214844 44.0625 20.523438 C 44.164062 20.828125 44.207031 21.148438 44.191406 21.445312 C 44.1875 21.519531 44.183594 21.589844 44.171875 21.664062 C 44.210938 21.640625 44.253906 21.644531 44.296875 21.675781 C 44.324219 21.691406 44.347656 21.71875 44.375 21.757812 C 44.4375 21.847656 44.511719 22.015625 44.566406 22.234375 C 44.625 22.445312 44.667969 22.710938 44.683594 22.976562 C 44.699219 23.210938 44.691406 23.445312 44.65625 23.652344 C 44.582031 24.074219 44.378906 24.359375 44.226562 24.566406 L 44.207031 24.59375 C 44.132812 24.699219 44.074219 24.78125 44.023438 24.859375 C 43.976562 24.9375 43.925781 25.015625 43.863281 25.117188 C 43.796875 25.222656 43.726562 25.339844 43.660156 25.457031 C 43.59375 25.582031 43.53125 25.707031 43.480469 25.828125 C 43.433594 25.949219 43.394531 26.0625 43.371094 26.175781 C 43.34375 26.292969 43.320312 26.40625 43.308594 26.519531 L 43.300781 26.550781 C 43.265625 26.78125 43.230469 27.023438 43.078125 27.289062 C 42.984375 27.449219 42.855469 27.617188 42.730469 27.769531 C 42.644531 27.878906 42.5625 27.984375 42.503906 28.078125 C 42.445312 28.164062 42.402344 28.246094 42.363281 28.3125 C 42.304688 28.429688 42.257812 28.519531 42.175781 28.589844 L 42.125 28.664062 C 42.097656 28.710938 42.0625 28.761719 42.035156 28.808594 L 41.996094 28.882812 C 41.929688 29.003906 41.871094 29.105469 41.75 29.175781 L 41.742188 29.207031 C 41.734375 29.25 41.734375 29.296875 41.734375 29.34375 C 41.734375 29.464844 41.734375 29.585938 41.621094 29.722656 C 41.539062 29.828125 41.386719 29.933594 41.199219 30.003906 C 41.042969 30.0625 40.863281 30.09375 40.667969 30.082031 C 40.460938 30.066406 40.238281 30 40 29.882812 C 39.761719 29.765625 39.511719 29.601562 39.253906 29.394531 C 39 29.1875 38.738281 28.941406 38.503906 28.65625 C 38.273438 28.367188 38.070312 28.035156 37.9375 27.664062 C 37.820312 27.328125 37.757812 26.960938 37.738281 26.601562 C 37.714844 26.171875 37.746094 25.757812 37.808594 25.441406 C 37.871094 25.144531 37.953125 24.925781 38.0625 24.785156 C 38.183594 24.628906 38.335938 24.558594 38.519531 24.566406 C 38.691406 24.578125 38.886719 24.65625 39.089844 24.746094 C 39.269531 24.820312 39.457031 24.898438 39.632812 24.929688 C 39.867188 24.96875 40.097656 24.925781 40.335938 24.882812 C 40.476562 24.855469 40.621094 24.828125 40.765625 24.820312 C 40.953125 24.808594 41.148438 24.824219 41.328125 24.851562 C 41.53125 24.886719 41.722656 24.949219 41.871094 25.015625 C 42.003906 25.074219 42.105469 25.136719 42.171875 25.199219 C 42.261719 25.285156 42.300781 25.375 42.289062 25.449219 C 42.289062 25.457031 42.289062 25.464844 42.285156 25.476562 C 42.265625 25.53125 42.21875 25.574219 42.148438 25.59375 C 42.09375 25.609375 42.023438 25.613281 41.941406 25.601562 C 41.890625 25.59375 41.835938 25.582031 41.773438 25.558594 C 41.675781 25.527344 41.570312 25.480469 41.453125 25.425781 C 41.269531 25.339844 41.054688 25.246094 40.839844 25.191406 Z M 41.601562 29.035156 C 41.617188 29.003906 41.632812 28.96875 41.644531 28.941406 C 41.671875 28.882812 41.703125 28.847656 41.699219 28.839844 C 41.695312 28.835938 41.65625 28.839844 41.578125 28.835938 C 41.480469 28.828125 41.351562 28.8125 41.199219 28.773438 C 41.078125 28.738281 40.941406 28.6875 40.820312 28.644531 C 40.675781 28.589844 40.578125 28.511719 40.554688 28.519531 C 40.5625 28.527344 40.605469 28.542969 40.652344 28.597656 C 40.726562 28.683594 40.835938 28.777344 40.949219 28.859375 C 40.988281 28.886719 41.023438 28.914062 41.0625 28.933594 C 41.175781 29.003906 41.28125 29.039062 41.378906 29.050781 C 41.464844 29.0625 41.542969 29.058594 41.601562 29.039062 Z M 41.828125 28.714844 C 41.835938 28.722656 41.847656 28.738281 41.855469 28.75 L 41.875 28.710938 Z M 41.988281 28.492188 C 41.96875 28.492188 41.945312 28.492188 41.921875 28.492188 C 41.859375 28.488281 41.820312 28.464844 41.773438 28.441406 C 41.742188 28.425781 41.710938 28.40625 41.671875 28.40625 C 41.632812 28.40625 41.582031 28.414062 41.515625 28.429688 C 41.441406 28.445312 41.351562 28.464844 41.242188 28.476562 C 41.304688 28.492188 41.371094 28.503906 41.429688 28.515625 C 41.578125 28.542969 41.707031 28.550781 41.808594 28.539062 C 41.882812 28.53125 41.941406 28.519531 41.988281 28.492188 Z M 43.898438 22.5 C 43.988281 22.394531 44.023438 22.246094 44.042969 22.109375 C 44.023438 22.164062 43.996094 22.214844 43.96875 22.261719 C 43.859375 22.460938 43.710938 22.601562 43.585938 22.707031 C 43.625 22.691406 43.664062 22.671875 43.707031 22.648438 C 43.78125 22.609375 43.847656 22.558594 43.898438 22.5 Z M 38.5 18.742188 C 38.707031 18.828125 38.949219 18.835938 39.191406 18.820312 C 39.089844 18.78125 38.996094 18.726562 38.914062 18.660156 C 38.726562 18.507812 38.59375 18.277344 38.527344 18.023438 C 38.460938 17.777344 38.46875 17.503906 38.550781 17.261719 C 38.664062 16.941406 38.914062 16.6875 39.078125 16.527344 C 38.933594 16.582031 38.734375 16.679688 38.542969 16.808594 C 38.34375 16.941406 38.160156 17.109375 38.027344 17.296875 C 37.921875 17.449219 37.847656 17.617188 37.84375 17.792969 C 37.835938 17.976562 37.90625 18.175781 38.023438 18.347656 C 38.140625 18.519531 38.308594 18.664062 38.5 18.746094 Z M 39.796875 18.742188 C 39.96875 18.742188 40.144531 18.71875 40.3125 18.6875 C 40.539062 18.644531 40.746094 18.582031 40.90625 18.484375 C 41.058594 18.390625 41.171875 18.265625 41.21875 18.089844 C 41.265625 17.90625 41.242188 17.660156 41.15625 17.414062 C 41.078125 17.175781 40.941406 16.941406 40.761719 16.769531 C 40.703125 16.710938 40.632812 16.660156 40.5625 16.609375 C 40.398438 16.5 40.222656 16.429688 40.085938 16.398438 C 39.972656 16.371094 39.886719 16.363281 39.863281 16.378906 C 39.871094 16.390625 39.933594 16.472656 40.011719 16.582031 C 40.136719 16.75 40.289062 16.960938 40.375 17.214844 C 40.453125 17.445312 40.464844 17.707031 40.433594 17.941406 C 40.398438 18.203125 40.300781 18.433594 40.175781 18.566406 C 40.121094 18.625 40.054688 18.667969 39.988281 18.6875 C 39.925781 18.707031 39.859375 18.710938 39.796875 18.695312 Z M 39.542969 18.171875 C 39.558594 18.230469 39.582031 18.28125 39.609375 18.328125 L 39.609375 18.125 C 39.609375 17.933594 39.609375 17.761719 39.59375 17.59375 C 39.582031 17.382812 39.546875 17.1875 39.511719 17.066406 C 39.488281 17.179688 39.46875 17.359375 39.46875 17.550781 C 39.46875 17.765625 39.488281 17.996094 39.542969 18.167969 Z M 37.414062 23.667969 C 37.355469 23.628906 37.304688 23.585938 37.25 23.539062 C 37.214844 23.523438 37.179688 23.507812 37.144531 23.496094 C 37.027344 23.464844 36.90625 23.464844 36.816406 23.511719 L 36.800781 23.523438 C 36.710938 23.578125 36.660156 23.703125 36.636719 23.855469 C 36.609375 24.035156 36.625 24.257812 36.679688 24.480469 C 36.738281 24.714844 36.839844 24.957031 36.9375 25.195312 C 36.984375 25.308594 37.03125 25.421875 37.074219 25.53125 C 37.097656 25.539062 37.117188 25.542969 37.136719 25.542969 C 37.195312 25.554688 37.242188 25.546875 37.277344 25.53125 C 37.304688 25.515625 37.328125 25.480469 37.339844 25.441406 C 37.34375 25.425781 37.347656 25.40625 37.347656 25.390625 C 37.359375 25.300781 37.347656 25.179688 37.335938 25.042969 C 37.320312 24.867188 37.304688 24.667969 37.328125 24.480469 C 37.34375 24.363281 37.371094 24.25 37.398438 24.144531 C 37.445312 23.964844 37.492188 23.804688 37.429688 23.695312 L 37.410156 23.667969 Z M 37.027344 23.296875 C 36.984375 23.238281 36.941406 23.179688 36.90625 23.117188 C 36.726562 22.800781 36.636719 22.40625 36.632812 21.996094 C 36.625 21.71875 36.660156 21.433594 36.726562 21.15625 C 36.585938 21.410156 36.460938 21.671875 36.359375 21.9375 C 36.1875 22.40625 36.109375 22.878906 36.09375 23.316406 C 36.074219 23.84375 36.148438 24.3125 36.265625 24.65625 C 36.371094 24.960938 36.507812 25.164062 36.648438 25.300781 C 36.710938 25.363281 36.78125 25.410156 36.84375 25.445312 L 36.769531 25.265625 C 36.667969 25.023438 36.5625 24.773438 36.503906 24.527344 C 36.441406 24.277344 36.421875 24.035156 36.457031 23.832031 C 36.484375 23.625 36.570312 23.464844 36.703125 23.375 L 36.730469 23.359375 C 36.816406 23.3125 36.925781 23.292969 37.027344 23.300781 Z M 37.222656 32.695312 C 37.148438 32.523438 37.105469 32.378906 37.078125 32.265625 C 37.085938 32.335938 37.089844 32.417969 37.09375 32.496094 C 37.113281 32.855469 37.136719 33.320312 37.328125 33.90625 C 37.550781 34.59375 38.007812 35.457031 38.4375 36.261719 C 38.609375 36.589844 38.777344 36.910156 38.925781 37.203125 C 39.027344 37.40625 39.117188 37.597656 39.195312 37.773438 C 39.480469 38.210938 39.613281 38.679688 39.632812 38.789062 C 39.648438 38.863281 39.628906 38.90625 39.570312 38.917969 L 39.566406 38.917969 C 39.488281 38.933594 39.457031 38.847656 39.394531 38.691406 C 39.324219 38.523438 39.203125 38.226562 39.039062 37.855469 L 39.035156 37.851562 C 38.878906 37.621094 38.683594 37.398438 38.429688 37.253906 C 37.914062 36.960938 37.152344 36.988281 36.507812 37.011719 C 36.261719 37.019531 36.03125 37.027344 35.835938 37.019531 C 35.484375 37.003906 35.238281 36.929688 35.0625 36.882812 C 34.925781 36.84375 34.851562 36.820312 34.835938 36.851562 C 34.796875 36.945312 34.808594 37.175781 34.886719 37.429688 C 34.949219 37.628906 35.058594 37.839844 35.214844 38 C 35.386719 38.175781 35.617188 38.292969 35.882812 38.375 C 36.199219 38.472656 36.566406 38.507812 36.9375 38.515625 C 37.648438 38.523438 38.394531 38.398438 39.140625 38.277344 L 39.15625 38.277344 L 39.15625 38.367188 L 39.171875 38.457031 C 38.417969 38.578125 37.664062 38.703125 36.9375 38.695312 C 36.550781 38.691406 36.164062 38.652344 35.832031 38.546875 C 35.539062 38.457031 35.28125 38.324219 35.089844 38.125 C 34.910156 37.941406 34.785156 37.707031 34.714844 37.480469 C 34.625 37.183594 34.613281 36.898438 34.671875 36.773438 C 34.753906 36.605469 34.875 36.640625 35.113281 36.707031 C 35.277344 36.757812 35.511719 36.824219 35.84375 36.839844 C 36.03125 36.847656 36.257812 36.839844 36.5 36.832031 C 37.167969 36.808594 37.957031 36.78125 38.515625 37.097656 C 38.601562 37.144531 38.679688 37.203125 38.75 37.261719 C 38.609375 36.976562 38.441406 36.664062 38.273438 36.339844 C 37.84375 35.527344 37.378906 34.65625 37.152344 33.953125 C 36.953125 33.347656 36.925781 32.871094 36.910156 32.496094 C 36.898438 32.273438 36.890625 32.085938 36.839844 31.941406 C 36.824219 31.902344 36.808594 31.859375 36.789062 31.824219 C 36.726562 31.710938 36.636719 31.632812 36.535156 31.59375 C 36.433594 31.550781 36.320312 31.542969 36.210938 31.582031 C 36.175781 31.59375 36.144531 31.609375 36.113281 31.625 C 35.996094 31.691406 35.882812 31.8125 35.777344 31.929688 C 35.578125 32.140625 35.402344 32.332031 35.183594 32.226562 C 35.039062 32.160156 34.90625 31.941406 34.785156 31.648438 C 34.660156 31.328125 34.546875 30.914062 34.472656 30.5 C 34.398438 30.117188 34.355469 29.742188 34.375 29.394531 C 34.398438 29.042969 34.488281 28.722656 34.6875 28.464844 C 34.929688 28.148438 35.332031 27.9375 35.625 27.796875 C 35.441406 27.832031 35.21875 27.882812 34.980469 27.953125 C 34.679688 28.046875 34.363281 28.171875 34.039062 28.324219 C 33.714844 28.480469 33.378906 28.660156 33.042969 28.875 C 32.671875 29.105469 32.296875 29.367188 32.019531 29.625 C 31.792969 29.828125 31.628906 30.023438 31.578125 30.191406 C 31.503906 30.4375 31.707031 30.644531 31.992188 30.941406 C 32.105469 31.058594 32.230469 31.191406 32.355469 31.339844 C 32.589844 31.621094 32.832031 31.980469 33.035156 32.417969 C 33.238281 32.855469 33.40625 33.375 33.503906 33.988281 C 33.589844 34.542969 33.613281 35.183594 33.59375 35.769531 C 33.578125 36.46875 33.503906 37.101562 33.40625 37.453125 C 33.292969 37.878906 33.144531 37.953125 32.898438 37.886719 C 32.820312 37.867188 32.730469 37.828125 32.625 37.777344 C 32.527344 37.734375 32.414062 37.683594 32.28125 37.640625 C 31.972656 37.53125 31.558594 37.453125 31.15625 37.425781 C 30.796875 37.402344 30.449219 37.417969 30.183594 37.496094 C 29.945312 37.570312 29.777344 37.6875 29.6875 37.8125 C 29.652344 37.859375 29.628906 37.902344 29.617188 37.949219 C 29.609375 37.988281 29.605469 38.027344 29.613281 38.058594 C 29.625 38.085938 29.640625 38.113281 29.671875 38.136719 C 29.785156 38.21875 30.050781 38.226562 30.382812 38.238281 C 30.644531 38.246094 30.945312 38.253906 31.25 38.304688 C 31.707031 38.378906 32.179688 38.542969 32.523438 38.660156 C 32.671875 38.710938 32.792969 38.753906 32.875 38.773438 L 32.871094 38.761719 C 32.816406 38.664062 32.75 38.550781 32.769531 38.441406 C 32.78125 38.367188 32.832031 38.304688 32.898438 38.257812 C 32.949219 38.226562 33.003906 38.207031 33.0625 38.195312 C 33.125 38.183594 33.183594 38.183594 33.242188 38.191406 C 33.332031 38.207031 33.410156 38.25 33.460938 38.328125 C 33.546875 38.464844 33.515625 38.6875 33.476562 38.9375 C 33.453125 39.085938 33.429688 39.242188 33.429688 39.386719 C 33.429688 39.515625 33.441406 39.640625 33.457031 39.757812 C 33.492188 40.015625 33.515625 40.234375 33.375 40.402344 C 33.359375 40.417969 33.339844 40.4375 33.320312 40.453125 C 33.882812 40.527344 34.480469 40.59375 35.214844 40.640625 C 35.671875 40.667969 36.175781 40.683594 36.710938 40.695312 C 37.253906 40.707031 37.832031 40.710938 38.429688 40.710938 C 39.027344 40.714844 39.644531 40.710938 40.261719 40.699219 C 40.867188 40.6875 41.46875 40.660156 42.035156 40.617188 C 42.539062 40.574219 43.019531 40.515625 43.433594 40.453125 C 43.929688 40.375 44.335938 40.289062 44.589844 40.222656 C 44.84375 40.152344 44.933594 40.101562 44.996094 40.066406 C 45.058594 40.03125 45.09375 40.007812 45.183594 40.003906 C 45.273438 39.996094 45.417969 40.003906 45.597656 40.027344 C 45.769531 40.054688 45.972656 40.089844 46.1875 40.136719 C 46.441406 40.195312 46.726562 40.269531 46.984375 40.335938 C 47.152344 40.378906 47.308594 40.421875 47.445312 40.453125 C 47.597656 40.488281 47.710938 40.507812 47.789062 40.511719 C 47.851562 40.515625 47.890625 40.503906 47.914062 40.492188 C 47.945312 40.464844 47.964844 40.398438 48.003906 40.269531 C 48.027344 40.203125 48.050781 40.121094 48.085938 40.023438 C 48.140625 39.863281 48.222656 39.648438 48.355469 39.441406 C 48.488281 39.230469 48.671875 39.023438 48.933594 38.871094 C 49.144531 38.753906 49.402344 38.667969 49.652344 38.613281 C 49.894531 38.5625 50.132812 38.535156 50.316406 38.523438 C 50.253906 38.4375 50.195312 38.324219 50.132812 38.207031 C 50.042969 38.03125 49.945312 37.84375 49.832031 37.761719 C 49.746094 37.699219 49.636719 37.695312 49.496094 37.753906 C 49.335938 37.820312 49.136719 37.960938 48.898438 38.171875 C 48.75 38.304688 48.582031 38.464844 48.40625 38.628906 C 48.015625 39.003906 47.613281 39.386719 47.351562 39.5 C 47.246094 39.542969 47.152344 39.546875 47.082031 39.515625 C 47.027344 39.492188 46.984375 39.449219 46.960938 39.394531 C 46.941406 39.347656 46.933594 39.285156 46.945312 39.21875 C 46.964844 39.074219 47.066406 38.882812 47.261719 38.707031 C 47.460938 38.53125 47.75 38.371094 48.046875 38.214844 C 48.386719 38.027344 48.730469 37.839844 48.929688 37.628906 L 48.933594 37.625 C 49.105469 37.441406 49.167969 37.234375 49.160156 37.054688 C 49.15625 36.875 49.085938 36.71875 48.984375 36.625 C 48.890625 36.535156 48.769531 36.503906 48.613281 36.535156 C 48.441406 36.566406 48.234375 36.667969 47.988281 36.835938 C 47.761719 36.988281 47.511719 37.191406 47.285156 37.375 C 46.984375 37.621094 46.726562 37.828125 46.617188 37.820312 C 46.59375 37.816406 46.574219 37.8125 46.558594 37.796875 C 46.511719 37.761719 46.503906 37.699219 46.53125 37.617188 C 46.546875 37.570312 46.578125 37.511719 46.617188 37.445312 C 46.757812 37.210938 47.046875 36.859375 47.363281 36.617188 C 47.664062 36.386719 47.988281 36.257812 48.234375 36.15625 C 48.394531 36.089844 48.519531 36.039062 48.554688 36 C 48.570312 35.980469 48.496094 35.910156 48.390625 35.804688 C 48.292969 35.707031 48.164062 35.585938 48.058594 35.425781 C 47.875 35.148438 47.75 34.777344 47.570312 34.246094 C 47.5 34.039062 47.417969 33.800781 47.328125 33.550781 C 47.144531 33.039062 46.902344 32.417969 46.617188 31.8125 C 46.402344 31.351562 46.164062 30.894531 45.910156 30.511719 C 45.617188 30.070312 45.308594 29.722656 45 29.441406 C 44.691406 29.160156 44.382812 28.949219 44.097656 28.78125 C 43.835938 28.632812 43.59375 28.519531 43.382812 28.441406 C 43.128906 28.351562 42.921875 28.304688 42.777344 28.296875 C 42.679688 28.289062 42.625 28.300781 42.605469 28.335938 C 42.578125 28.378906 42.582031 28.472656 42.601562 28.621094 C 42.632812 28.804688 42.691406 29.058594 42.792969 29.316406 C 42.867188 29.507812 42.96875 29.703125 43.097656 29.867188 C 43.246094 30.054688 43.429688 30.207031 43.578125 30.335938 C 43.761719 30.488281 43.898438 30.605469 43.894531 30.726562 C 43.894531 30.742188 43.890625 30.757812 43.886719 30.769531 C 43.863281 30.847656 43.785156 30.898438 43.675781 30.933594 C 43.585938 30.960938 43.472656 30.972656 43.34375 30.96875 C 43.195312 30.964844 43.027344 30.941406 42.867188 30.886719 C 42.558594 30.789062 42.28125 30.597656 42.082031 30.460938 C 41.996094 30.402344 41.921875 30.355469 41.878906 30.332031 C 41.867188 30.367188 41.859375 30.425781 41.84375 30.511719 C 41.824219 30.625 41.796875 30.777344 41.746094 30.984375 C 41.683594 31.242188 41.582031 31.574219 41.472656 31.945312 C 41.320312 32.46875 41.140625 33.074219 41 33.675781 C 40.878906 34.1875 40.789062 34.695312 40.726562 35.210938 C 40.664062 35.726562 40.632812 36.257812 40.632812 36.8125 C 40.636719 37.355469 40.667969 37.929688 40.71875 38.425781 L 40.734375 38.574219 C 40.816406 38.757812 40.890625 38.925781 40.945312 39.074219 C 41.078125 39.441406 41.117188 39.707031 41.105469 39.835938 C 41.101562 39.894531 41.082031 39.9375 41.054688 39.964844 C 41.003906 40.011719 40.949219 40.011719 40.890625 39.960938 C 40.84375 39.921875 40.792969 39.832031 40.75 39.683594 C 40.679688 39.460938 40.613281 39.078125 40.5625 38.625 C 40.425781 38.335938 40.261719 38.007812 40.070312 37.660156 C 39.757812 37.085938 39.386719 36.449219 39.015625 35.828125 C 38.863281 35.578125 38.714844 35.324219 38.5625 35.074219 C 37.976562 34.109375 37.449219 33.234375 37.214844 32.691406 Z M 40.917969 39.605469 C 40.902344 39.539062 40.886719 39.460938 40.859375 39.375 C 40.878906 39.460938 40.894531 39.539062 40.917969 39.605469 Z M 41.894531 30.3125 L 41.890625 30.320312 C 41.894531 30.3125 41.898438 30.304688 41.894531 30.3125 Z M 32.507812 40.542969 C 32.304688 40.519531 32.105469 40.5 31.910156 40.488281 C 31.582031 40.46875 31.261719 40.472656 30.945312 40.515625 C 30.566406 40.566406 30.191406 40.671875 29.996094 40.761719 C 30.136719 40.773438 30.367188 40.761719 30.632812 40.742188 C 31.015625 40.714844 31.464844 40.667969 31.851562 40.625 C 32.097656 40.597656 32.320312 40.570312 32.507812 40.542969 Z M 32.507812 40.542969 " fill-opacity="1" fill-rule="nonzero"/></g><path fill="#ffffff" d="M 43.066406 25.621094 C 42.988281 25.671875 42.910156 25.722656 42.847656 25.789062 C 42.789062 25.851562 42.742188 25.921875 42.714844 26.019531 C 42.683594 26.121094 42.679688 26.25 42.679688 26.394531 C 42.683594 26.535156 42.703125 26.695312 42.714844 26.839844 L 42.714844 26.84375 C 42.75 27.148438 42.773438 27.402344 42.710938 27.582031 C 42.675781 27.679688 42.617188 27.75 42.546875 27.796875 C 42.46875 27.851562 42.375 27.878906 42.289062 27.875 C 42.171875 27.867188 42.074219 27.820312 41.972656 27.769531 C 41.9375 27.75 41.90625 27.734375 41.878906 27.71875 C 41.824219 27.695312 41.769531 27.679688 41.722656 27.671875 C 41.683594 27.667969 41.65625 27.667969 41.636719 27.671875 C 41.628906 27.675781 41.621094 27.6875 41.609375 27.695312 C 41.570312 27.742188 41.535156 27.777344 41.453125 27.75 C 41.40625 27.734375 41.347656 27.6875 41.304688 27.628906 C 41.269531 27.582031 41.238281 27.523438 41.234375 27.460938 C 41.230469 27.390625 41.265625 27.332031 41.3125 27.28125 C 41.351562 27.238281 41.402344 27.203125 41.445312 27.175781 C 41.53125 27.121094 41.609375 27.082031 41.6875 27.042969 L 41.769531 27.203125 C 41.695312 27.242188 41.621094 27.277344 41.546875 27.328125 C 41.507812 27.351562 41.46875 27.375 41.445312 27.40625 C 41.425781 27.421875 41.417969 27.441406 41.417969 27.453125 C 41.417969 27.472656 41.433594 27.496094 41.449219 27.519531 C 41.464844 27.539062 41.476562 27.550781 41.492188 27.566406 C 41.511719 27.542969 41.535156 27.519531 41.578125 27.503906 C 41.625 27.488281 41.6875 27.488281 41.757812 27.496094 C 41.820312 27.503906 41.886719 27.527344 41.957031 27.554688 C 41.996094 27.574219 42.027344 27.589844 42.0625 27.605469 C 42.144531 27.648438 42.226562 27.691406 42.300781 27.695312 C 42.351562 27.695312 42.40625 27.679688 42.453125 27.648438 C 42.492188 27.617188 42.527344 27.578125 42.546875 27.519531 C 42.597656 27.378906 42.574219 27.140625 42.542969 26.859375 L 42.542969 26.855469 C 42.527344 26.707031 42.511719 26.546875 42.507812 26.394531 C 42.503906 26.234375 42.511719 26.085938 42.546875 25.964844 C 42.582031 25.835938 42.648438 25.738281 42.730469 25.660156 C 42.804688 25.582031 42.890625 25.523438 42.972656 25.464844 L 43.074219 25.617188 Z M 43.066406 25.621094 " fill-opacity="1" fill-rule="nonzero"/><g clip-path="url(#f76e56a524)"><path fill="#ffffff" d="M 50.578125 38.535156 L 50.582031 38.535156 C 51.222656 38.820312 51.867188 39.109375 52.515625 39.320312 C 52.671875 39.371094 52.832031 39.421875 52.984375 39.464844 C 53.203125 38.902344 53.414062 38.378906 53.589844 38.085938 C 53.742188 37.832031 53.875 37.742188 53.976562 37.695312 C 53.917969 37.648438 53.871094 37.605469 53.871094 37.53125 C 53.871094 37.503906 53.878906 37.480469 53.894531 37.453125 C 53.917969 37.414062 53.957031 37.378906 54.003906 37.355469 C 54.050781 37.332031 54.105469 37.316406 54.152344 37.316406 C 54.183594 37.316406 54.21875 37.324219 54.246094 37.339844 C 54.269531 37.351562 54.28125 37.367188 54.296875 37.386719 C 54.328125 37.429688 54.34375 37.484375 54.339844 37.542969 C 54.335938 37.597656 54.320312 37.65625 54.296875 37.703125 C 54.28125 37.722656 54.269531 37.738281 54.257812 37.753906 C 54.296875 37.882812 54.242188 38.03125 54.121094 38.355469 L 54.054688 38.542969 L 53.945312 38.84375 C 53.855469 39.101562 53.75 39.394531 53.644531 39.65625 C 53.855469 39.71875 54.039062 39.78125 54.175781 39.847656 C 54.433594 39.972656 54.535156 40.117188 54.621094 40.234375 C 54.652344 40.28125 54.683594 40.324219 54.71875 40.359375 C 54.773438 40.410156 54.847656 40.453125 54.921875 40.492188 C 55.027344 40.554688 55.132812 40.609375 55.203125 40.707031 C 55.277344 40.800781 55.300781 40.917969 55.328125 41.03125 C 55.34375 41.109375 55.359375 41.1875 55.390625 41.242188 C 55.414062 41.289062 55.449219 41.328125 55.484375 41.367188 C 55.570312 41.46875 55.65625 41.5625 55.648438 41.738281 C 55.640625 41.859375 55.582031 42.019531 55.476562 42.183594 C 55.378906 42.332031 55.25 42.480469 55.089844 42.613281 C 54.925781 42.75 54.734375 42.867188 54.53125 42.96875 C 54.332031 43.066406 54.121094 43.152344 53.925781 43.222656 C 53.753906 43.28125 53.59375 43.328125 53.464844 43.363281 C 53.289062 43.410156 53.152344 43.433594 53.117188 43.429688 C 53.050781 43.429688 53.023438 43.394531 53.023438 43.332031 C 53.027344 43.273438 53.09375 43.238281 53.199219 43.1875 C 53.285156 43.148438 53.402344 43.09375 53.535156 43.015625 C 53.679688 42.933594 53.84375 42.832031 54 42.722656 C 54.140625 42.621094 54.277344 42.515625 54.382812 42.417969 C 54.488281 42.316406 54.570312 42.222656 54.632812 42.136719 C 54.691406 42.050781 54.730469 41.972656 54.761719 41.910156 C 54.785156 41.84375 54.800781 41.792969 54.804688 41.742188 C 54.804688 41.691406 54.792969 41.628906 54.761719 41.554688 C 54.722656 41.46875 54.664062 41.363281 54.59375 41.265625 C 54.53125 41.175781 54.460938 41.09375 54.394531 41.035156 C 54.339844 40.988281 54.289062 40.957031 54.246094 40.964844 C 54.207031 40.96875 54.164062 41.003906 54.117188 41.082031 C 54.070312 41.160156 54.019531 41.277344 53.964844 41.414062 C 53.878906 41.625 53.777344 41.875 53.621094 42.113281 C 53.390625 42.46875 53.058594 42.785156 52.800781 43.027344 L 52.714844 43.105469 C 52.632812 43.1875 52.558594 43.257812 52.5 43.316406 C 52.367188 43.449219 52.277344 43.535156 52.191406 43.597656 C 52.117188 43.648438 52.046875 43.679688 51.976562 43.683594 C 51.902344 43.6875 51.828125 43.667969 51.753906 43.613281 C 51.703125 43.578125 51.648438 43.519531 51.609375 43.445312 L 51.597656 43.453125 C 51.398438 43.144531 51.199219 42.832031 51.046875 42.554688 C 50.972656 42.417969 50.910156 42.285156 50.855469 42.15625 C 50.800781 42.027344 50.757812 41.90625 50.726562 41.78125 C 50.695312 41.652344 50.671875 41.527344 50.671875 41.398438 C 50.667969 41.269531 50.683594 41.140625 50.726562 41.011719 C 50.769531 40.886719 50.835938 40.761719 50.914062 40.644531 C 50.988281 40.53125 51.074219 40.417969 51.160156 40.316406 C 51.242188 40.214844 51.320312 40.117188 51.398438 40.050781 C 51.492188 39.96875 51.589844 39.925781 51.691406 39.9375 C 51.792969 39.949219 51.894531 40.023438 51.960938 40.128906 C 52.019531 40.222656 52.054688 40.339844 52.046875 40.464844 C 52.039062 40.597656 51.980469 40.726562 51.917969 40.859375 C 51.867188 40.964844 51.820312 41.070312 51.804688 41.167969 C 51.777344 41.304688 51.8125 41.445312 51.847656 41.601562 C 51.867188 41.691406 51.890625 41.78125 51.902344 41.882812 C 51.917969 41.960938 51.921875 42.042969 51.925781 42.125 L 51.953125 42.050781 C 52.042969 41.820312 52.167969 41.507812 52.3125 41.15625 C 52.445312 40.839844 52.589844 40.480469 52.734375 40.117188 L 52.917969 39.640625 C 52.769531 39.597656 52.613281 39.550781 52.460938 39.5 C 51.8125 39.289062 51.160156 39 50.507812 38.707031 L 50.578125 38.542969 Z M 53.160156 39.515625 L 53.46875 39.605469 C 53.570312 39.34375 53.679688 39.042969 53.773438 38.78125 L 53.878906 38.480469 L 53.949219 38.289062 C 54.039062 38.050781 54.085938 37.917969 54.085938 37.839844 C 54.003906 37.875 53.890625 37.9375 53.742188 38.175781 C 53.578125 38.457031 53.371094 38.964844 53.15625 39.515625 Z M 53.214844 39.71875 L 53.09375 39.683594 L 52.898438 40.175781 C 52.753906 40.546875 52.609375 40.898438 52.480469 41.214844 C 52.332031 41.5625 52.207031 41.871094 52.121094 42.105469 L 52.101562 42.164062 C 52.210938 42.003906 52.320312 41.84375 52.410156 41.691406 C 52.566406 41.433594 52.664062 41.1875 52.742188 40.988281 C 52.789062 40.871094 52.832031 40.765625 52.875 40.679688 C 52.925781 40.582031 52.980469 40.511719 53.035156 40.4375 C 53.113281 40.335938 53.199219 40.21875 53.304688 39.996094 C 53.339844 39.929688 53.371094 39.851562 53.402344 39.769531 L 53.214844 39.714844 Z M 54.09375 40.011719 C 53.964844 39.949219 53.785156 39.886719 53.578125 39.824219 C 53.539062 39.917969 53.503906 40.003906 53.464844 40.082031 C 53.351562 40.316406 53.261719 40.441406 53.179688 40.550781 C 53.125 40.621094 53.078125 40.683594 53.035156 40.769531 C 53 40.84375 52.957031 40.945312 52.910156 41.058594 C 52.828125 41.265625 52.730469 41.515625 52.570312 41.789062 C 52.460938 41.96875 52.332031 42.152344 52.207031 42.335938 C 52.03125 42.582031 51.867188 42.816406 51.792969 42.996094 C 51.742188 43.117188 51.734375 43.210938 51.746094 43.28125 C 51.761719 43.371094 51.8125 43.429688 51.863281 43.460938 C 51.902344 43.488281 51.9375 43.5 51.96875 43.496094 C 52.003906 43.492188 52.046875 43.476562 52.09375 43.441406 C 52.167969 43.390625 52.257812 43.304688 52.382812 43.183594 C 52.445312 43.121094 52.515625 43.050781 52.597656 42.972656 L 52.683594 42.890625 C 52.9375 42.65625 53.261719 42.347656 53.476562 42.011719 C 53.621094 41.785156 53.71875 41.542969 53.804688 41.339844 C 53.863281 41.195312 53.914062 41.070312 53.96875 40.980469 C 54.046875 40.851562 54.136719 40.789062 54.234375 40.777344 C 54.332031 40.769531 54.425781 40.8125 54.519531 40.894531 C 54.597656 40.960938 54.671875 41.058594 54.746094 41.15625 C 54.824219 41.265625 54.886719 41.382812 54.929688 41.480469 C 54.972656 41.578125 54.988281 41.664062 54.988281 41.742188 C 54.984375 41.820312 54.960938 41.890625 54.925781 41.972656 C 54.894531 42.050781 54.847656 42.136719 54.78125 42.230469 C 54.714844 42.328125 54.625 42.429688 54.507812 42.542969 C 54.394531 42.648438 54.253906 42.757812 54.105469 42.863281 C 53.996094 42.9375 53.890625 43.011719 53.78125 43.078125 L 53.867188 43.046875 C 54.054688 42.980469 54.257812 42.898438 54.453125 42.804688 C 54.644531 42.707031 54.824219 42.601562 54.980469 42.472656 C 55.125 42.351562 55.246094 42.214844 55.328125 42.082031 C 55.417969 41.945312 55.46875 41.820312 55.472656 41.726562 C 55.476562 41.625 55.414062 41.558594 55.351562 41.484375 C 55.3125 41.4375 55.265625 41.386719 55.234375 41.324219 C 55.191406 41.242188 55.171875 41.15625 55.152344 41.066406 C 55.132812 40.96875 55.113281 40.875 55.0625 40.8125 C 55.015625 40.746094 54.925781 40.699219 54.835938 40.648438 C 54.75 40.597656 54.664062 40.550781 54.597656 40.484375 C 54.546875 40.441406 54.511719 40.390625 54.472656 40.335938 C 54.398438 40.230469 54.316406 40.109375 54.097656 40.003906 Z M 51.574219 43.078125 C 51.585938 43.027344 51.601562 42.976562 51.625 42.925781 C 51.65625 42.847656 51.703125 42.757812 51.761719 42.667969 C 51.753906 42.65625 51.753906 42.632812 51.753906 42.609375 C 51.753906 42.589844 51.753906 42.550781 51.753906 42.5 C 51.753906 42.355469 51.757812 42.113281 51.726562 41.90625 C 51.714844 41.8125 51.695312 41.726562 51.675781 41.636719 C 51.632812 41.460938 51.597656 41.304688 51.625 41.132812 C 51.648438 41.011719 51.703125 40.894531 51.753906 40.777344 C 51.808594 40.660156 51.863281 40.546875 51.867188 40.449219 C 51.875 40.363281 51.851562 40.285156 51.808594 40.222656 C 51.769531 40.15625 51.714844 40.117188 51.664062 40.109375 C 51.621094 40.105469 51.570312 40.132812 51.511719 40.183594 C 51.445312 40.242188 51.371094 40.328125 51.296875 40.425781 C 51.21875 40.519531 51.136719 40.628906 51.0625 40.738281 C 50.992188 40.847656 50.933594 40.957031 50.898438 41.066406 C 50.859375 41.175781 50.847656 41.28125 50.847656 41.394531 C 50.851562 41.503906 50.871094 41.617188 50.898438 41.730469 C 50.929688 41.84375 50.96875 41.960938 51.019531 42.082031 C 51.070312 42.203125 51.132812 42.328125 51.207031 42.460938 C 51.3125 42.65625 51.4375 42.859375 51.578125 43.078125 Z M 54.105469 37.566406 L 54.148438 37.601562 C 54.15625 37.582031 54.164062 37.558594 54.164062 37.539062 C 54.164062 37.519531 54.164062 37.503906 54.15625 37.496094 C 54.136719 37.496094 54.113281 37.503906 54.09375 37.515625 C 54.082031 37.523438 54.070312 37.53125 54.058594 37.539062 C 54.066406 37.542969 54.082031 37.546875 54.105469 37.566406 Z M 54.105469 37.566406 " fill-opacity="1" fill-rule="nonzero"/></g><g clip-path="url(#eefd496c6c)"><path fill="#ffffff" d="M 48.019531 40.492188 C 48.210938 40.613281 48.402344 40.738281 48.726562 40.980469 C 48.859375 41.082031 49.035156 41.214844 49.210938 41.347656 C 49.425781 41.515625 49.644531 41.6875 49.816406 41.808594 C 49.882812 41.859375 49.945312 41.902344 49.996094 41.9375 C 50.191406 42.074219 50.28125 42.136719 50.28125 42.253906 C 50.28125 42.261719 50.28125 42.269531 50.277344 42.28125 C 50.269531 42.347656 50.226562 42.410156 50.15625 42.457031 C 50.089844 42.5 50.003906 42.527344 49.890625 42.527344 C 49.855469 42.527344 49.816406 42.523438 49.777344 42.515625 C 49.53125 42.476562 49.179688 42.308594 48.839844 42.144531 L 48.710938 42.085938 C 48.527344 41.996094 48.347656 41.914062 48.164062 41.835938 C 47.984375 41.757812 47.796875 41.679688 47.582031 41.601562 L 47.414062 41.542969 C 47.496094 41.601562 47.582031 41.664062 47.675781 41.726562 C 47.980469 41.933594 48.335938 42.136719 48.613281 42.289062 L 48.769531 42.378906 C 48.921875 42.464844 49.035156 42.53125 49.105469 42.589844 C 49.199219 42.667969 49.238281 42.746094 49.230469 42.84375 L 49.226562 42.859375 C 49.210938 42.9375 49.160156 43.027344 49.058594 43.085938 C 48.972656 43.140625 48.84375 43.171875 48.683594 43.15625 L 48.632812 43.148438 C 48.464844 43.117188 48.257812 43.035156 48.039062 42.925781 C 47.820312 42.820312 47.585938 42.6875 47.359375 42.554688 L 46.734375 42.191406 L 46.089844 41.816406 C 45.792969 41.640625 45.605469 41.460938 45.585938 41.484375 C 45.574219 41.503906 45.628906 41.496094 45.667969 41.546875 C 45.738281 41.636719 45.839844 41.753906 45.941406 41.851562 C 46.019531 41.929688 46.09375 41.996094 46.171875 42.0625 C 46.285156 42.164062 46.402344 42.265625 46.53125 42.40625 C 46.675781 42.558594 46.835938 42.757812 46.984375 42.9375 C 47.058594 43.027344 47.128906 43.117188 47.195312 43.195312 L 47.328125 43.347656 C 47.464844 43.503906 47.519531 43.597656 47.40625 43.699219 C 47.347656 43.75 47.214844 43.789062 47.046875 43.761719 C 46.929688 43.75 46.792969 43.703125 46.644531 43.613281 C 46.421875 43.480469 46.175781 43.257812 45.941406 43.039062 C 45.820312 42.925781 45.699219 42.8125 45.59375 42.722656 C 45.4375 42.59375 45.300781 42.5 45.160156 42.449219 C 45.027344 42.398438 44.890625 42.382812 44.730469 42.410156 C 44.527344 42.449219 44.289062 42.550781 44.039062 42.65625 C 43.875 42.726562 43.707031 42.796875 43.539062 42.851562 C 43.324219 42.925781 43.121094 42.964844 42.949219 42.976562 C 42.765625 42.988281 42.617188 42.964844 42.527344 42.902344 C 42.417969 42.824219 42.402344 42.710938 42.390625 42.617188 C 42.382812 42.582031 42.402344 42.558594 42.390625 42.554688 C 42.371094 42.550781 42.296875 42.578125 42.167969 42.628906 C 41.988281 42.695312 41.71875 42.796875 41.308594 42.898438 C 40.953125 42.988281 40.488281 43.082031 40.023438 43.15625 C 39.527344 43.238281 39.027344 43.304688 38.648438 43.335938 L 38.480469 43.347656 C 38.472656 43.367188 38.460938 43.390625 38.449219 43.410156 C 38.414062 43.480469 38.371094 43.550781 38.320312 43.621094 L 38.359375 43.648438 C 38.492188 43.761719 38.605469 43.890625 38.660156 44.03125 C 38.691406 44.113281 38.703125 44.203125 38.691406 44.289062 L 38.742188 44.308594 L 38.832031 44.339844 L 38.832031 44.34375 C 38.683594 44.730469 38.535156 45.125 38.046875 45.453125 C 37.796875 45.617188 37.46875 45.769531 37.078125 45.886719 C 36.703125 46 36.273438 46.085938 35.808594 46.132812 C 35.3125 46.179688 34.773438 46.183594 34.257812 46.128906 C 33.796875 46.078125 33.351562 45.976562 32.980469 45.824219 C 32.585938 45.65625 32.269531 45.425781 32.054688 45.179688 C 31.996094 45.113281 31.945312 45.042969 31.902344 44.972656 C 31.859375 44.921875 31.824219 44.875 31.792969 44.828125 C 31.683594 44.65625 31.652344 44.484375 31.683594 44.324219 C 31.714844 44.152344 31.816406 43.996094 31.96875 43.867188 C 32.148438 43.714844 32.40625 43.597656 32.542969 43.550781 C 32.574219 43.539062 32.601562 43.53125 32.621094 43.53125 C 32.734375 43.507812 32.78125 43.550781 32.742188 43.652344 C 32.734375 43.671875 32.722656 43.6875 32.699219 43.703125 C 32.679688 43.71875 32.648438 43.734375 32.609375 43.757812 C 32.421875 43.863281 31.992188 44.097656 31.933594 44.417969 C 31.910156 44.550781 31.949219 44.707031 32.042969 44.863281 C 32.140625 44.96875 32.269531 45.070312 32.4375 45.167969 C 32.660156 45.292969 32.9375 45.40625 33.273438 45.492188 C 33.628906 45.582031 34.042969 45.640625 34.480469 45.664062 C 34.902344 45.679688 35.34375 45.667969 35.773438 45.609375 C 36.191406 45.550781 36.597656 45.457031 36.960938 45.335938 C 37.355469 45.207031 37.695312 45.054688 37.953125 44.898438 C 38.1875 44.753906 38.347656 44.609375 38.4375 44.46875 C 38.523438 44.335938 38.539062 44.210938 38.496094 44.09375 C 38.453125 43.984375 38.363281 43.878906 38.25 43.789062 L 38.207031 43.753906 C 38.175781 43.789062 38.148438 43.816406 38.113281 43.851562 C 37.949219 44.007812 37.765625 44.148438 37.609375 44.234375 C 37.484375 44.304688 37.378906 44.339844 37.296875 44.351562 C 37.253906 44.359375 37.210938 44.359375 37.175781 44.355469 C 37.085938 44.5625 36.957031 44.773438 36.757812 44.941406 C 36.550781 45.113281 36.273438 45.242188 35.976562 45.324219 C 35.644531 45.417969 35.285156 45.453125 34.980469 45.4375 C 34.691406 45.421875 34.449219 45.355469 34.246094 45.25 C 34.039062 45.144531 33.867188 45 33.714844 44.824219 C 33.574219 44.664062 33.449219 44.472656 33.339844 44.265625 C 33.21875 44.035156 33.117188 43.789062 33.039062 43.550781 C 32.960938 43.324219 32.898438 43.097656 32.875 42.886719 C 32.84375 42.667969 32.84375 42.460938 32.890625 42.28125 C 32.898438 42.25 32.90625 42.222656 32.914062 42.195312 C 32.898438 42.109375 32.910156 42.019531 32.953125 41.929688 C 32.976562 41.882812 33.003906 41.839844 33.042969 41.792969 C 33.15625 41.660156 33.34375 41.53125 33.578125 41.421875 C 33.800781 41.320312 34.066406 41.238281 34.355469 41.183594 C 34.621094 41.136719 34.902344 41.113281 35.175781 41.113281 C 35.503906 41.113281 35.816406 41.136719 36.070312 41.175781 C 36.304688 41.214844 36.492188 41.257812 36.648438 41.3125 C 36.804688 41.367188 36.925781 41.425781 37.035156 41.488281 C 37.144531 41.550781 37.242188 41.621094 37.316406 41.703125 C 37.398438 41.792969 37.453125 41.894531 37.476562 42.019531 C 37.492188 42.101562 37.492188 42.1875 37.492188 42.273438 C 37.496094 42.410156 37.496094 42.539062 37.554688 42.570312 C 37.601562 42.601562 37.714844 42.59375 37.835938 42.589844 C 37.976562 42.578125 38.128906 42.574219 38.25 42.617188 C 38.265625 42.625 38.277344 42.628906 38.289062 42.636719 C 38.402344 42.695312 38.480469 42.792969 38.515625 42.917969 C 38.539062 42.992188 38.539062 43.074219 38.527344 43.164062 L 38.632812 43.15625 C 39.007812 43.121094 39.503906 43.058594 39.992188 42.976562 C 40.453125 42.902344 40.914062 42.8125 41.265625 42.722656 C 41.664062 42.621094 41.925781 42.523438 42.101562 42.457031 C 42.261719 42.398438 42.355469 42.359375 42.429688 42.375 C 42.539062 42.398438 42.550781 42.488281 42.566406 42.585938 C 42.574219 42.644531 42.582031 42.71875 42.628906 42.75 C 42.6875 42.789062 42.792969 42.804688 42.9375 42.796875 C 43.09375 42.785156 43.28125 42.746094 43.484375 42.679688 C 43.636719 42.628906 43.804688 42.554688 43.96875 42.484375 C 44.226562 42.371094 44.476562 42.269531 44.699219 42.226562 C 44.890625 42.191406 45.058594 42.207031 45.222656 42.269531 C 45.382812 42.332031 45.535156 42.4375 45.707031 42.578125 C 45.824219 42.675781 45.941406 42.785156 46.0625 42.898438 C 46.289062 43.109375 46.527344 43.328125 46.730469 43.453125 C 46.855469 43.527344 46.972656 43.5625 47.070312 43.578125 C 47.183594 43.59375 47.257812 43.578125 47.285156 43.554688 C 47.292969 43.546875 47.25 43.523438 47.191406 43.453125 L 47.058594 43.300781 C 46.996094 43.230469 46.917969 43.136719 46.84375 43.042969 C 46.699219 42.863281 46.542969 42.671875 46.398438 42.519531 C 46.269531 42.386719 46.160156 42.28125 46.050781 42.1875 C 45.96875 42.117188 45.890625 42.050781 45.8125 41.972656 C 45.710938 41.867188 45.597656 41.746094 45.523438 41.648438 C 45.4375 41.535156 45.398438 41.433594 45.4375 41.375 C 45.515625 41.265625 45.800781 41.429688 46.175781 41.652344 L 46.820312 42.027344 L 47.449219 42.386719 C 47.675781 42.515625 47.90625 42.648438 48.117188 42.753906 C 48.320312 42.855469 48.511719 42.933594 48.660156 42.960938 L 48.703125 42.964844 C 48.820312 42.976562 48.910156 42.957031 48.964844 42.921875 C 49.015625 42.890625 49.042969 42.847656 49.046875 42.816406 L 49.046875 42.808594 C 49.050781 42.785156 49.03125 42.753906 48.984375 42.71875 C 48.921875 42.664062 48.820312 42.605469 48.679688 42.523438 L 48.519531 42.433594 C 48.242188 42.273438 47.878906 42.074219 47.570312 41.863281 C 47.40625 41.753906 47.246094 41.632812 47.109375 41.523438 C 47.007812 41.449219 46.917969 41.378906 46.839844 41.324219 C 46.679688 41.265625 46.542969 41.214844 46.46875 41.179688 C 46.417969 41.15625 46.386719 41.132812 46.371094 41.109375 C 46.316406 41.042969 46.332031 40.988281 46.410156 40.957031 C 46.429688 40.949219 46.453125 40.949219 46.484375 40.953125 C 46.542969 40.960938 46.652344 40.996094 46.773438 41.066406 C 46.820312 41.09375 46.871094 41.125 46.921875 41.160156 L 47.140625 41.238281 C 47.308594 41.296875 47.488281 41.359375 47.636719 41.417969 C 47.851562 41.496094 48.039062 41.574219 48.230469 41.652344 C 48.417969 41.734375 48.59375 41.820312 48.78125 41.90625 L 48.910156 41.96875 C 49.234375 42.128906 49.574219 42.289062 49.796875 42.324219 C 49.828125 42.332031 49.855469 42.332031 49.882812 42.332031 C 49.957031 42.332031 50.011719 42.3125 50.046875 42.292969 C 50.074219 42.273438 50.085938 42.257812 50.089844 42.242188 L 50.089844 42.238281 C 50.089844 42.214844 50.027344 42.167969 49.882812 42.070312 C 49.828125 42.035156 49.769531 41.992188 49.699219 41.9375 C 49.535156 41.820312 49.3125 41.644531 49.089844 41.472656 C 48.925781 41.34375 48.757812 41.21875 48.609375 41.105469 C 48.28125 40.859375 48.097656 40.742188 47.914062 40.625 L 47.910156 40.625 L 47.972656 40.53125 L 48.007812 40.476562 L 48.011719 40.476562 Z M 38.28125 43.363281 C 38.207031 43.367188 38.140625 43.367188 38.078125 43.367188 C 38.070312 43.394531 38.058594 43.425781 38.046875 43.453125 C 38.089844 43.480469 38.132812 43.503906 38.171875 43.53125 C 38.214844 43.476562 38.25 43.421875 38.28125 43.367188 Z M 37.894531 43.359375 L 37.828125 43.351562 L 37.886719 43.375 L 37.894531 43.355469 Z M 37.898438 43.179688 L 37.921875 43.183594 L 37.921875 43.15625 C 37.914062 43.101562 37.894531 43.058594 37.871094 43.042969 L 37.863281 43.042969 C 37.84375 43.03125 37.816406 43.035156 37.785156 43.042969 C 37.757812 43.054688 37.734375 43.066406 37.714844 43.082031 C 37.695312 43.097656 37.683594 43.109375 37.679688 43.125 C 37.695312 43.144531 37.757812 43.164062 37.902344 43.175781 Z M 38.101562 43.1875 C 38.171875 43.1875 38.257812 43.1875 38.347656 43.183594 C 38.363281 43.105469 38.363281 43.035156 38.347656 42.972656 C 38.324219 42.898438 38.28125 42.835938 38.214844 42.804688 L 38.191406 42.796875 C 38.101562 42.761719 37.972656 42.769531 37.847656 42.773438 C 37.695312 42.785156 37.554688 42.789062 37.457031 42.726562 C 37.324219 42.640625 37.320312 42.460938 37.316406 42.28125 C 37.316406 42.203125 37.316406 42.125 37.304688 42.058594 C 37.285156 41.96875 37.246094 41.894531 37.191406 41.832031 C 37.128906 41.765625 37.046875 41.710938 36.949219 41.652344 C 36.847656 41.597656 36.734375 41.539062 36.589844 41.492188 C 36.445312 41.445312 36.269531 41.398438 36.046875 41.367188 C 35.796875 41.328125 35.492188 41.304688 35.179688 41.304688 C 34.914062 41.304688 34.644531 41.328125 34.386719 41.371094 C 34.257812 41.394531 34.132812 41.425781 34.011719 41.460938 C 34.226562 41.425781 34.46875 41.40625 34.714844 41.394531 C 35.078125 41.386719 35.449219 41.40625 35.757812 41.441406 C 36.042969 41.476562 36.273438 41.527344 36.457031 41.589844 C 36.664062 41.664062 36.8125 41.746094 36.894531 41.835938 C 36.925781 41.867188 36.945312 41.898438 36.960938 41.933594 C 36.988281 41.988281 36.988281 42.050781 36.972656 42.109375 C 36.953125 42.164062 36.921875 42.214844 36.867188 42.265625 C 36.800781 42.328125 36.699219 42.386719 36.566406 42.449219 C 36.371094 42.539062 36.105469 42.628906 35.796875 42.695312 C 35.527344 42.757812 35.226562 42.808594 34.925781 42.824219 C 34.609375 42.847656 34.292969 42.835938 34.011719 42.796875 C 33.726562 42.757812 33.472656 42.695312 33.289062 42.605469 C 33.210938 42.566406 33.144531 42.527344 33.089844 42.480469 C 33.074219 42.464844 33.058594 42.453125 33.046875 42.4375 C 33.027344 42.570312 33.03125 42.71875 33.050781 42.871094 C 33.078125 43.070312 33.136719 43.285156 33.210938 43.503906 C 33.289062 43.738281 33.386719 43.972656 33.503906 44.191406 C 33.605469 44.382812 33.71875 44.5625 33.851562 44.714844 C 33.988281 44.871094 34.144531 45.003906 34.328125 45.097656 C 34.511719 45.191406 34.730469 45.246094 34.992188 45.261719 C 35.277344 45.277344 35.617188 45.242188 35.933594 45.15625 C 36.207031 45.082031 36.460938 44.964844 36.644531 44.808594 C 36.816406 44.664062 36.929688 44.472656 37.015625 44.285156 C 36.964844 44.222656 36.980469 44.160156 37.058594 44.085938 C 37.070312 44.074219 37.085938 44.0625 37.101562 44.050781 C 37.125 43.980469 37.144531 43.90625 37.164062 43.839844 C 37.1875 43.765625 37.207031 43.699219 37.230469 43.636719 C 37.292969 43.464844 37.363281 43.363281 37.464844 43.316406 C 37.515625 43.292969 37.570312 43.285156 37.632812 43.292969 C 37.558594 43.261719 37.519531 43.222656 37.503906 43.171875 C 37.488281 43.132812 37.492188 43.089844 37.507812 43.050781 C 37.527344 43.007812 37.558594 42.972656 37.597656 42.9375 C 37.632812 42.910156 37.679688 42.886719 37.726562 42.871094 C 37.796875 42.847656 37.871094 42.84375 37.933594 42.871094 C 37.941406 42.875 37.949219 42.878906 37.957031 42.882812 C 38.03125 42.925781 38.078125 43.015625 38.09375 43.125 C 38.097656 43.144531 38.097656 43.160156 38.097656 43.183594 Z M 37.671875 43.121094 L 37.671875 43.125 C 37.671875 43.121094 37.667969 43.121094 37.671875 43.121094 Z M 37.957031 43.609375 C 37.808594 43.800781 37.570312 43.957031 37.398438 44.070312 L 37.367188 44.085938 C 37.324219 44.117188 37.285156 44.144531 37.253906 44.164062 L 37.246094 44.183594 L 37.269531 44.179688 C 37.335938 44.167969 37.421875 44.140625 37.527344 44.082031 C 37.667969 44.003906 37.839844 43.875 37.992188 43.726562 C 38.015625 43.707031 38.035156 43.683594 38.058594 43.660156 C 38.023438 43.636719 37.992188 43.621094 37.957031 43.601562 Z M 37.339844 43.894531 C 37.484375 43.800781 37.671875 43.671875 37.789062 43.53125 L 37.769531 43.523438 C 37.664062 43.480469 37.585938 43.464844 37.535156 43.492188 C 37.480469 43.515625 37.441406 43.582031 37.394531 43.707031 C 37.375 43.761719 37.355469 43.828125 37.335938 43.894531 Z M 33.105469 42.214844 C 33.125 42.257812 33.160156 42.304688 33.207031 42.347656 C 33.25 42.382812 33.304688 42.417969 33.367188 42.449219 C 33.535156 42.527344 33.769531 42.589844 34.035156 42.621094 C 34.308594 42.65625 34.609375 42.667969 34.917969 42.644531 C 35.207031 42.628906 35.496094 42.578125 35.757812 42.519531 C 36.050781 42.453125 36.308594 42.371094 36.492188 42.285156 C 36.609375 42.230469 36.691406 42.179688 36.742188 42.132812 C 36.773438 42.105469 36.789062 42.078125 36.796875 42.058594 C 36.800781 42.039062 36.800781 42.023438 36.792969 42.007812 C 36.789062 41.992188 36.777344 41.976562 36.761719 41.960938 C 36.699219 41.890625 36.574219 41.820312 36.398438 41.761719 C 36.226562 41.703125 36.007812 41.652344 35.734375 41.621094 C 35.429688 41.582031 35.066406 41.5625 34.71875 41.574219 C 34.40625 41.585938 34.105469 41.613281 33.863281 41.675781 C 33.617188 41.734375 33.433594 41.824219 33.304688 41.933594 C 33.214844 42.015625 33.152344 42.109375 33.105469 42.210938 Z M 38.484375 44.714844 C 38.375 44.832031 38.234375 44.953125 38.046875 45.066406 C 37.777344 45.230469 37.417969 45.390625 37.015625 45.523438 C 36.640625 45.644531 36.222656 45.746094 35.792969 45.800781 C 35.355469 45.863281 34.902344 45.878906 34.472656 45.859375 C 34.019531 45.835938 33.589844 45.777344 33.226562 45.683594 C 33.066406 45.644531 32.921875 45.597656 32.785156 45.546875 C 32.867188 45.589844 32.953125 45.632812 33.042969 45.671875 C 33.402344 45.824219 33.828125 45.917969 34.273438 45.964844 C 34.773438 46.019531 35.304688 46.015625 35.789062 45.96875 C 36.238281 45.925781 36.660156 45.839844 37.019531 45.734375 C 37.394531 45.617188 37.707031 45.476562 37.941406 45.320312 C 38.210938 45.140625 38.367188 44.933594 38.480469 44.71875 Z M 38.484375 44.714844 " fill-opacity="1" fill-rule="nonzero"/></g><g clip-path="url(#23a83e143b)"><path fill="#ffffff" d="M 55.347656 43.648438 L 55.339844 43.648438 C 54.019531 43.835938 52.703125 44.019531 51.996094 44.160156 C 51.652344 44.226562 51.460938 44.285156 51.351562 44.339844 L 51.351562 44.34375 C 51.378906 44.445312 51.386719 44.535156 51.378906 44.609375 C 51.367188 44.734375 51.3125 44.820312 51.265625 44.851562 L 51.246094 44.863281 C 51.226562 44.871094 51.210938 44.875 51.1875 44.875 C 51.136719 44.875 51.101562 44.84375 51.078125 44.800781 C 51.0625 44.773438 51.054688 44.742188 51.046875 44.703125 C 51.035156 44.628906 51.039062 44.527344 51.0625 44.441406 C 51.074219 44.382812 51.09375 44.328125 51.136719 44.28125 L 51.121094 44.25 C 51.09375 44.191406 51.054688 44.128906 51.011719 44.058594 C 50.699219 43.609375 49.953125 42.960938 49.199219 42.3125 L 49.199219 42.308594 L 49.277344 42.21875 L 49.316406 42.175781 L 49.320312 42.175781 C 50.078125 42.828125 50.835938 43.484375 51.160156 43.957031 C 51.210938 44.03125 51.25 44.101562 51.285156 44.171875 C 51.410156 44.109375 51.613281 44.046875 51.960938 43.980469 C 52.664062 43.839844 53.992188 43.652344 55.316406 43.464844 L 55.320312 43.464844 L 55.34375 43.648438 Z M 55.347656 43.648438 " fill-opacity="1" fill-rule="nonzero"/></g><g clip-path="url(#682fad078f)"><path fill="#ffffff" d="M 43.980469 42.703125 L 43.984375 42.707031 C 44.710938 43.699219 45.441406 44.691406 45.886719 45.167969 C 46.097656 45.398438 46.238281 45.5 46.390625 45.527344 C 46.546875 45.558594 46.730469 45.511719 47.019531 45.425781 C 47.285156 45.351562 47.644531 45.246094 48.023438 45.128906 C 48.5 44.984375 48.992188 44.835938 49.378906 44.714844 L 49.488281 44.683594 C 50.152344 44.476562 50.53125 44.359375 50.746094 44.398438 C 50.925781 44.433594 50.984375 44.550781 51.042969 44.664062 C 51.0625 44.707031 51.085938 44.753906 51.113281 44.78125 C 51.148438 44.820312 51.210938 44.84375 51.335938 44.851562 C 51.480469 44.859375 51.703125 44.84375 52.042969 44.800781 C 52.394531 44.753906 52.867188 44.6875 53.390625 44.605469 C 53.917969 44.523438 54.511719 44.429688 55.113281 44.328125 L 55.136719 44.507812 C 54.546875 44.601562 53.957031 44.699219 53.417969 44.78125 C 52.878906 44.867188 52.40625 44.933594 52.066406 44.976562 C 51.714844 45.023438 51.480469 45.039062 51.324219 45.027344 C 51.148438 45.019531 51.050781 44.972656 50.984375 44.902344 C 50.9375 44.855469 50.910156 44.800781 50.882812 44.742188 C 50.84375 44.667969 50.804688 44.589844 50.714844 44.574219 C 50.542969 44.539062 50.179688 44.652344 49.539062 44.851562 L 49.429688 44.882812 C 49.023438 45.011719 48.523438 45.164062 48.070312 45.296875 C 47.699219 45.410156 47.339844 45.515625 47.066406 45.59375 C 46.753906 45.683594 46.550781 45.734375 46.355469 45.699219 C 46.160156 45.664062 45.992188 45.539062 45.75 45.28125 C 45.296875 44.792969 44.566406 43.800781 43.835938 42.804688 L 43.835938 42.800781 L 43.976562 42.695312 Z M 43.980469 42.703125 " fill-opacity="1" fill-rule="nonzero"/></g><path fill="#ffffff" d="M 50.757812 41.480469 L 49.222656 41.558594 L 49.210938 41.378906 L 50.75 41.300781 Z M 50.757812 41.480469 " fill-opacity="1" fill-rule="nonzero"/><path fill="#ffffff" d="M 47.9375 40.652344 C 47.699219 40.558594 47.457031 40.464844 47.234375 40.375 C 47.007812 40.285156 46.800781 40.1875 46.625 40.085938 C 46.441406 39.980469 46.292969 39.875 46.175781 39.679688 C 46.0625 39.496094 45.980469 39.230469 45.925781 38.816406 C 45.875 38.433594 45.839844 37.917969 45.808594 37.351562 C 45.777344 36.84375 45.746094 36.292969 45.691406 35.761719 C 45.519531 35.398438 45.359375 35.007812 45.242188 34.519531 C 45.132812 34.066406 45.0625 33.53125 45.058594 33.234375 C 45.054688 33.160156 45.058594 33.101562 45.066406 33.054688 C 45.082031 32.960938 45.121094 32.914062 45.191406 32.921875 C 45.210938 32.921875 45.234375 32.929688 45.25 32.945312 C 45.320312 33 45.449219 33.359375 45.570312 33.875 C 45.664062 34.285156 45.761719 34.800781 45.828125 35.355469 C 45.84375 35.472656 45.855469 35.59375 45.867188 35.714844 C 45.9375 35.855469 46.007812 35.996094 46.078125 36.132812 L 45.921875 36.21875 L 45.914062 36.203125 C 45.945312 36.589844 45.96875 36.976562 45.988281 37.34375 C 46.023438 37.90625 46.050781 38.417969 46.101562 38.792969 C 46.15625 39.183594 46.230469 39.425781 46.332031 39.589844 C 46.429688 39.75 46.554688 39.84375 46.714844 39.933594 C 46.882812 40.027344 47.082031 40.121094 47.304688 40.210938 C 47.527344 40.304688 47.765625 40.394531 48.003906 40.488281 L 47.941406 40.65625 Z M 45.617188 35.132812 C 45.554688 34.675781 45.472656 34.257812 45.394531 33.914062 C 45.335938 33.667969 45.285156 33.46875 45.238281 33.324219 C 45.257812 33.621094 45.320312 34.082031 45.414062 34.476562 C 45.472656 34.714844 45.539062 34.929688 45.617188 35.136719 Z M 45.617188 35.132812 " fill-opacity="1" fill-rule="nonzero"/><path fill="#ffffff" d="M 39.507812 31.988281 C 39.449219 32.101562 39.394531 32.214844 39.332031 32.304688 C 39.253906 32.40625 39.171875 32.480469 39.070312 32.488281 C 38.886719 32.5 38.695312 32.289062 38.503906 32.074219 L 38.5 32.070312 L 38.5625 32.019531 L 38.632812 31.945312 L 38.636719 31.949219 C 38.800781 32.132812 38.960938 32.316406 39.0625 32.304688 C 39.101562 32.304688 39.144531 32.261719 39.191406 32.199219 C 39.242188 32.121094 39.296875 32.011719 39.351562 31.90625 L 39.511719 31.988281 Z M 39.507812 31.988281 " fill-opacity="1" fill-rule="nonzero"/></svg>