<svg xmlns="http://www.w3.org/2000/svg" xmlns:xlink="http://www.w3.org/1999/xlink" width="100" zoomAndPan="magnify" viewBox="0 0 75 74.999997" height="100" preserveAspectRatio="xMidYMid meet" version="1.0"><defs><clipPath id="9819252477"><path d="M 31.847656 19.046875 L 46.097656 19.046875 L 46.097656 50.546875 L 31.847656 50.546875 Z M 31.847656 19.046875 " clip-rule="nonzero"/></clipPath></defs><g clip-path="url(#9819252477)"><path fill="#000000" d="M 41.128906 26.589844 C 41.117188 26.578125 41.109375 26.558594 41.105469 26.539062 C 41.097656 26.476562 41.09375 26.410156 41.089844 26.347656 C 40.933594 25.625 40.652344 24.929688 40.511719 24.207031 C 40.289062 23.046875 40.394531 21.746094 40.75 20.625 C 40.871094 20.25 40.976562 19.871094 41.128906 19.503906 C 41.148438 19.445312 41.179688 19.339844 41.214844 19.246094 C 41.242188 19.167969 41.277344 19.105469 41.320312 19.070312 C 41.34375 19.046875 41.367188 19.050781 41.382812 19.050781 C 41.40625 19.050781 41.421875 19.0625 41.4375 19.085938 C 41.445312 19.09375 41.449219 19.109375 41.449219 19.128906 C 41.449219 19.140625 41.445312 19.160156 41.445312 19.167969 C 41.445312 19.238281 41.441406 19.308594 41.4375 19.378906 C 41.429688 19.550781 41.433594 19.726562 41.445312 19.898438 C 41.492188 20.394531 41.539062 20.910156 41.660156 21.394531 C 41.910156 22.425781 41.902344 23.53125 41.664062 24.5625 C 41.550781 25.039062 41.351562 25.46875 41.273438 25.929688 C 41.351562 26.46875 41.402344 27.015625 41.414062 27.5625 C 41.425781 28.078125 41.402344 28.589844 41.328125 29.101562 C 41.304688 29.289062 41.269531 29.46875 41.230469 29.652344 C 41.382812 29.390625 41.539062 29.140625 41.707031 28.898438 C 41.921875 28.582031 42.132812 28.242188 42.40625 27.96875 C 42.851562 27.519531 43.367188 27.199219 43.882812 26.847656 C 44.101562 26.699219 44.347656 26.585938 44.574219 26.445312 C 44.820312 26.289062 45.058594 26.109375 45.308594 25.957031 C 45.460938 25.859375 45.609375 25.761719 45.761719 25.660156 C 45.804688 25.628906 45.847656 25.601562 45.890625 25.570312 C 45.910156 25.554688 45.933594 25.519531 45.949219 25.507812 C 45.964844 25.492188 45.984375 25.484375 45.996094 25.480469 C 46.019531 25.476562 46.039062 25.480469 46.058594 25.496094 C 46.070312 25.507812 46.089844 25.523438 46.089844 25.558594 C 46.097656 25.609375 46.074219 25.675781 46.035156 25.742188 C 45.996094 25.820312 45.933594 25.898438 45.898438 25.949219 C 45.722656 26.257812 45.566406 26.574219 45.375 26.871094 C 44.859375 27.671875 44.265625 28.417969 43.421875 28.910156 C 42.917969 29.203125 42.390625 29.378906 41.929688 29.632812 C 41.511719 29.863281 41.152344 30.160156 40.929688 30.679688 C 40.65625 31.417969 40.285156 32.078125 39.863281 32.75 C 39.105469 33.953125 38.175781 35.191406 37.339844 36.992188 C 37.046875 37.625 36.8125 38.269531 36.636719 38.917969 C 36.648438 38.898438 36.660156 38.878906 36.671875 38.859375 C 37.019531 38.28125 37.597656 37.511719 38.164062 37.128906 C 38.839844 36.675781 39.875 36.332031 40.617188 35.960938 C 40.917969 35.808594 41.183594 35.617188 41.445312 35.410156 C 41.5 35.363281 41.574219 35.285156 41.652344 35.222656 C 41.710938 35.171875 41.773438 35.132812 41.832031 35.113281 C 41.867188 35.101562 41.890625 35.113281 41.90625 35.121094 C 41.929688 35.136719 41.941406 35.160156 41.9375 35.195312 C 41.9375 35.207031 41.933594 35.222656 41.921875 35.242188 C 41.90625 35.261719 41.875 35.292969 41.863281 35.3125 C 41.828125 35.371094 41.792969 35.421875 41.757812 35.480469 C 41.652344 35.644531 41.570312 35.824219 41.476562 35.996094 C 41.4375 36.0625 41.398438 36.132812 41.359375 36.195312 C 41.371094 36.210938 41.371094 36.230469 41.355469 36.242188 C 41.332031 36.261719 41.3125 36.285156 41.289062 36.308594 C 41.128906 36.558594 40.960938 36.792969 40.769531 37.019531 C 40.777344 37.03125 40.777344 37.050781 40.761719 37.0625 C 40.667969 37.167969 40.566406 37.269531 40.460938 37.363281 C 40.425781 37.398438 40.390625 37.4375 40.351562 37.472656 C 39.660156 38.191406 38.839844 38.585938 37.953125 39.015625 C 37.644531 39.164062 37.316406 39.296875 37.023438 39.476562 C 36.746094 39.652344 36.503906 39.867188 36.367188 40.191406 C 36.359375 40.21875 36.347656 40.25 36.335938 40.277344 C 36.09375 41.847656 36.136719 43.453125 36.390625 45.070312 C 36.484375 43.757812 37.324219 42.339844 38.125 41.402344 C 38.144531 41.382812 38.160156 41.363281 38.175781 41.34375 C 38.5 40.964844 38.863281 40.652344 39.269531 40.371094 C 39.296875 40.351562 39.335938 40.3125 39.378906 40.28125 C 39.417969 40.253906 39.453125 40.226562 39.488281 40.21875 C 39.519531 40.210938 39.546875 40.210938 39.574219 40.222656 C 39.597656 40.230469 39.625 40.253906 39.640625 40.289062 C 39.84375 40.75 39.730469 41.429688 39.464844 42.125 C 39.070312 43.152344 38.34375 44.21875 37.851562 44.652344 C 37.625 44.855469 37.300781 45.003906 37.019531 45.1875 C 36.792969 45.335938 36.597656 45.507812 36.523438 45.761719 C 36.863281 47.171875 37.730469 49.363281 38.585938 50.269531 C 38.628906 50.3125 38.625 50.382812 38.578125 50.425781 C 38.542969 50.460938 38.492188 50.464844 38.449219 50.445312 C 38.441406 50.449219 38.433594 50.449219 38.429688 50.453125 C 38.4375 50.460938 38.441406 50.46875 38.449219 50.476562 C 38.464844 50.492188 38.460938 50.515625 38.449219 50.53125 C 38.429688 50.542969 38.40625 50.542969 38.394531 50.527344 C 38.296875 50.421875 38.214844 50.304688 38.132812 50.1875 C 38.125 50.175781 38.125 50.160156 38.132812 50.148438 C 38.070312 50.070312 38.011719 49.988281 37.960938 49.90625 C 37.949219 49.890625 37.957031 49.863281 37.972656 49.855469 C 37.976562 49.855469 37.976562 49.851562 37.976562 49.851562 C 37.652344 49.359375 37.335938 48.730469 37.0625 48.078125 C 37.046875 48.070312 37.03125 48.054688 37.027344 48.03125 C 36.996094 47.933594 36.964844 47.832031 36.925781 47.738281 C 36.914062 47.714844 36.90625 47.683594 36.894531 47.660156 C 36.839844 47.519531 36.777344 47.382812 36.707031 47.246094 C 36.585938 47.179688 36.449219 47.144531 36.3125 47.113281 C 36.160156 47.082031 36.003906 47.058594 35.859375 47.011719 C 34.710938 46.632812 33.824219 46.175781 33.046875 45.230469 C 32.957031 45.121094 32.484375 44.449219 32.375 44.132812 C 32.347656 44.0625 32.339844 44.003906 32.347656 43.964844 C 32.355469 43.933594 32.371094 43.910156 32.394531 43.890625 C 32.429688 43.863281 32.484375 43.851562 32.554688 43.851562 C 32.636719 43.851562 32.742188 43.871094 32.859375 43.90625 C 33.292969 44.035156 33.902344 44.355469 34.035156 44.433594 C 35.007812 45.011719 35.929688 45.757812 36.558594 46.691406 L 36.554688 46.6875 C 36.488281 46.484375 36.425781 46.273438 36.371094 46.0625 C 36.328125 45.894531 36.285156 45.71875 36.246094 45.542969 C 36.234375 45.488281 36.222656 45.433594 36.210938 45.371094 C 36.207031 45.34375 36.203125 45.316406 36.199219 45.285156 C 36.191406 45.253906 36.1875 45.21875 36.179688 45.183594 C 36.164062 45.078125 36.148438 44.972656 36.132812 44.867188 C 36.097656 44.621094 36.066406 44.375 36.042969 44.128906 C 36.03125 44.007812 36.019531 43.886719 36.007812 43.769531 C 36 43.734375 35.992188 43.703125 35.980469 43.664062 C 35.976562 43.664062 35.972656 43.664062 35.96875 43.660156 C 34.007812 42.765625 32.441406 41.132812 32.078125 38.984375 C 32.058594 38.863281 31.898438 38.0625 31.859375 37.683594 C 31.847656 37.570312 31.851562 37.492188 31.859375 37.460938 C 31.875 37.421875 31.902344 37.402344 31.929688 37.398438 C 31.953125 37.390625 31.976562 37.390625 32.007812 37.410156 C 32.027344 37.421875 32.050781 37.441406 32.078125 37.464844 C 32.101562 37.492188 32.128906 37.523438 32.148438 37.535156 C 32.28125 37.632812 32.40625 37.738281 32.550781 37.820312 C 33 38.078125 33.363281 38.339844 33.71875 38.71875 C 35.019531 40.09375 35.960938 43.015625 35.960938 43.015625 C 35.898438 41.324219 36.101562 39.65625 36.664062 38.042969 C 36.664062 38.039062 36.664062 38.039062 36.664062 38.035156 C 36.664062 37.53125 36.472656 37.042969 36.214844 36.574219 C 35.953125 36.097656 35.628906 35.640625 35.371094 35.21875 C 34.921875 34.476562 34.636719 33.660156 34.539062 32.800781 C 34.488281 32.324219 34.5 31.851562 34.546875 31.371094 C 34.5625 31.230469 34.578125 31.089844 34.59375 30.945312 C 34.601562 30.886719 34.609375 30.828125 34.617188 30.769531 C 34.617188 30.765625 34.613281 30.722656 34.613281 30.707031 C 34.617188 30.683594 34.625 30.671875 34.632812 30.660156 C 34.644531 30.640625 34.660156 30.628906 34.675781 30.628906 C 34.695312 30.621094 34.71875 30.621094 34.742188 30.636719 C 34.773438 30.65625 34.804688 30.695312 34.832031 30.75 C 34.867188 30.832031 34.894531 30.960938 34.917969 31.011719 C 35.035156 31.257812 35.179688 31.511719 35.335938 31.730469 C 35.628906 32.140625 35.917969 32.492188 36.105469 32.96875 C 36.527344 34.058594 36.472656 35.164062 36.578125 36.304688 C 36.617188 36.753906 36.734375 37.1875 36.816406 37.632812 C 36.914062 37.378906 37.019531 37.128906 37.136719 36.878906 C 37.738281 35.574219 38.394531 34.5625 38.996094 33.648438 C 38.996094 33.640625 38.996094 33.628906 39 33.621094 C 39.164062 33.011719 39.070312 32.429688 38.875 31.867188 C 38.679688 31.289062 38.382812 30.730469 38.15625 30.179688 C 37.832031 29.394531 37.785156 28.386719 37.980469 27.570312 C 38.039062 27.324219 38.15625 26.839844 38.300781 26.621094 C 38.304688 26.601562 38.308594 26.582031 38.3125 26.5625 C 38.320312 26.542969 38.339844 26.53125 38.359375 26.535156 C 38.378906 26.539062 38.390625 26.558594 38.386719 26.582031 C 38.40625 26.582031 38.417969 26.59375 38.433594 26.609375 C 38.4375 26.621094 38.449219 26.632812 38.449219 26.65625 C 38.453125 26.675781 38.449219 26.714844 38.457031 26.734375 C 38.46875 26.792969 38.488281 26.851562 38.503906 26.90625 C 38.546875 27.074219 38.613281 27.230469 38.679688 27.390625 C 38.886719 27.871094 39.195312 28.296875 39.3125 28.816406 C 39.515625 29.765625 39.269531 30.667969 39.203125 31.609375 C 39.164062 32.160156 39.273438 32.703125 39.257812 33.25 C 39.398438 33.035156 39.539062 32.820312 39.667969 32.609375 C 40.796875 30.820312 41.542969 29.105469 41.011719 25.71875 Z M 36.488281 46.953125 C 36.488281 46.953125 36.484375 46.957031 36.484375 46.957031 C 36.492188 46.960938 36.496094 46.960938 36.5 46.964844 Z M 32.996094 44.898438 C 33.078125 45.015625 33.148438 45.109375 33.175781 45.144531 C 33.933594 46.066406 34.800781 46.507812 35.917969 46.878906 C 35.957031 46.894531 36.003906 46.902344 36.050781 46.914062 C 35.980469 46.886719 35.914062 46.855469 35.847656 46.824219 C 35.613281 46.722656 35.382812 46.621094 35.15625 46.5 C 34.507812 46.144531 33.835938 45.742188 33.300781 45.234375 C 33.1875 45.132812 33.09375 45.011719 32.996094 44.898438 Z M 32.808594 44.441406 C 32.976562 44.628906 33.164062 44.800781 33.355469 44.964844 C 33.800781 45.347656 34.28125 45.671875 34.769531 45.996094 C 35.242188 46.308594 35.746094 46.660156 36.28125 46.878906 C 36.132812 46.800781 35.992188 46.699219 35.847656 46.617188 C 35.605469 46.476562 35.359375 46.34375 35.128906 46.1875 C 34.824219 45.984375 34.539062 45.742188 34.253906 45.523438 C 33.910156 45.257812 33.570312 44.984375 33.21875 44.722656 C 33.085938 44.632812 32.9375 44.542969 32.808594 44.441406 Z M 36.421875 46.761719 C 35.804688 45.859375 34.90625 45.136719 33.960938 44.574219 C 33.835938 44.5 33.242188 44.1875 32.820312 44.0625 C 32.722656 44.03125 32.628906 44.011719 32.5625 44.011719 C 32.554688 44.011719 32.550781 44.011719 32.542969 44.011719 C 32.628906 44.03125 32.703125 44.074219 32.785156 44.101562 C 32.878906 44.132812 32.976562 44.152344 33.070312 44.1875 C 33.320312 44.292969 33.546875 44.460938 33.777344 44.601562 C 33.953125 44.710938 34.140625 44.808594 34.308594 44.925781 C 34.59375 45.125 34.851562 45.359375 35.117188 45.582031 C 35.410156 45.832031 35.707031 46.078125 35.996094 46.339844 C 36.144531 46.476562 36.277344 46.621094 36.421875 46.761719 Z M 32.566406 44.09375 C 32.578125 44.113281 32.597656 44.128906 32.609375 44.140625 C 32.75 44.226562 32.902344 44.292969 33.039062 44.378906 C 33.179688 44.460938 33.308594 44.5625 33.445312 44.652344 C 33.59375 44.753906 33.75 44.839844 33.894531 44.941406 C 34.214844 45.164062 34.511719 45.421875 34.824219 45.660156 C 35.289062 46.011719 35.769531 46.359375 36.25 46.695312 C 36.148438 46.59375 36.050781 46.492188 35.945312 46.394531 C 35.660156 46.136719 35.359375 45.894531 35.066406 45.644531 C 34.804688 45.421875 34.550781 45.1875 34.265625 44.992188 C 34.097656 44.871094 33.910156 44.777344 33.738281 44.671875 C 33.511719 44.53125 33.289062 44.363281 33.039062 44.261719 C 32.953125 44.222656 32.855469 44.207031 32.765625 44.175781 C 32.695312 44.152344 32.628906 44.121094 32.566406 44.09375 Z M 32.800781 44.332031 C 32.941406 44.457031 33.113281 44.554688 33.265625 44.664062 C 33.617188 44.921875 33.953125 45.199219 34.296875 45.460938 C 34.585938 45.683594 34.867188 45.921875 35.171875 46.125 C 35.402344 46.28125 35.644531 46.414062 35.886719 46.550781 C 35.957031 46.59375 36.03125 46.640625 36.105469 46.683594 C 35.652344 46.371094 35.210938 46.046875 34.773438 45.71875 C 34.464844 45.484375 34.167969 45.230469 33.847656 45.003906 C 33.699219 44.902344 33.546875 44.816406 33.398438 44.71875 C 33.265625 44.628906 33.136719 44.527344 32.996094 44.445312 C 32.933594 44.40625 32.867188 44.371094 32.800781 44.332031 Z M 32.8125 44.558594 C 32.878906 44.644531 32.953125 44.734375 33.027344 44.8125 C 33.132812 44.9375 33.234375 45.070312 33.351562 45.183594 C 33.886719 45.683594 34.550781 46.082031 35.191406 46.433594 C 35.347656 46.519531 35.507812 46.59375 35.667969 46.664062 C 35.339844 46.476562 35.023438 46.261719 34.726562 46.0625 C 34.234375 45.738281 33.753906 45.410156 33.304688 45.027344 C 33.132812 44.878906 32.964844 44.722656 32.8125 44.558594 Z M 39.386719 40.5625 C 39.152344 40.875 38.972656 41.246094 38.753906 41.554688 C 37.925781 42.722656 37.1875 43.96875 36.65625 45.296875 C 37.316406 44.3125 37.890625 43.257812 38.492188 42.242188 C 38.828125 41.683594 39.199219 41.179688 39.386719 40.5625 Z M 38.386719 41.359375 C 38.359375 41.386719 38.332031 41.417969 38.304688 41.449219 C 38.289062 41.46875 38.269531 41.488281 38.253906 41.507812 C 37.441406 42.457031 36.585938 43.914062 36.546875 45.234375 C 36.667969 44.773438 36.871094 44.335938 37.042969 43.890625 C 37.382812 43.03125 37.792969 42.113281 38.386719 41.359375 Z M 39.519531 40.402344 C 39.511719 40.40625 39.511719 40.410156 39.503906 40.414062 C 39.335938 41.113281 38.921875 41.664062 38.554688 42.28125 C 38.015625 43.1875 37.5 44.128906 36.925781 45.019531 C 37.753906 44.007812 38.585938 42.925781 39.074219 41.722656 C 39.257812 41.292969 39.457031 40.867188 39.519531 40.402344 Z M 39.296875 40.558594 C 38.21875 41.371094 37.589844 42.703125 37.117188 43.917969 C 36.976562 44.28125 36.8125 44.640625 36.691406 45.011719 C 37.214844 43.773438 37.914062 42.609375 38.691406 41.511719 C 38.902344 41.210938 39.078125 40.863281 39.296875 40.558594 Z M 39.597656 41.058594 C 39.539062 41.324219 39.425781 41.59375 39.347656 41.820312 C 39.113281 42.519531 38.328125 43.773438 37.800781 44.324219 C 37.609375 44.523438 37.410156 44.710938 37.21875 44.910156 C 37.417969 44.796875 37.613281 44.6875 37.765625 44.550781 C 38.242188 44.125 38.953125 43.082031 39.335938 42.082031 C 39.46875 41.722656 39.566406 41.371094 39.597656 41.058594 Z M 39.558594 40.613281 C 39.472656 41.007812 39.300781 41.378906 39.148438 41.753906 C 38.683594 42.890625 37.921875 43.921875 37.136719 44.882812 C 37.335938 44.675781 37.542969 44.480469 37.742188 44.273438 C 38.261719 43.730469 39.039062 42.492188 39.269531 41.800781 C 39.339844 41.601562 39.433594 41.371094 39.496094 41.140625 C 39.546875 40.960938 39.574219 40.78125 39.558594 40.613281 Z M 35.882812 43.457031 C 35.882812 43.457031 35.882812 43.460938 35.882812 43.460938 L 35.890625 43.460938 Z M 32.3125 39.335938 C 32.355469 39.503906 32.402344 39.667969 32.460938 39.832031 C 32.933594 40.753906 33.890625 41.695312 34.53125 42.34375 C 34.933594 42.753906 35.25 43.15625 35.78125 43.386719 C 34.761719 42.714844 34.097656 41.671875 33.34375 40.742188 C 32.964844 40.28125 32.574219 39.851562 32.3125 39.335938 Z M 32.117188 38.3125 C 32.171875 38.617188 32.226562 38.90625 32.238281 38.972656 L 32.238281 38.976562 C 32.480469 39.640625 32.953125 40.140625 33.40625 40.695312 C 34.097656 41.542969 34.707031 42.488281 35.585938 43.152344 C 35.234375 42.800781 34.882812 42.445312 34.574219 42.0625 C 34.003906 41.355469 33.550781 40.5625 33.058594 39.800781 C 32.699219 39.25 32.355469 38.84375 32.117188 38.3125 Z M 32.472656 37.960938 C 33.089844 38.667969 33.496094 39.539062 33.960938 40.351562 C 34.527344 41.332031 35.171875 42.242188 35.847656 43.152344 C 35.839844 43.117188 35.828125 43.082031 35.816406 43.046875 C 35.730469 42.960938 35.652344 42.859375 35.578125 42.742188 C 35.386719 42.445312 35.230469 42.082031 35.085938 41.863281 C 34.625 41.152344 34.171875 40.449219 33.777344 39.699219 C 33.5 39.164062 33.28125 38.640625 32.878906 38.210938 C 32.753906 38.125 32.621094 38.042969 32.484375 37.964844 C 32.480469 37.960938 32.476562 37.960938 32.472656 37.960938 Z M 32.148438 37.734375 C 33.148438 39.457031 34.058594 41.222656 35.402344 42.714844 C 35.519531 42.84375 35.621094 42.984375 35.726562 43.121094 C 35.070312 42.234375 34.445312 41.34375 33.894531 40.386719 C 33.375 39.480469 32.933594 38.503906 32.183594 37.761719 C 32.171875 37.75 32.160156 37.742188 32.148438 37.734375 Z M 32.636719 40.285156 C 33.148438 41.421875 34.03125 42.351562 35.101562 43.03125 C 34.886719 42.839844 34.691406 42.621094 34.472656 42.398438 C 33.925781 41.84375 33.152344 41.074219 32.636719 40.285156 Z M 32.019531 37.660156 C 32.023438 37.710938 32.027344 37.773438 32.039062 37.839844 C 32.042969 37.871094 32.046875 37.90625 32.050781 37.941406 C 32.28125 38.652344 32.6875 39.101562 33.117188 39.761719 C 33.609375 40.519531 34.0625 41.3125 34.628906 42.019531 C 34.90625 42.363281 35.21875 42.683594 35.53125 43 C 35.46875 42.921875 35.40625 42.84375 35.339844 42.765625 C 33.925781 41.1875 32.984375 39.300781 31.914062 37.488281 Z M 33.128906 38.390625 C 33.421875 38.78125 33.613281 39.21875 33.847656 39.667969 C 34.238281 40.417969 34.6875 41.121094 35.148438 41.828125 C 35.292969 42.046875 35.449219 42.410156 35.640625 42.707031 C 35.675781 42.761719 35.707031 42.8125 35.746094 42.859375 C 35.519531 42.351562 35.234375 41.871094 34.980469 41.375 C 34.480469 40.390625 33.996094 39.410156 33.3125 38.542969 C 33.253906 38.492188 33.191406 38.441406 33.128906 38.390625 Z M 33.65625 38.878906 C 34.203125 39.652344 34.617188 40.492188 35.050781 41.335938 C 35.234375 41.691406 35.429688 42.039062 35.613281 42.394531 C 35.175781 41.113281 34.5625 39.851562 33.65625 38.878906 Z M 41.324219 35.832031 C 40.828125 36.226562 40.214844 36.457031 39.671875 36.78125 C 38.667969 37.382812 37.765625 38.144531 37.03125 39.050781 C 36.890625 39.226562 36.714844 39.390625 36.570312 39.570312 C 36.566406 39.582031 36.558594 39.59375 36.550781 39.601562 C 36.578125 39.574219 36.601562 39.550781 36.628906 39.523438 C 36.820312 39.316406 37.019531 39.121094 37.21875 38.925781 C 38.007812 38.152344 38.863281 37.488281 39.796875 36.882812 C 40.300781 36.558594 40.898438 36.269531 41.324219 35.832031 Z M 38.679688 37.003906 C 38.53125 37.082031 38.386719 37.167969 38.261719 37.25 C 37.710938 37.625 37.148438 38.371094 36.808594 38.933594 C 36.722656 39.074219 36.636719 39.222656 36.558594 39.375 C 36.714844 39.128906 36.894531 38.894531 37.066406 38.664062 C 37.515625 38.066406 38.058594 37.46875 38.679688 37.003906 Z M 40.667969 36.914062 C 40.46875 37.09375 40.257812 37.265625 40.039062 37.425781 C 39.5 37.828125 38.882812 38.152344 38.308594 38.496094 C 37.949219 38.710938 37.601562 38.933594 37.265625 39.183594 C 37.453125 39.085938 37.636719 38.988281 37.816406 38.878906 C 38.25 38.613281 38.660156 38.3125 39.101562 38.058594 C 39.402344 37.886719 39.730469 37.769531 40.03125 37.59375 C 40.109375 37.523438 40.183594 37.453125 40.257812 37.375 C 40.402344 37.222656 40.539062 37.070312 40.667969 36.914062 Z M 41.148438 36.261719 C 41.082031 36.335938 41.011719 36.410156 40.9375 36.472656 C 40.71875 36.660156 40.46875 36.824219 40.234375 37 C 39.542969 37.523438 38.820312 37.996094 38.09375 38.472656 C 37.808594 38.660156 37.542969 38.859375 37.28125 39.070312 C 37.601562 38.84375 37.925781 38.632812 38.265625 38.429688 C 38.839844 38.082031 39.453125 37.761719 39.992188 37.363281 C 40.328125 37.113281 40.648438 36.835938 40.953125 36.542969 C 41.023438 36.453125 41.085938 36.359375 41.148438 36.261719 Z M 41.296875 35.960938 C 40.875 36.359375 40.3125 36.636719 39.839844 36.941406 C 38.910156 37.542969 38.0625 38.203125 37.273438 38.976562 C 37.25 39 37.230469 39.023438 37.207031 39.042969 C 37.476562 38.816406 37.757812 38.605469 38.054688 38.410156 C 38.777344 37.933594 39.5 37.460938 40.191406 36.941406 C 40.421875 36.765625 40.671875 36.605469 40.886719 36.414062 C 41.03125 36.289062 41.171875 36.132812 41.296875 35.960938 Z M 39.679688 36.546875 C 39.511719 36.621094 39.335938 36.691406 39.167969 36.769531 C 38.363281 37.25 37.679688 37.980469 37.136719 38.707031 C 37.097656 38.757812 37.0625 38.804688 37.019531 38.855469 C 37.042969 38.828125 37.0625 38.800781 37.085938 38.777344 C 37.796875 37.90625 38.707031 37.136719 39.679688 36.546875 Z M 39.765625 37.816406 C 39.554688 37.917969 39.34375 38.007812 39.140625 38.121094 C 38.773438 38.332031 38.425781 38.574219 38.070312 38.800781 C 38.679688 38.507812 39.25 38.222656 39.765625 37.816406 Z M 41.503906 35.566406 C 41.320312 35.710938 41.136719 35.84375 40.941406 35.960938 C 40.941406 35.960938 40.941406 35.964844 40.941406 35.964844 C 40.949219 35.984375 40.945312 36.007812 40.925781 36.015625 C 40.578125 36.191406 40.214844 36.320312 39.878906 36.515625 C 39.113281 36.960938 38.382812 37.523438 37.75 38.15625 C 38.320312 37.605469 38.953125 37.121094 39.636719 36.714844 C 40.238281 36.355469 40.933594 36.113281 41.449219 35.621094 C 41.464844 35.605469 41.484375 35.585938 41.503906 35.566406 Z M 34.785156 31.097656 C 34.804688 31.230469 34.824219 31.367188 34.867188 31.496094 C 34.921875 31.679688 35.023438 31.839844 35.070312 32.027344 C 35.332031 33.109375 35.609375 34.203125 35.960938 35.261719 C 36.066406 35.582031 36.191406 35.894531 36.320312 36.207031 C 36.335938 36.25 36.359375 36.292969 36.378906 36.335938 C 36.304688 36.121094 36.273438 35.894531 36.21875 35.679688 C 36.105469 35.222656 35.980469 34.769531 35.867188 34.3125 C 35.679688 33.554688 35.492188 32.789062 35.226562 32.054688 C 35.125 31.769531 34.972656 31.496094 34.84375 31.222656 C 34.824219 31.175781 34.804688 31.136719 34.785156 31.097656 Z M 35.230469 31.859375 C 35.253906 31.917969 35.277344 31.972656 35.296875 32.027344 C 35.558594 32.761719 35.75 33.53125 35.9375 34.292969 C 36.054688 34.75 36.175781 35.203125 36.289062 35.660156 C 36.316406 35.769531 36.335938 35.882812 36.363281 35.996094 C 36.332031 35.769531 36.304688 35.546875 36.265625 35.324219 C 36.15625 34.765625 36 34.214844 35.886719 33.65625 C 35.789062 33.191406 35.730469 32.640625 35.488281 32.214844 C 35.402344 32.097656 35.316406 31.980469 35.230469 31.859375 Z M 34.71875 32.945312 C 34.824219 33.730469 35.097656 34.476562 35.511719 35.160156 C 35.667969 35.417969 35.847656 35.683594 36.023438 35.960938 C 35.953125 35.804688 35.882812 35.648438 35.808594 35.492188 C 35.566406 35.003906 35.332031 34.515625 35.117188 34.011719 C 34.960938 33.660156 34.824219 33.308594 34.71875 32.945312 Z M 34.726562 31.222656 L 34.71875 31.269531 C 34.71875 31.390625 34.71875 31.511719 34.730469 31.632812 C 34.761719 31.914062 34.851562 32.171875 34.917969 32.441406 C 35.011719 32.785156 35.085938 33.140625 35.195312 33.480469 C 35.289062 33.769531 35.414062 34.042969 35.511719 34.328125 C 35.667969 34.796875 35.84375 35.257812 36.039062 35.710938 C 35.984375 35.570312 35.9375 35.429688 35.886719 35.285156 C 35.535156 34.222656 35.257812 33.128906 34.992188 32.042969 C 34.949219 31.859375 34.84375 31.699219 34.792969 31.519531 C 34.761719 31.421875 34.738281 31.320312 34.726562 31.21875 Z M 35.71875 32.554688 C 35.835938 32.910156 35.890625 33.296875 35.957031 33.640625 C 36.074219 34.199219 36.230469 34.75 36.335938 35.308594 C 36.351562 35.378906 36.363281 35.449219 36.375 35.519531 C 36.328125 34.679688 36.285156 33.859375 35.96875 33.042969 C 35.898438 32.867188 35.8125 32.707031 35.71875 32.554688 Z M 34.675781 31.800781 C 34.667969 32 34.667969 32.199219 34.671875 32.402344 C 34.761719 32.949219 34.960938 33.46875 35.183594 33.984375 C 35.363281 34.398438 35.550781 34.800781 35.75 35.203125 C 35.636719 34.921875 35.535156 34.640625 35.4375 34.351562 C 35.339844 34.066406 35.214844 33.792969 35.121094 33.503906 C 35.011719 33.160156 34.933594 32.808594 34.84375 32.460938 C 34.789062 32.238281 34.71875 32.023438 34.675781 31.800781 Z M 38.03125 28.308594 C 37.988281 28.929688 38.078125 29.589844 38.300781 30.140625 C 38.476562 30.5625 38.691406 30.992188 38.871094 31.425781 C 38.851562 31.359375 38.832031 31.292969 38.808594 31.230469 C 38.488281 30.347656 38.109375 29.410156 38.039062 28.460938 C 38.039062 28.410156 38.035156 28.359375 38.03125 28.308594 Z M 38.898438 28.160156 C 38.9375 28.414062 38.933594 28.675781 38.941406 28.9375 C 38.945312 29.285156 38.976562 29.640625 38.957031 29.988281 C 38.949219 30.179688 38.933594 30.378906 38.929688 30.578125 C 38.960938 30.808594 38.992188 31.039062 39.027344 31.269531 C 39.027344 31.269531 39.027344 31.261719 39.027344 31.261719 C 39.023438 30.871094 39.082031 30.488281 39.109375 30.101562 C 39.148438 29.535156 39.144531 28.945312 39.007812 28.390625 C 38.972656 28.3125 38.933594 28.238281 38.898438 28.160156 Z M 39.167969 28.871094 C 39.214844 29.28125 39.210938 29.699219 39.183594 30.101562 C 39.15625 30.460938 39.105469 30.8125 39.101562 31.171875 C 39.191406 30.402344 39.335938 29.652344 39.167969 28.871094 Z M 38.195312 27.382812 C 38.175781 27.460938 38.15625 27.527344 38.144531 27.589844 C 38.109375 27.875 38.09375 28.160156 38.113281 28.460938 C 38.183594 29.386719 38.546875 30.300781 38.867188 31.171875 C 38.859375 31.125 38.859375 31.082031 38.855469 31.03125 C 38.8125 30.847656 38.765625 30.660156 38.71875 30.476562 C 38.582031 29.933594 38.390625 29.398438 38.292969 28.84375 C 38.214844 28.363281 38.164062 27.871094 38.195312 27.382812 Z M 38.320312 26.96875 L 38.316406 26.976562 C 38.21875 27.589844 38.265625 28.21875 38.371094 28.832031 C 38.464844 29.378906 38.65625 29.914062 38.792969 30.457031 C 38.808594 30.53125 38.828125 30.601562 38.847656 30.675781 C 38.847656 30.644531 38.847656 30.613281 38.851562 30.582031 C 38.753906 29.855469 38.660156 29.128906 38.550781 28.402344 C 38.515625 28.179688 38.492188 27.949219 38.449219 27.726562 C 38.402344 27.476562 38.34375 27.21875 38.324219 26.960938 Z M 38.417969 27.136719 C 38.445312 27.332031 38.488281 27.519531 38.523438 27.710938 C 38.566406 27.9375 38.589844 28.164062 38.625 28.390625 C 38.710938 28.980469 38.789062 29.570312 38.871094 30.15625 C 38.871094 30.097656 38.875 30.039062 38.878906 29.980469 C 38.894531 29.636719 38.867188 29.28125 38.859375 28.933594 C 38.855469 28.582031 38.863281 28.21875 38.753906 27.890625 C 38.679688 27.75 38.605469 27.609375 38.542969 27.460938 C 38.503906 27.355469 38.457031 27.25 38.417969 27.136719 Z M 41.421875 29.75 C 41.417969 29.757812 41.414062 29.761719 41.410156 29.765625 C 41.386719 29.792969 41.363281 29.824219 41.339844 29.851562 C 41.339844 29.855469 41.335938 29.859375 41.332031 29.859375 C 41.328125 29.867188 41.328125 29.871094 41.324219 29.875 C 41.363281 29.839844 41.402344 29.804688 41.445312 29.769531 C 41.441406 29.769531 41.433594 29.765625 41.429688 29.761719 C 41.425781 29.761719 41.421875 29.757812 41.421875 29.75 Z M 43.609375 27.21875 C 43.226562 27.480469 42.851562 27.742188 42.519531 28.074219 C 42.253906 28.339844 42.046875 28.675781 41.835938 28.980469 C 41.703125 29.179688 41.570312 29.382812 41.445312 29.589844 L 41.457031 29.582031 C 41.578125 29.429688 41.707031 29.28125 41.832031 29.136719 C 41.914062 29.039062 41.996094 28.945312 42.074219 28.851562 C 42.457031 28.394531 42.800781 27.949219 43.238281 27.542969 C 43.355469 27.4375 43.484375 27.328125 43.609375 27.21875 Z M 45.4375 26.484375 C 44.960938 27.175781 44.351562 27.769531 43.664062 28.265625 C 43.238281 28.570312 42.796875 28.871094 42.359375 29.164062 C 42.207031 29.261719 42.054688 29.363281 41.910156 29.476562 C 41.988281 29.433594 42.066406 29.394531 42.148438 29.359375 C 42.222656 29.3125 42.296875 29.269531 42.371094 29.222656 C 42.957031 28.882812 43.515625 28.484375 44.042969 28.0625 C 44.328125 27.835938 44.640625 27.621094 44.878906 27.34375 C 45.007812 27.164062 45.132812 26.980469 45.257812 26.792969 C 45.320312 26.691406 45.378906 26.589844 45.4375 26.484375 Z M 45.160156 26.734375 C 44.609375 27.320312 43.933594 27.789062 43.265625 28.261719 C 42.863281 28.550781 42.480469 28.882812 42.109375 29.210938 C 42.054688 29.261719 41.996094 29.3125 41.9375 29.359375 C 42.058594 29.269531 42.1875 29.1875 42.316406 29.101562 C 42.753906 28.8125 43.195312 28.511719 43.621094 28.207031 C 44.199219 27.785156 44.722656 27.292969 45.160156 26.734375 Z M 45.511719 26.199219 C 45.324219 26.363281 45.132812 26.515625 44.941406 26.675781 C 44.445312 27.089844 43.964844 27.511719 43.453125 27.910156 C 43.105469 28.1875 42.746094 28.46875 42.421875 28.777344 C 42.253906 28.941406 42.085938 29.105469 41.917969 29.269531 C 41.964844 29.230469 42.011719 29.191406 42.054688 29.152344 C 42.429688 28.824219 42.8125 28.488281 43.21875 28.199219 C 44.058594 27.609375 44.910156 27.019531 45.511719 26.199219 Z M 45.636719 25.976562 C 45.453125 26.082031 45.265625 26.179688 45.089844 26.304688 C 44.507812 26.71875 43.988281 27.210938 43.453125 27.679688 C 42.914062 28.152344 42.378906 28.652344 41.894531 29.1875 L 41.886719 29.199219 C 42.046875 29.039062 42.210938 28.878906 42.371094 28.71875 C 42.695312 28.410156 43.058594 28.128906 43.410156 27.851562 C 43.917969 27.449219 44.398438 27.03125 44.890625 26.613281 C 45.144531 26.410156 45.40625 26.207031 45.636719 25.976562 Z M 44.539062 27.765625 C 44.390625 27.886719 44.238281 28 44.089844 28.121094 C 43.652344 28.464844 43.199219 28.796875 42.726562 29.089844 C 42.9375 29 43.148438 28.898438 43.351562 28.777344 C 43.816406 28.507812 44.199219 28.160156 44.539062 27.765625 Z M 44.492188 26.671875 C 44.429688 26.707031 44.363281 26.742188 44.296875 26.78125 C 43.957031 27.035156 43.597656 27.320312 43.292969 27.601562 C 43.015625 27.855469 42.777344 28.128906 42.542969 28.410156 C 42.820312 28.140625 43.113281 27.878906 43.40625 27.625 C 43.765625 27.308594 44.125 26.980469 44.492188 26.671875 Z M 41.632812 22.050781 C 41.632812 22.425781 41.613281 22.804688 41.566406 23.179688 C 41.496094 23.75 41.402344 24.308594 41.296875 24.878906 C 41.253906 25.121094 41.207031 25.371094 41.191406 25.621094 C 41.285156 25.261719 41.429688 24.910156 41.519531 24.527344 C 41.707031 23.726562 41.75 22.875 41.632812 22.050781 Z M 40.667969 21.59375 C 40.515625 22.449219 40.503906 23.351562 40.664062 24.179688 C 40.742188 24.574219 40.855469 24.960938 40.972656 25.347656 C 40.917969 24.980469 40.871094 24.617188 40.824219 24.25 C 40.71875 23.359375 40.617188 22.480469 40.667969 21.59375 Z M 40.816406 20.949219 C 40.816406 20.953125 40.8125 20.957031 40.8125 20.960938 C 40.644531 22.058594 40.769531 23.140625 40.902344 24.242188 C 40.945312 24.59375 40.992188 24.941406 41.046875 25.292969 C 41.046875 25.253906 41.054688 25.214844 41.058594 25.179688 C 41.023438 24.851562 40.96875 24.519531 40.9375 24.191406 C 40.859375 23.394531 40.835938 22.597656 40.8125 21.792969 C 40.804688 21.488281 40.800781 21.21875 40.816406 20.949219 Z M 41.507812 21.398438 C 41.507812 22.113281 41.445312 22.828125 41.339844 23.53125 C 41.28125 23.910156 41.285156 24.332031 41.21875 24.710938 C 41.203125 24.804688 41.183594 24.894531 41.167969 24.980469 C 41.167969 25.042969 41.167969 25.105469 41.171875 25.167969 C 41.1875 25.066406 41.203125 24.96875 41.222656 24.867188 C 41.328125 24.296875 41.421875 23.738281 41.492188 23.171875 C 41.558594 22.613281 41.578125 22.058594 41.527344 21.496094 C 41.523438 21.472656 41.519531 21.453125 41.515625 21.433594 C 41.511719 21.421875 41.507812 21.410156 41.507812 21.398438 Z M 41.265625 19.589844 C 41.035156 20.621094 41.023438 21.710938 41.046875 22.757812 C 41.058594 23.332031 41.066406 23.898438 41.101562 24.472656 C 41.101562 24.441406 41.105469 24.410156 41.105469 24.375 C 41.113281 23.847656 41.128906 23.328125 41.160156 22.800781 C 41.222656 21.839844 41.246094 20.558594 41.265625 19.589844 Z M 41.328125 20.253906 C 41.308594 21.097656 41.285156 22.050781 41.238281 22.804688 C 41.207031 23.328125 41.191406 23.851562 41.183594 24.375 C 41.183594 24.398438 41.183594 24.421875 41.183594 24.441406 C 41.214844 24.136719 41.222656 23.808594 41.265625 23.515625 C 41.390625 22.679688 41.460938 21.808594 41.421875 20.949219 C 41.382812 20.722656 41.351562 20.488281 41.328125 20.253906 Z M 41.109375 20.007812 C 41.046875 20.199219 40.992188 20.390625 40.929688 20.578125 C 40.875 20.980469 40.878906 21.347656 40.890625 21.789062 C 40.910156 22.574219 40.933594 23.359375 41.007812 24.140625 C 40.988281 23.679688 40.980469 23.21875 40.972656 22.757812 C 40.953125 21.851562 40.960938 20.910156 41.109375 20.007812 Z M 41.109375 20.007812 " fill-opacity="1" fill-rule="evenodd"/></g></svg>