<svg xmlns="http://www.w3.org/2000/svg" xmlns:xlink="http://www.w3.org/1999/xlink" width="350" zoomAndPan="magnify" viewBox="0 0 262.5 44.999999" height="60" preserveAspectRatio="xMidYMid meet" version="1.0"><path stroke-linecap="butt" transform="matrix(0.75, 0, 0, 0.75, -10.060079, 12.492763)" fill="none" stroke-linejoin="miter" d="M 46.663444 13.301318 C 51.595737 13.301318 55.163445 10.056526 55.163445 5.556526 C 55.163445 1.311733 51.99157 -1.860142 47.522819 -2.219517 L 40.689485 -2.219517 L 40.689485 25.035695 L 45.908236 25.035695 L 45.908236 13.301318 Z M 45.944694 2.967984 L 46.663444 2.967984 C 47.199903 2.967984 49.944695 3.113817 49.944695 5.556526 C 49.944695 7.895068 47.455111 8.082568 46.663444 8.082568 L 45.944694 8.082568 Z M 63.689488 19.566944 L 69.236364 19.566944 L 70.283239 24.962778 L 75.574906 24.962778 L 70.356156 -2.292434 L 67.689489 -2.292434 L 67.611364 -2.255975 L 66.460322 -2.255975 L 66.423864 -2.292434 L 63.762405 -2.292434 L 63.762405 -2.255975 L 56.960321 24.962778 L 62.356155 24.962778 Z M 66.819697 6.962776 L 68.225947 14.348193 L 64.986363 14.348193 Z M 77.371782 -2.219517 L 77.371782 18.988819 C 77.371782 22.337778 80.106157 25.035695 83.418657 25.035695 L 87.199908 25.035695 C 90.548867 25.035695 93.246784 22.337778 93.246784 18.988819 L 93.246784 -2.219517 L 88.0697 -2.219517 L 88.0697 18.988819 C 88.0697 19.452361 87.66345 19.816944 87.199908 19.816944 L 83.418657 19.816944 C 82.955116 19.816944 82.590532 19.452361 82.590532 18.988819 L 82.590532 -2.219517 Z M 95.048867 24.962778 L 109.481161 24.962778 L 109.481161 19.744028 L 100.267618 19.744028 L 100.267618 -2.292434 L 95.048867 -2.292434 Z M 116.501995 -2.292434 L 111.283244 -2.292434 L 111.283244 24.962778 L 116.501995 24.962778 Z M 127.52283 -2.292434 L 127.52283 5.348192 L 123.814496 -2.292434 L 118.304079 -2.292434 L 118.304079 24.962778 L 123.522829 24.962778 L 123.522829 8.978401 L 127.52283 17.186736 L 127.52283 24.962778 L 132.736372 24.962778 L 132.736372 -2.292434 Z M 141.272832 19.566944 L 146.819707 19.566944 L 147.861374 24.962778 L 153.153042 24.962778 L 147.934291 -2.292434 L 145.272832 -2.292434 L 145.189499 -2.255975 L 144.038457 -2.255975 L 144.007207 -2.292434 L 141.34054 -2.292434 L 141.34054 -2.255975 L 134.538456 24.962778 L 139.93429 24.962778 Z M 144.403041 6.962776 L 145.809291 14.348193 L 142.564499 14.348193 Z M 162.153043 24.962778 L 176.585336 24.962778 L 176.585336 19.744028 L 167.371794 19.744028 L 167.371794 -2.292434 L 162.153043 -2.292434 Z M 185.121796 19.566944 L 190.663463 19.566944 L 191.710338 24.962778 L 197.002006 24.962778 L 191.783255 -2.292434 L 189.116588 -2.292434 L 189.038463 -2.255975 L 187.887421 -2.255975 L 187.850963 -2.292434 L 185.189504 -2.292434 L 185.189504 -2.255975 L 178.38742 24.962778 L 183.783254 24.962778 Z M 188.246796 6.962776 L 189.653046 14.348193 L 186.413463 14.348193 Z M 198.798881 5.160692 C 198.798881 10.207568 201.752006 13.150277 206.939507 13.301318 L 207.762424 13.301318 C 208.382216 13.301318 209.600966 13.301318 209.600966 15.13986 L 209.600966 17.733611 C 209.600966 18.697152 208.231174 19.816944 206.288465 19.816944 L 199.449923 19.816944 L 199.449923 25.035695 L 206.288465 25.035695 C 210.965549 25.035695 214.788466 21.754444 214.788466 17.733611 L 214.788466 15.13986 C 214.788466 11.754443 212.590549 8.082568 207.762424 8.082568 L 207.298882 8.082568 C 204.918673 8.082568 204.02284 7.535693 204.02284 5.160692 C 204.02284 4.337776 205.064507 2.967984 205.856174 2.967984 L 208.731174 2.967984 L 213.949925 2.999234 L 213.949925 -2.219517 L 205.205132 -2.219517 C 201.569715 -1.823684 198.798881 1.921109 198.798881 5.160692 Z M 231.017635 13.988818 C 231.017635 10.92111 228.679093 8.369026 225.68951 8.046109 L 231.418677 -2.292434 L 225.444718 -2.292434 L 221.804092 4.301317 L 221.804092 -2.292434 L 216.585342 -2.292434 L 216.585342 24.962778 L 221.804092 24.962778 L 221.804092 13.23361 L 225.002009 13.23361 C 225.444718 13.23361 225.804093 13.592985 225.804093 14.020068 L 225.871801 24.962778 L 231.09576 24.962778 Z M 243.043678 -2.17785 L 239.262428 -2.17785 C 235.949928 -2.17785 233.215552 0.520067 233.215552 3.869025 L 233.215552 18.988819 C 233.215552 22.337778 235.949928 25.035695 239.262428 25.035695 L 243.043678 25.035695 C 246.392637 25.035695 249.090554 22.337778 249.090554 18.988819 L 249.090554 3.869025 C 249.090554 0.520067 246.392637 -2.17785 243.043678 -2.17785 Z M 243.91347 18.988819 C 243.91347 19.452361 243.50722 19.816944 243.043678 19.816944 L 239.262428 19.816944 C 238.798886 19.816944 238.434303 19.452361 238.434303 18.988819 L 238.434303 3.869025 C 238.434303 3.395067 238.798886 2.999234 239.262428 2.999234 L 243.043678 2.999234 C 243.50722 2.999234 243.91347 3.395067 243.91347 3.869025 Z M 274.147849 -2.219517 L 269.684307 16.035694 L 266.694723 0.410692 L 261.403056 0.410692 L 262.298889 5.160692 L 259.637431 16.035694 L 256.184305 -2.219517 L 250.892638 -2.219517 L 256.04368 25.035695 L 262.772848 25.035695 L 264.647848 17.478402 L 266.085348 25.035695 L 272.809307 25.035695 L 279.507225 -2.219517 Z M 281.309308 5.160692 C 281.309308 10.207568 284.262434 13.150277 289.449935 13.301318 L 290.27806 13.301318 C 290.892643 13.301318 292.111393 13.301318 292.111393 15.13986 L 292.111393 17.733611 C 292.111393 18.697152 290.741601 19.816944 288.798893 19.816944 L 281.96035 19.816944 L 281.96035 25.035695 L 288.798893 25.035695 C 293.475977 25.035695 297.298894 21.754444 297.298894 17.733611 L 297.298894 15.13986 C 297.298894 11.754443 295.100977 8.082568 290.27806 8.082568 L 289.80931 8.082568 C 287.429101 8.082568 286.533268 7.535693 286.533268 5.160692 C 286.533268 4.337776 287.580143 2.967984 288.366601 2.967984 L 291.241601 2.967984 L 296.46556 2.999234 L 296.46556 -2.219517 L 287.720768 -2.219517 C 284.080142 -1.823684 281.309308 1.921109 281.309308 5.160692 Z M 313.528063 13.988818 C 313.528063 10.92111 311.189521 8.369026 308.199937 8.046109 L 313.929104 -2.292434 L 307.955145 -2.292434 L 304.31452 4.301317 L 304.31452 -2.292434 L 299.095769 -2.292434 L 299.095769 24.962778 L 304.31452 24.962778 L 304.31452 13.23361 L 307.517645 13.23361 C 307.955145 13.23361 308.31452 13.592985 308.31452 14.020068 L 308.387437 24.962778 L 313.606188 24.962778 Z M 322.460356 19.566944 L 328.007231 19.566944 L 329.054106 24.962778 L 334.340565 24.962778 L 329.121815 -2.292434 L 326.460356 -2.292434 L 326.382231 -2.255975 L 325.225981 -2.255975 L 325.194731 -2.292434 L 322.528064 -2.292434 L 322.528064 -2.255975 L 315.72598 24.962778 L 321.121814 24.962778 Z M 325.590564 6.962776 L 326.996814 14.348193 L 323.752022 14.348193 Z M 325.590564 6.962776 " stroke="#e5ccfd" stroke-width="1.035003" stroke-opacity="1" stroke-miterlimit="4"/></svg>